<svg xmlns="http://www.w3.org/2000/svg" width="119.938" height="124.229" viewBox="0 0 119.938 124.229"><g id="icon" transform="translate(-1300 -1470)"><g id="background"><path id="bg" d="M4819.911,5384.04a1.774,1.774,0,0,1,.435.19A2.483,2.483,0,0,1,4819.911,5384.04Zm-4.185.046a4.668,4.668,0,0,0,1.145-.07c.56-.085,1.018-.169,1.127.095a6.253,6.253,0,0,1-1.012.1A8.012,8.012,0,0,1,4815.726,5384.085Zm1.33-.433c-1.278-.2-2.363-.453-2.143-.927,1.715-.343,1.557-.706,4.385-.928a4.849,4.849,0,0,0,2.086.515,15.751,15.751,0,0,0,2.547-.3c1.824-.264,3.7-1.034,5.626-1.278.875-.782.422-.824,2.7-1.642-.213,1.042-4.559,1.953-2.052,2.242a17.87,17.87,0,0,0,3.626-.985,4.68,4.68,0,0,0,2.326-1.813c-2.8,1.246-2.778.707-2.742.206s.1-.928-2.652.089a10.981,10.981,0,0,0,1.425-.819c-.229-.03-.461-.062-.692-.1l-1.3.62-.219-.027,1.312-.625c-.439-.084-.891-.178-1.347-.277a1.023,1.023,0,0,0-.434.454c-.141.279-.141.587-1.385.852l-.268-1.268a14.009,14.009,0,0,1-2.43.813c-.769.192-1.5.235-2.055.334-.158.124-.353.265-.635.446-1.208.307-.736.037-.147-.308.5-.259,1-.667.82-.776a1.17,1.17,0,0,1,.267.049,2.958,2.958,0,0,1,.882-.311c.35-.077.765-.163,1.213-.246a1.694,1.694,0,0,0-.028-.979c-.6-.061-1.162-.119-1.643-.178a18.084,18.084,0,0,1-1.822,1.765,24.058,24.058,0,0,1-2.3,1.65l-.177-.162a4.22,4.22,0,0,1-.417.259c-.259.142-.622.291-.982.459l-1.466.661c2.515-.627,2.779.417-.729,1.069l.4-.174a16.353,16.353,0,0,0-1.8.316c-.7.105-1.486.262-2.312.439l-1.259.274c-.417.05-.887.335-1.227-.008-.41-.231-.812-.463-1.2-.7a7.758,7.758,0,0,1-2.759-1.058v-.009l-.216-.077c-2.611-2.009-2.074-3.03-2.333-4.113a27.5,27.5,0,0,0-3.636-2.739,32,32,0,0,1-3.25-2.165c-.479-1.176-3.453-5.72-1.3-3.716a9.367,9.367,0,0,0-3.092-1.866c-.989-.519-1.915-1.532-2.532-4.451,0,0,.272.288.554.562l.56.551c-.688-1.181-1.316-2.562-2.024-3.943-.625-1.419-1.294-2.866-1.771-4.292-.041-.125-.081-.242-.122-.364a23.844,23.844,0,0,1-2.111-3.313,29.949,29.949,0,0,1-1.674-3.6c-1.015-2.449-2.283-5.165-4.182-10.2-.307-.761-.453-.713-.6-.665a.259.259,0,0,1-.184.01c-.219-.1-.725-.787-1.33-4.336a5.739,5.739,0,0,1,.539,1.2c.559,1.343,1.193,2.686-.049-2.412a28.693,28.693,0,0,1-1.351-9.5l-.027-1.32q.029-.667.06-1.336l.093-2.705c.034-1.815.243-3.632.2-5.47.176-.946.463-2.052.689-3.171a29.763,29.763,0,0,1,.771-3.181c.576-1.888,1.043-3.115,1.2-2.355a49.838,49.838,0,0,0-1.875,9.479c-.111,1.517-.211,2.886-.227,3.958a14.817,14.817,0,0,0,.173,2.173c-.155-.326-.259.231-.345.788-.135.893-.219,1.785-.374-.956-.079,1.141-.147,2.095-.16,2.9.023.805.057,1.466.1,2.023.08,1.116.187,1.827.3,2.5s.308,1.316.473,2.3c.212.979.265,2.323.693,4.346.218.245.1-.819.018-2.164a21.231,21.231,0,0,0-.49-3.813c.231-.035.516.938.817,2.289.159.675.288,1.453.484,2.238.215.782.435,1.582.64,2.33s.417,1.43.581,1.992a7.385,7.385,0,0,0,.531,1.178c.289.424.3.044.1-1.738-1.007-4.132-1.819-6.789-2.47-9.389a36.015,36.015,0,0,1-.625-4.008,25.437,25.437,0,0,1,.323-4.846c.284,1.507.188,3.405.361,5.405a18.681,18.681,0,0,0,1.226,5.876l-.074-.939a16.78,16.78,0,0,1-.088-2.067c0-1.5,0-3,0-3l-.149-.674c-.058-.407-.136-.95-.216-1.493-.15-1.1-.3-2.193-.3-2.193l.133.266c.094-1.331.3-2.465.423-3.47s.207-1.875.255-2.659a28.646,28.646,0,0,0,.252-3.937,35.027,35.027,0,0,1,.208-3.8,20.042,20.042,0,0,1,.353-2.458c.211-.909.474-1.932.817-3.106-1.294,2.726-1.534,2.086-1.727,1.446-.175-.577-.314-1.154-1.161.742,1.872-6.506,4.6-10.814,5.4-10.393a26.43,26.43,0,0,0-1.949,5.2c-.2.812-.1.914.015.99.245.151.395.2-.92,5.634.33-.586.484-.371.651-.154s.345.424.722-.125l-.273-.331c.2.069.346-.072.528-.105.108-.209.229-.462.366-.784a.958.958,0,0,1-.2-.369.625.625,0,0,1,.366-.032c.053-.13.1-.25.16-.4-.187-.157-.335-.356-.231-.483l.291.327c.061-.161.127-.336.193-.52a.449.449,0,0,1-.058-.008c.026.007.043-.005.065-.009.034-.092.062-.162.1-.261s.047-.16.07-.241l-.268-.2a.7.7,0,0,1,.343-.047c.157-.535.273-.957.361-1.293a.624.624,0,0,1-.066-.073l.069.061c.037-.141.068-.269.093-.379l-.09-.054c.031.016.062.027.093.042.044-.189.072-.335.088-.445l-.261-.1-.086.1c-.258.323-.5.655-.108-.482.007-.017,0-.04.018-.051.151-.438.389-1.076.749-2a3.006,3.006,0,0,1,.31-.391.533.533,0,0,1-.065-.567l-.593-.492c-.145.246-.238.4-.238.4.073-.157.131-.287.2-.431l-.011-.012a3.041,3.041,0,0,1,.437-.927,11.97,11.97,0,0,0,1.151-3.336,3.109,3.109,0,0,1,.343-2.077c1.87-2.765,2.848-3.768,3.436-4.666a15.96,15.96,0,0,1,2.586-2.981c.164.44,2.543-1.774,5.958-4.192a55.55,55.55,0,0,1,11.418-6.271,33.847,33.847,0,0,0-3.08,1.569c-2.221,1.57-1.316,1.246.15.555a23.642,23.642,0,0,1,3.718-1.547s.208-.127.519-.321.734-.438,1.165-.664l1.381-.741c-.538.307-.905.612.4.183,1.19-.558,2.1-.869,2.816-1.236.722-.338,1.268-.677,1.838-.937a18.844,18.844,0,0,1,4.851-1.749c.455.358-3.707,1.908-.488,1.482a30.074,30.074,0,0,0,3.662.146c1.876-.021,4.412-.2,7.771-.475a7.768,7.768,0,0,1,1.543-.252c.75-.039,1.7-.058,2.715-.07-.284.016-.638.025-.766.054l.7.092c.418.055.974.123,1.527.238,1.1.2,2.207.412,2.207.412a30.237,30.237,0,0,1-4.616-.028,20.415,20.415,0,0,0-6.833.377l-.257.746.194-.021-.262.162.067-.142a31.9,31.9,0,0,0-4.7.8c-.987.274-1.891.555-2.645.827-.109.117-.2.207-.287.1-.162.061-.3.12-.44.18a.987.987,0,0,0,.171.054c1.845-.354,3.041-.639,4.3-.841l2.231-.413c.844-.107,1.823-.227,3.05-.38.705.4-2.7,1.024-3.181,1.128l.681-.479a23.009,23.009,0,0,0-3.941.388c-.816.189-1.593.408-2.368.641.327.024.6.118.65.542-.384.595-.223,1.011-1.016,1.416-1.039-1.1-1.923.609-3.122.771-.147.59.034.709-.636,1.085-.148-.908,1.254-1.1.257-1.751-.716-.065-1.764.414-1.669,1.428.847-.474.954-.011,1.053.443,1.063-.34,2.216-.676,3.311-.94.765-.184,1.49-.339,2.138-.465-.268-.6-.035-.312.243-.949.5.4-.105.361-.041.857a.911.911,0,0,0,.927-1.19c-1.4.07.3-.516-.55-.9-.128-.882,1.519-1.009,1.662-.727.211,1.155.685,2.206.459,3.125.169-.047.355-.1.569-.165.784-.218,1.826-.551,2.895-.766,1.347-.338,2.716-.586,3.541-.725.119-.039.242-.077.366-.113-.369.009-.938.019-1.512.031-.958.038-1.914.128-1.914.128a11.874,11.874,0,0,1,2.732-.341l1.94-.051c.423,0,.886.034,1.338.057a4.986,4.986,0,0,1,1.379-.24.336.336,0,0,1-.041.314c.535.034,1.078.075,1.631.128.384-.236.672-.5.7-.805l.041.72a7.969,7.969,0,0,1,4.308-.741l-1.026.414a6.239,6.239,0,0,1,2.914.188,3.027,3.027,0,0,0,2.563-.12,4.4,4.4,0,0,0-1.369-.077,8.745,8.745,0,0,1,3.685.3l1.375-.373,1.408-.359c-.09.343,1.505.761.605,1.124a3.549,3.549,0,0,0,2.643.391,3.625,3.625,0,0,1,1.236-.057c.84.712.311.6-.437.488-.657-.1-1.482-.2-1.7.265a20.929,20.929,0,0,0,6.6,1.707c-.43-.342-.622-.558-.528-.707-.015.239.979.6,1.516.84l.569-.258c.741.738.485.915-.4.855.774.5,2.181.222,2.712,1.261a5.741,5.741,0,0,1-1.451-.459l-.461.127c.216.215.412.437.615.653a7.542,7.542,0,0,0,1.194,1.1,8.771,8.771,0,0,0,2.081,1.229c-.081.213-.893.216-.238.634,1.62.819.937-.553,1.7-.669a3.275,3.275,0,0,1-2.178-2.057l.524-.122c-.051.2.717.692.843.993l.617-.523c-.542.657.313,1.958,1.387,2.393-.568-1.184-.339-.976-.042-1.962,1.87.236.966,1.8,3.013,2.157a1.274,1.274,0,0,1-.513-.093c-.429-.126-.849-.251-.192.405a1.255,1.255,0,0,0,1.131.393,1.306,1.306,0,0,1,.75.1c-1.12-.025-1.292.523-2.518.585a10.2,10.2,0,0,0-2.358-1.376l.939,1.437c-1.388-.878-1.432-.043-1.7.1.982,1.222,1.593,1.187,2.162,1.153a1.494,1.494,0,0,1,1.415.524c.445.089.231-.149,0-.387-.281-.284-.591-.567.15-.3.628.614.768.566.982.521s.472-.089,1.28.419l-.464.025c.153.695.9.746,1.443,1.18.266.155.495-.166.807-.486.5-.514,1.208-1.027,2.627.4a.745.745,0,0,0-.443.11s-1.658.436-3.246.958c-.729.235-1.437.483-2,.688.2.169.415.35.616.511,1.113.91,2.073,1.882,3.017,2.685,1.131,1.417.434,1-.227.579-.573-.365-1.119-.73-.416.108l1.227,1.136c.642.588,1.349,1.447,2.106,2.313a.859.859,0,0,1,.038-.366l.766,1.289a21.8,21.8,0,0,1,1.844,2.333l.953,1.363c-.3-.061-.936-.905-1.853-2.055.174.349.333.689.473.959l.359.747a.709.709,0,0,1-.681-.423c.645,1.327,1.414.68,1.764,1.9l.78.56,1.054.784-1.054-.785a3.563,3.563,0,0,1,1.054.785s.462.358,1.155.9c.653.569,1.507,1.369,2.375,2.221a27.614,27.614,0,0,1,2.261,2.479c.593.727.989,1.209.989,1.209,1.363,1.776.072,5.766.793,7.1-.509-.653-1.194.387-.992,1.769.184.294.311-.17.482-.427-.234.87-.518,1.858-.707,2.846.146,1.108.266,2.231.346,3.37.216.553.428,1.12.641,1.648.443,1.223.7,2.339.878,2.736.567,4.389-.391-.532-1.465-3.366.009.189.023.378.031.569a42.344,42.344,0,0,1,.559,4.446,18.228,18.228,0,0,0,.563,4.512c-.154.034-.284-.6-.5-1.657-.119-.531-.261-1.165-.42-1.878-.053-.269-.12-.558-.187-.846q-.064,1.97-.255,3.905a9.537,9.537,0,0,0,.2.988,14.85,14.85,0,0,1,.635,5.028s.035-.147.065-.378.063-.54.1-.85l.133-1.238c.147-.584.14.212.071,1.277a24.613,24.613,0,0,1-.37,2.811c.076-1.286-.161-.493-.42.4-.238.911-.615,1.853-.544,1.067l-.427,1.774a38.887,38.887,0,0,1-1.167,3.793c-.495,1.332-1.058,2.624-1.489,3.585-.465.93-.773,1.55-.773,1.55s.138-.531.273-1.063.261-1.062.261-1.062.2-.556.473-1.391c.132-.415.311-.9.477-1.417.138-.537.328-1.109.474-1.684a30.794,30.794,0,0,0,.729-3.192,5.916,5.916,0,0,1,.406-1.462,3.292,3.292,0,0,1,.091-.363,2.6,2.6,0,0,1-.021-.584c.146-.671.763-1.356.795-2.053v-.055c0,.716-.646,1.419-.8,2.108a1.5,1.5,0,0,1-.438.947,29.505,29.505,0,0,1-.926,3.17c-.609,2.141-1.129,4.105-1.735,5.744a5.772,5.772,0,0,0,.015-1.9c-.213.393-.431.773-.647,1.138-.615,1.025-1.3,1.908-1.961,2.853-.716.888-1.446,1.812-2.281,2.789l-.326,1.523c-.812,1.032-1.648,1.986-2.443,2.827-1.008,1.381-1.8,2.288-3.086,4.358l.446.588s.407-.484,1.015-1.211a24.3,24.3,0,0,0,2.1-2.755c.7-1.047,1.4-2.095,1.927-2.88a9.732,9.732,0,0,0,.572-.985l.2-.377c-.493,1.175-.865,1.807-1.038,2.242a3.738,3.738,0,0,0-.258.862c-.111.431-.177.964-1.75,3.354.791-1.4.9-1.935.778-1.859a15.214,15.214,0,0,0-1.208,1.477c-1.3,1.515-3.128,3.713-3.6,3.705,0,0-2.576,3.316-2.645,3.262l.331-.431c.169-.209.319-.44.319-.44a17.956,17.956,0,0,0-2.724,2.454c-.312.3-.645.622-1.023.968-.289.312-.588.625-.912.942a31.708,31.708,0,0,0,3.974-2.761,18.278,18.278,0,0,0,2.378-2.245c.4-.432.816-.885,1.224-1.391.381-.524.77-1.085,1.173-1.691a25.111,25.111,0,0,1-2.254,3.068c-.459.546-.926,1.125-1.427,1.674l-1.562,1.588a37.334,37.334,0,0,1-5.091,4.262,17.207,17.207,0,0,1-2.653,1.745,22.475,22.475,0,0,1-2.585,1.278l-2.616,1.044c-.9.3-1.823.618-2.8.98,2.028-.884,2.655-1.365,2.83-1.707a36.287,36.287,0,0,1-5.916,1.73c-.411.187-.862.382-1.319.574-1.724.681-3.462,1.343-2.6,1.571l-2.948-.307c2.833-.485,3.378-.785,3.98-1.113a7.308,7.308,0,0,1,.669-.338,43.67,43.67,0,0,1-7.281.424,23.16,23.16,0,0,1-7.356,1.462,19.453,19.453,0,0,0-3.468,2.213l1.32-1.571c-2.67,1.64-4.652,2.1-6.526,3.335.073-.164.736-.459.583-.647a9.122,9.122,0,0,0-2.878.649,7.191,7.191,0,0,1-2.819.657l.681-.184.667-.231c.1-.161-.293-.138-.824-.072-.541.038-1.222.123-1.677.18-1.231.2-3.927,1.084-1.509,1.218,0,0-.635.028-1.277-.015l-1.285-.1c-.057.063.012.134.118.2A16.316,16.316,0,0,0,4817.055,5383.653Zm16.387-5.254v0Zm0-.007c0-.045.043-.114.121-.2C4833.484,5378.278,4833.438,5378.347,4833.441,5378.392Zm.891-.134Zm-21.709-.625a11.753,11.753,0,0,1-1.167.183A11.71,11.71,0,0,0,4812.623,5377.632Zm-1.313.166.016,0-.016,0-.018-.014Zm3.17-1.271c-1.054.289-1.9.595-1.856,1.105-.043-.511.8-.816,1.858-1.105l.263-.1Zm11.714,1.032q.293-.052.6-.1-.308.051-.6.1Zm-15.177-.077-.006-.015Zm23.685-.276c.531.038,1.057.077,1.6.1l.051-1.206-.051,1.206c-.546-.024-1.072-.063-1.6-.1Zm-6.482.018Zm-1.311-.392c.781.147,1.365.247,1.784.3l.106-.021-.106.021c-.419-.057-1-.157-1.784-.3Zm14.618.19Zm0,0,.673-.331C4841.976,5376.8,4841.751,5376.91,4841.527,5377.022Zm-7.672,0-.048-.014Zm-7.114,0c.04-.043.083-.088.12-.131C4826.822,5376.926,4826.78,5376.971,4826.74,5377.015Zm10.184-.025.144-.064-.144.064Zm.742-.9a3.817,3.817,0,0,0-.726.873,3.836,3.836,0,0,1,.727-.873c.167,0,.326,0,.5-.005C4837.993,5376.084,4837.834,5376.084,4837.667,5376.087Zm-8.125.866h0a2.19,2.19,0,0,1-.463-.4A2.2,2.2,0,0,0,4829.541,5376.954Zm4.612-.087Zm0,0c-.613-.129-1.221-.239-1.824-.333C4832.932,5376.629,4833.54,5376.737,4834.153,5376.867Zm1.334-.01a2.439,2.439,0,0,1-.333,0A2.352,2.352,0,0,0,4835.487,5376.856Zm-1.3-.008c.043-.022.078-.042.123-.063-.045.021-.08.041-.123.063a8.769,8.769,0,0,1-.97-.32A8.769,8.769,0,0,0,4834.189,5376.848Zm-7.281-.016q.377-.42.806-.864c.42.042.839.088,1.258.132-.419-.044-.838-.09-1.258-.134Q4827.287,5376.413,4826.909,5376.832Zm16.214-.043Zm0,0c-.309-.028-.615-.065-.923-.1C4842.508,5376.725,4842.814,5376.762,4843.123,5376.789Zm-8.026-.031h0a.131.131,0,0,0,0-.023A.1.1,0,0,1,4835.1,5376.757Zm-.426-.062Zm.245-.035h0Zm-2.67-.089c0-.015.028-.027.083-.038C4832.272,5376.543,4832.246,5376.556,4832.245,5376.571Zm-7.235-.239c.235.066.447.124.643.175-.2-.051-.408-.109-.643-.175Zm-14.8.142Zm-.012-.064s0-.009,0-.014S4810.2,5376.4,4810.2,5376.409Zm19.576-.088h0Zm6.025-.028a.051.051,0,0,0,.01-.027A.051.051,0,0,1,4835.8,5376.292Zm-10.925,0,.054-.017-.054.017-.27-.077Zm.139-.038a.642.642,0,0,1,.125-.014h0A.642.642,0,0,0,4825.014,5376.255Zm.139-.014Zm0,0Zm0,0h0Zm-13.857-.008,0,0a2.016,2.016,0,0,0-1.012-.012.585.585,0,0,1,.305-.061A5.751,5.751,0,0,1,4811.3,5376.233Zm-1.027-.005h0Zm.006,0,0,0Zm28.422-.036h0c-.085-.015-.169-.032-.252-.049C4838.529,5376.155,4838.613,5376.172,4838.7,5376.188Zm-14.285-.03h0c.158-.16.321-.325.485-.489C4824.733,5375.832,4824.57,5376,4824.412,5376.158Zm11.075-.047Zm-18.618-.291h0a5.069,5.069,0,0,0,.852-.331A5.256,5.256,0,0,1,4816.869,5375.82Zm8.746-.091Zm-15.289-.048-.229-.128Zm8.249-.078h0l-.031-.007Zm-.533-.066.5.058c-.16-.02-.325-.039-.505-.059l-.319-.046Zm-8.849-1.889c.289.815,1.286,1.291,2.321,1.735a.457.457,0,0,0,.466.051.458.458,0,0,1-.466-.052c-1.035-.443-2.032-.919-2.321-1.735a2.1,2.1,0,0,1-.211-.042A1.779,1.779,0,0,0,4809.192,5373.648Zm7.8,1.735Zm-2.455-.353,2.424.348c-.649-.092-1.424-.2-2.424-.35-.071-.075-.157-.154-.248-.235C4814.379,5374.875,4814.465,5374.955,4814.537,5375.031Zm-2.1.24h0Zm36.319,0Zm0,0a2.413,2.413,0,0,1,.682-.424A2.391,2.391,0,0,0,4848.756,5375.266Zm-36.274-.007c.341-.115.681-.223,1.018-.316C4813.164,5375.035,4812.823,5375.144,4812.482,5375.259Zm-6.12-.167h0Zm-.025-.006c-.057-.013-.12-.029-.188-.049C4806.217,5375.056,4806.28,5375.072,4806.337,5375.085Zm-.444-.13.137.045-.137-.045a1.392,1.392,0,0,0-.635-.024l-.134.013.134-.013a2.979,2.979,0,0,1,.322-.024A.935.935,0,0,1,4805.893,5374.955Zm-.988,0h0Zm-.136,0a2.689,2.689,0,0,1-1.653-.92A2.689,2.689,0,0,0,4804.768,5374.95Zm1.435-.9a3.3,3.3,0,0,1,.625.87,3.3,3.3,0,0,0-.625-.871c-.483-.647-1.1-1.4-1.095-1.743C4805.1,5372.649,4805.72,5373.4,4806.2,5374.048Zm7.448.855c.207-.05.414-.088.619-.126C4814.064,5374.815,4813.859,5374.854,4813.651,5374.9Zm35.787-.062c.442-.083.881-.169,1.315-.25C4850.318,5374.672,4849.879,5374.758,4849.438,5374.841Zm-45.584-.687-.671-.441c-1.026-.721-.933-1.117-1.766-2.165.833,1.047.74,1.443,1.766,2.165l.671.441Zm-.025-.016c-.26-.158-.463-.294-.646-.425C4803.366,5373.845,4803.569,5373.98,4803.829,5374.138Zm49.051-.132Zm-49.826-.036q-.147-.145-.306-.318Q4802.907,5373.825,4803.054,5373.97Zm-.382-.4.072.08-.072-.08Zm6.513.054a1.236,1.236,0,0,1-.062-.2h0a1.3,1.3,0,0,0,.062.2ZM4808.981,5373.6Zm-6.309-.038a.072.072,0,0,1,.012-.017A.072.072,0,0,0,4802.672,5373.567Zm.069-.038h0Zm6.465-.285h0a9.247,9.247,0,0,1-1.85-.962A9.311,9.311,0,0,0,4809.207,5373.244Zm-3.078-.366Zm-2.206-.3-.069-.042.069.042Zm.515-.092h0c-.448-.163-.764-.718-1.169-1.205C4803.675,5371.768,4803.99,5372.324,4804.438,5372.486Zm2.74-.319A7.425,7.425,0,0,0,4804.2,5371,7.458,7.458,0,0,1,4807.179,5372.167Zm-1.986-.017.017-.009h0Zm58.285-.112s0,0,0,0S4863.478,5372.037,4863.478,5372.038Zm.4-.349-.308.169c-.068.08-.1.137-.1.174,0-.037.029-.094.1-.173l.308-.168c.663-.356,1.519-.823,2.372-1.341C4865.4,5370.867,4864.545,5371.334,4863.882,5371.689Zm-62.46-.155c0-.011.008-.021.013-.031C4801.43,5371.512,4801.426,5371.523,4801.422,5371.534Zm.247-.21h0Zm1.419-.247Zm1.288-.058a.389.389,0,0,1-.173-.014A.367.367,0,0,0,4804.376,5371.019Zm.274-.022-.011,0Zm-.029-.007h0Zm-.008,0h0Zm-4.169-.532a8.45,8.45,0,0,0,.78.523.042.042,0,0,0,0-.008.042.042,0,0,1,0,.008,8.45,8.45,0,0,1-.78-.523l-.018-.013Zm.789.478a.189.189,0,0,0,0-.028A.189.189,0,0,1,4801.233,5370.934Zm.506-.011h0l.349-.032h0Zm2.556-.191c-1.606-1.106-3.651-1.423-4.953-2.217a1.344,1.344,0,0,1-.1-.378,1.338,1.338,0,0,0,.1.379,6.093,6.093,0,0,0,.707.362l.072.031h0A22.405,22.405,0,0,1,4804.294,5370.732Zm-3.215-.807a9.221,9.221,0,0,0,.689.67,9.221,9.221,0,0,1-.689-.67l-.022-.024Zm62.426.29h0l1.96-1.066Zm1.93-.957a13.554,13.554,0,0,1-1.515.806,13.273,13.273,0,0,0,1.515-.806c.277-.184.562-.379.859-.589C4866,5368.878,4865.712,5369.074,4865.435,5369.258Zm2.388.5Zm0,0c.105-.046.246-.12.4-.206C4868.067,5369.634,4867.928,5369.707,4867.823,5369.754Zm.187-.051Zm.209-.154Zm-67.98-.014a2.377,2.377,0,0,1-.436-.637A2.368,2.368,0,0,0,4800.239,5369.535Zm52.371-.481Zm17.009-.083.094-.108Zm-16.969,0Zm-52.848-.074v0Zm69.937-.059a4.749,4.749,0,0,0,.865-1.148A4.8,4.8,0,0,1,4869.738,5368.833Zm.275-.1Zm-.838-.222,1.166-.777-.005,0Zm.039-.3h0a23.513,23.513,0,0,0,3.672-3.154A23.532,23.532,0,0,1,4869.214,5368.215Zm-68.571-.115h0c-1.477-1.1-3.1-2.173-4.613-3.132C4797.549,5365.928,4799.166,5367,4800.644,5368.1Zm-2.9-.721a3.66,3.66,0,0,0,.875.538l-.013-.008a3.65,3.65,0,0,1-.857-.526l-.006,0,0,0a.362.362,0,0,1-.078-.06A.405.405,0,0,0,4797.744,5367.379Zm72.722.35Zm-72.794-.406-.008-.008a1.37,1.37,0,0,1-.472-1.076h0a1.37,1.37,0,0,0,.472,1.076l-.315-.23v0l.313.228Zm-.009-.007h0Zm73.624-.623.886-.424-.882.421Zm.886-.424s.647-.506,1.366-1.137l0,0C4872.822,5365.759,4872.172,5366.269,4872.172,5366.269Zm-74.981-.03-.015-.166v0Zm-.581-.227c-.2-.349-.4-.7-.578-1.044C4796.212,5365.313,4796.406,5365.664,4796.61,5366.012Zm77.018-.45Zm0,0q.545-.732,1-1.408Q4874.173,5364.831,4873.628,5365.562Zm-.547-.34Zm.638-1.084c-.236.283-.507.588-.828.922.321-.333.592-.639.828-.92.676-.584,1.241-1.094,1.609-1.432l0,0C4874.961,5363.042,4874.4,5363.551,4873.718,5364.138Zm.669-.081Zm.766-.37c.314-.275.52-.477.535-.492h0C4875.66,5363.221,4875.458,5363.419,4875.153,5363.687Zm-.134-.124h0c.29-.453.542-.878.761-1.276Q4875.454,5362.884,4875.02,5363.563Zm1.007-1.528c.411-.426.706-.744.913-.982,0,.125.05.217.274.156v0c-.226.063-.275-.028-.275-.155C4876.732,5361.29,4876.438,5361.608,4876.027,5362.034Zm.228-.933.009-.006.074-.065C4876.312,5361.05,4876.28,5361.08,4876.254,5361.1Zm.069-.05.013-.022ZM4876.525,5360.918Zm.034-.066c.255-.2.367-.25.4-.213h0a.034.034,0,0,0-.029-.012C4876.875,5360.626,4876.763,5360.69,4876.559,5360.852Zm-55.486-.636a.24.24,0,0,1,.085-.014h0A.24.24,0,0,0,4821.073,5360.215Zm-30.717-.251.016-.006-.016.006a4.461,4.461,0,0,0-.861-1.9A4.463,4.463,0,0,1,4790.355,5359.964Zm-.145-1.716q.125.253.208.473-.083-.22-.208-.474a2.445,2.445,0,0,0-.221-.334A2.444,2.444,0,0,1,4790.211,5358.248Zm-.765-.228,0,0Zm-.017-.016h0Zm-.027-.024-.007-.007Zm-.054-.047-.005,0Zm.64-.022v0Zm-.687-.017.008.006-.008-.006Zm30.239-2.55c-.077-.062-.154-.117-.231-.177C4819.386,5355.228,4819.462,5355.283,4819.54,5355.344Zm-.174-.188.2.183h0l-.206-.184c-.044-.015-.076-.024-.127-.045l0,0C4819.291,5355.132,4819.321,5355.14,4819.366,5355.156Zm-23.592-1.418.029.031-.027-.03a6.1,6.1,0,0,0-.374-.572A5.954,5.954,0,0,1,4795.774,5353.737Zm82.327-.5,0-.007Zm-82.373-.1.033.09-.033-.091c-.44-.3-.849-.608-1.222-.912C4794.878,5352.526,4795.287,5352.833,4795.728,5353.136Zm82.528-.273Zm-36.243-.3h0l.078-.143Zm1.627-.151.014.021.134-.031-.134.031-.014-.021Zm-.335-.062-.038.014.038-.014.06-.287Zm-48.877-.129-.188-.222,0,0Zm48.01-.04c.139-.09.293-.181.44-.274h0C4842.731,5352,4842.577,5352.094,4842.438,5352.184Zm-6.9-.049a.527.527,0,0,1,.189-.035h0A.527.527,0,0,0,4835.534,5352.135Zm.328-.019a.639.639,0,0,0-.1-.015A.639.639,0,0,1,4835.862,5352.116Zm7.5-.049a.476.476,0,0,1-.047-.127A.458.458,0,0,0,4843.365,5352.067Zm19.415-.349a1.309,1.309,0,0,1,.2-.285A1.309,1.309,0,0,0,4862.78,5351.718Zm-19.715-.313.137-.015-.137.015ZM4853.523,5351.045Zm0,0,.139-.023Zm22.917-2.146.142-.078Zm-70.678-.528h0Zm45.354-5.324.018-.075Zm30.6-.1a5.227,5.227,0,0,1,.249-.647A5.227,5.227,0,0,0,4881.719,5342.946Zm-69-1.8,0,0c-.039-.057-.072-.121-.111-.179C4812.647,5341.019,4812.68,5341.085,4812.72,5341.143Zm-.336-.555.012.034c.021.028.037.061.057.091l.108.016-.108-.016c-.02-.03-.036-.062-.057-.091l-.012-.034Zm63.134-.009,0-.011c.034-.1.066-.2.1-.3C4875.587,5340.372,4875.553,5340.476,4875.518,5340.579Zm-63.1-.043.042-.056h0ZM4875.618,5340.271Zm-32.393-.017h0Zm-.141,0Zm8.537,0,.019-.024Zm-8.493,0h0Zm32.156-.408c-.019-.345-.038-.693-.058-1.062C4875.248,5339.151,4875.267,5339.5,4875.286,5339.845Zm-63.218-.185Zm0,0a.642.642,0,0,1,.067-.1v0A.873.873,0,0,0,4812.068,5339.66Zm-.558-.461c-.138-.243-.274-.486-.405-.735C4811.235,5338.712,4811.371,5338.954,4811.51,5339.2Zm-.209-.592a2.837,2.837,0,0,1,.209.592,2.849,2.849,0,0,0-.209-.593.953.953,0,0,1-.2-.142A.928.928,0,0,0,4811.3,5338.607Zm64.141.438.027-.105Zm-51.583-.112.035.054c.037.015.065.034.1.051.035-.031.067-.063.1-.1-.034.034-.066.064-.1.1-.035-.016-.065-.037-.1-.05l-.035-.054Zm.063-.005h0Zm31.769-.077.013-.006-.013.006Zm-31.73-.138.132.02-.131-.02c.014-.011.025-.032.04-.043C4823.985,5338.681,4823.974,5338.7,4823.959,5338.712Zm32-.1h0a5.926,5.926,0,0,1-.189-.707A5.771,5.771,0,0,0,4855.957,5338.607Zm-32.477-.311h0c-.023-.013-.044-.023-.066-.035C4823.437,5338.273,4823.458,5338.282,4823.48,5338.3Zm31.549-.066a.1.1,0,0,1-.026,0A.121.121,0,0,0,4855.029,5338.23Zm-.034,0a.184.184,0,0,1-.066-.019A.184.184,0,0,0,4855,5338.233Zm.076-.021-.008,0,.008,0c.077-.246.148-.531.224-.827C4855.219,5337.681,4855.148,5337.966,4855.071,5338.212Zm.381-.251h0c.063-.071.127-.143.192-.211C4855.579,5337.819,4855.515,5337.891,4855.452,5337.961Zm20.122-.025c-.123-.417-.077-1.369-.276-1.428C4875.5,5336.566,4875.451,5337.519,4875.574,5337.936Zm-19.81-.049a1.5,1.5,0,0,1,.131-.153A1.5,1.5,0,0,0,4855.764,5337.887Zm0,0c-.016-.07-.031-.139-.047-.208C4855.733,5337.749,4855.748,5337.818,4855.764,5337.887Zm-1.33-.1-.03-.022Zm1.215-.04.026-.027Zm-1.291-.013Zm1.324-.021.034-.034Zm-57.852-.16h0Zm78.015-.009.024-.086Zm.57-.005Zm0-.036c0-.03,0-.06,0-.089C4876.416,5337.442,4876.415,5337.472,4876.415,5337.5Zm-1.269,0,.015-.02-.015.02,0-.063Zm.993-.016h0Zm-.03-.007Zm-21.577-.138a5.448,5.448,0,0,1,.616-.065,5.448,5.448,0,0,0-.616.065Zm.015-.151c0,.055-.01.095-.014.142,0-.047.01-.087.014-.14.015-.007.021,0,.039-.012C4854.569,5337.187,4854.563,5337.183,4854.548,5337.189ZM4854.587,5337.179Zm-.035-.147c0,.049,0,.1,0,.145h0c0-.045,0-.1,0-.143a.566.566,0,0,1,.135-.092A.61.61,0,0,0,4854.552,5337.031Zm-32.955.082,0,0Zm53.509-.129h0c.01-.2.026-.407.047-.608C4875.132,5336.577,4875.116,5336.781,4875.106,5336.984Zm1.514-.274Zm-1.345-.206h0Zm.193-.181h0Zm1.285-.166a.18.18,0,0,1-.051.007A.18.18,0,0,0,4876.753,5336.157Zm-.061.007c-.065,0-.135-.049-.212-.165C4876.558,5336.116,4876.628,5336.16,4876.693,5336.165Zm-.225-.577.008-.007Zm.008-.007Zm.489-.4Zm0,0a.666.666,0,0,1-.3-.524A.663.663,0,0,0,4876.965,5335.179Zm-.849-.063c-.026-.053-.055-.1-.083-.157.028.052.056.1.083.157Zm.864-.009c-.192-.2-.111-.46-.194-.537C4876.869,5334.646,4876.787,5334.9,4876.98,5335.106ZM4876.006,5334.906Zm.075-.2a3.543,3.543,0,0,1,.765-1.254,4.3,4.3,0,0,1,.311.676,4.372,4.372,0,0,0-.311-.678A3.562,3.562,0,0,0,4876.081,5334.708Zm.6-.157.012,0Zm.493-.375Zm-19.812-.647v.007a1.2,1.2,0,0,0,.076.209.245.245,0,0,1,.109.148.291.291,0,0,0,.047.053l.089-.188-.089.188a.291.291,0,0,1-.047-.053.249.249,0,0,0-.108-.148,1.168,1.168,0,0,1-.077-.209v-.007Zm-.336.4v0c0-.008-.009-.014-.015-.022C4857.012,5333.917,4857.018,5333.924,4857.022,5333.933Zm-.018-.03h0l.023-.023h0ZM4787.014,5333.636Zm4.966-1.836h0Zm92.1,0a.384.384,0,0,0,.069-.047c.028-.069.066-.136.1-.205,0-.044,0-.088,0-.131,0,.043,0,.087,0,.131-.029.069-.067.136-.1.205A.384.384,0,0,1,4884.084,5331.8Zm-45.33-.336.083-.095Zm0-.154h0c0-.244,0-.5,0-.741C4838.758,5330.807,4838.757,5331.062,4838.755,5331.306Zm.6-.7h0c.058-.288-.068-.239-.212-.19-.1.034-.218.069-.282-.021.063.09.178.056.283.021a.539.539,0,0,1,.146-.036C4839.356,5330.379,4839.391,5330.428,4839.355,5330.606Zm-.593-.585v.03l.019-.019.053-.034-.053.034-.019.019v-.03l.02-.057.05.034-.05-.035Zm52.186-5.039c.232,1,.528,2.08.7,3.177.074.607.159,1.225.232,1.834,0-.035.005-.077.009-.111l.006-.056-.006.056c0,.034-.005.076-.009.111-.073-.611-.158-1.227-.231-1.834-.173-1.1-.469-2.179-.7-3.177Zm-51.813,4.82.077-.049-.077.049Zm.008-.852-.246.689h0l.246-.688a.344.344,0,0,0,.1-.167A.338.338,0,0,1,4839.143,5328.951Zm-.112.5-.018.17.018-.17.293-.238h0Zm.4.159v-.021Zm0-.021c-.028-.154-.055-.308-.086-.457-.1.032-.153.018-.153-.066,0,.085.057.1.153.067C4839.373,5329.278,4839.4,5329.432,4839.428,5329.584Zm-19.979-.246v0Zm.062-.207Zm21.066-.169h0l-.148-.129Zm-.409-.072h0l.329-.1h0Zm-.127-.088,0,0,.041.027a.385.385,0,0,0,.041-.046.385.385,0,0,1-.041.046l-.041-.027,0,0Zm.388.03Zm-1.172,0h0l-.017-.046Zm.854-.037.016,0Zm-44.548-.176.05-.109Zm96.6-.193Zm-.057-5.013c.015.2.025.357.034.481.1.373.192.729.254,1.058.109.549.2,1.014.285,1.442.044-1.171.063-2.215.063-3.139,0,.924-.019,1.968-.063,3.139-.085-.428-.176-.893-.285-1.442-.062-.33-.154-.685-.254-1.058l-.032-.481a11.243,11.243,0,0,0-.114-1.134A10.793,10.793,0,0,1,4892.108,5323.408ZM4891.148,5325.637Zm-.162-.722c.059-.1.117-.156.171-.156h0C4891.1,5324.759,4891.045,5324.819,4890.986,5324.916Zm-61.759-.448v0Zm62.54-1.916c.077.274.153.538.225.792-.072-.254-.146-.518-.225-.792Zm.977.7c0-.291-.015-.566-.031-.833C4892.729,5322.685,4892.743,5322.959,4892.744,5323.25Zm-2.379-.059c.03-.123.07-.242.105-.364-.035.122-.076.241-.105.364Zm1.931-.4a6.834,6.834,0,0,1-.115-2.027,6.874,6.874,0,0,0,.113,2.025Zm-63.06-.02.006-.011Zm61.769-.159a.307.307,0,0,1-.107.022A.307.307,0,0,0,4891,5322.612Zm-.121.022a.167.167,0,0,1-.129-.077A.167.167,0,0,0,4890.883,5322.634Zm.5-.285a1.591,1.591,0,0,1-.333.242,1.591,1.591,0,0,0,.333-.242,4.287,4.287,0,0,0,.19-.408A4.287,4.287,0,0,1,4891.386,5322.35Zm.381.2a1.386,1.386,0,0,1,.126-.2h0A1.445,1.445,0,0,0,4891.767,5322.551Zm-1.032-.024Zm.855-.611c.061-.153.116-.316.166-.485-.05.169-.105.333-.166.485Zm-.028-.1Zm-42.564-.07.007-.013Zm34.412-.245.061.072-.061-.072-.01-.034Zm.061.072c-.054-.189-.115-.378-.174-.567C4883.355,5321.2,4883.417,5321.385,4883.47,5321.573Zm5.866-.095.048-.375Zm-45.281-.135.093-.1Zm47.774-.192a5.562,5.562,0,0,0,.151-.911,5.562,5.562,0,0,1-.151.911l-.243-1.6-.042.474.042-.474Zm-8.551-.138h0l.017-.009Zm-53.109-.289.027.061.114.02c.019-.113.042-.219.062-.33-.02.111-.043.216-.062.33l-.112-.02-.028-.061Zm0,0c.034-.086.074-.165.109-.25h.093l-.093,0C4830.244,5320.559,4830.2,5320.638,4830.169,5320.724Zm.426-.271c.006.1.015.187.021.268l.074-.107c.008,0,.008.005.016.007-.008,0-.008-.007-.016-.007l-.074.107c-.007-.081-.014-.17-.021-.268Zm0,0a1.441,1.441,0,0,0,.149-.038h0A1.231,1.231,0,0,1,4830.6,5320.453Zm.219-.535.024.007Zm60.029-.019a.3.3,0,0,1-.047,0A.3.3,0,0,0,4890.843,5319.9Zm-.055,0a.646.646,0,0,1-.237-.06A.646.646,0,0,0,4890.789,5319.9Zm-60.235-.058Zm0,0c.057-.114.113-.226.173-.335.02.028.038.057.055.085-.017-.029-.035-.058-.055-.086C4830.667,5319.618,4830.61,5319.729,4830.553,5319.843Zm.342-.616.09.005.011-.043-.011.043Zm60.445-.1c.009-.041.019-.084.028-.129C4891.359,5319.045,4891.35,5319.088,4891.34,5319.129Zm-.9-.24c.058-.254.118-.565.183-.993-.065.428-.125.739-.183.993-.048-.385-.108-.772-.165-1.16h0C4890.336,5318.116,4890.4,5318.5,4890.444,5318.889Zm-24.4-.566a.285.285,0,0,1,.055-.011h0A.285.285,0,0,0,4866.042,5318.323Zm24.086-1.55a2.355,2.355,0,0,0,.342.625,2.4,2.4,0,0,1-.342-.625l-.013-.076,0,0Zm.339.565,0,0c-.093-.163-.174-.311-.252-.456C4890.291,5317.023,4890.373,5317.173,4890.467,5317.338Zm.109-.4Zm-.082-.168c-.19-.393-.382-.782-.574-1.161v0C4890.113,5315.988,4890.3,5316.377,4890.5,5316.77Zm-96.9-.013a.876.876,0,0,1,.241-.134A.876.876,0,0,0,4793.59,5316.757Zm8.829-.021h0c0-.11,0-.216.008-.336C4802.421,5316.519,4802.421,5316.627,4802.419,5316.736Zm87.625-.43-.015-.087Zm-87.11-1.054.021-.061-.021.061Zm0-.01c0-.006,0-.013,0-.02S4802.935,5315.236,4802.935,5315.243Zm87.95-.174Zm.118-.816Zm-2.944-9.287a3.894,3.894,0,0,0,.31.49l.729,1.243c.278,1.053.44,1.99.648,2.8.248,1.041.48,1.9.706,2.645.185.807.366,1.481.551,2.111-.185-.63-.366-1.305-.551-2.112-.226-.746-.458-1.6-.706-2.644-.208-.808-.37-1.745-.648-2.8l-.729-1.243a3.691,3.691,0,0,1-.31-.49l-.234-.369Zm3.423,7.563c.053-.068.106-.134.17-.146-.063.012-.117.078-.17.146-.505-1.641-.8-2.655-.953-3.245C4890.675,5309.874,4890.976,5310.888,4891.481,5312.529Zm-2.468-1.791a3.131,3.131,0,0,1,.683,1.741,3.128,3.128,0,0,0-.683-1.741Zm.01-.036c.2-.767-.313-1.89-.157-2.852a.6.6,0,0,0,.1-.343l-.018.042.018-.042a.6.6,0,0,1-.1.341v0h0C4888.709,5308.812,4889.219,5309.936,4889.023,5310.7Zm-58.569-.414.164,0h0l-.164,0-.014-.058Zm.121-.013-.134-.045Zm22.135-.252a1.45,1.45,0,0,1,.395-.066A1.45,1.45,0,0,0,4852.71,5310.023Zm-59.051-.419v-.038Zm81.932-.681Zm-93.925-.572Zm.077-.162Zm106.621-.413a.807.807,0,0,0-.312-.141A.814.814,0,0,1,4888.365,5307.777Zm-.423,0a.01.01,0,0,1,0,0l-.027-.095Zm-94.65-.387.069-.128Zm44.368-.335Zm.536-.184Zm-53.75-.081.085-.018Zm103.024-.431Zm-100.412-.346.075.3c.1-.226.2-.463.294-.715-.1.251-.2.489-.294.715l-.075-.3Zm100.439.126-.165-.595-.215-.586.215.586.165.595Zm-100.428-.193c.026-.157.054-.316.081-.478h0C4787.123,5305.627,4787.1,5305.787,4787.069,5305.944Zm11.7-.457.03-.026Zm88.449-.056Zm-100.047-.119a2.675,2.675,0,0,1,.339.071h0a2.518,2.518,0,0,0-.338-.07c.018-.116.037-.235.056-.355Zm.466-.283Zm99.4-.042a12.644,12.644,0,0,1-.54-2.582A12.571,12.571,0,0,0,4887.035,5304.988Zm-99.32-.175.026-.07-.026.07a.845.845,0,0,0-.071-.088A.845.845,0,0,1,4787.715,5304.813Zm-.416-.283h0c.056-.337.116-.678.187-1.023C4787.417,5303.853,4787.355,5304.193,4787.3,5304.53Zm.56-.132a1.48,1.48,0,0,1-.549.132,1.461,1.461,0,0,0,.549-.132Zm98.813-1.853a17.347,17.347,0,0,0,.885,1.627,17.372,17.372,0,0,1-.885-1.628.954.954,0,0,0-.166-.133A.9.9,0,0,1,4886.671,5302.545Zm-98.594,1.166Zm72.615-.344v0Zm.053-.172Zm-73.185-.009Zm.021-.094q.073-.33.163-.66h0C4787.683,5302.652,4787.629,5302.872,4787.58,5303.092Zm.639-.091h0l.031-.125Zm.019-.281a.675.675,0,0,1-.074,0A.675.675,0,0,0,4788.238,5302.72Zm24.712-.254a1.009,1.009,0,0,1,.178-.414A1.009,1.009,0,0,0,4812.95,5302.466Zm-5.066-.276.05-.051Zm-20.031-.2c.1.05.227.1.353.164l.007-.375-.007.375c-.125-.066-.254-.113-.353-.164Zm30.62.01.2-.1Zm-30.62-.01c.021-.087.046-.179.067-.267h0Zm40.464-.205h0a4.709,4.709,0,0,1,2.015-1.824.262.262,0,0,1,0,.048.278.278,0,0,0,0-.05A4.728,4.728,0,0,0,4828.317,5301.781Zm-40.1-.007a.567.567,0,0,1-.257-.042A.537.537,0,0,0,4788.212,5301.774Zm40.569-.146-.019.016.019-.016Zm.165-.354Zm.576-.249Zm56.564-.352.006-.042-.006.042Zm-97.677-.174c.04.048.092.106.154.171-.061-.065-.113-.123-.154-.171Zm97.684.126c0-.021.007-.041.011-.06C4886.1,5300.585,4886.1,5300.6,4886.093,5300.625Zm.012-.063,0-.018Zm0-.021,0-.018Zm.024-.091v0Zm.006-.017a.014.014,0,0,0,0,0A.014.014,0,0,1,4886.14,5300.434Zm-10.375,0a1.445,1.445,0,0,0-.311-.115A1.445,1.445,0,0,1,4875.764,5300.429Zm-87.349,0a.928.928,0,0,1,.464-.805h0A.934.934,0,0,0,4788.416,5300.427Zm97.729-.009a.017.017,0,0,0,0-.005A.017.017,0,0,1,4886.145,5300.417Zm.015-.039h0Zm-10.708-.064h0Zm11.68-.322.139.2a1.419,1.419,0,0,1,.128.1,1.419,1.419,0,0,0-.128-.1l-.139-.2c-.293-.422-.585-.839-.843-1.209C4886.547,5299.152,4886.839,5299.57,4887.132,5299.992Zm-12.372-.041c.093.1.186.191.278.284l-.278-.284-.007-.022Zm.878.227-.05-.1C4875.6,5300.108,4875.621,5300.142,4875.639,5300.178Zm-.05-.1c-.074-.053-.143-.106-.218-.159Zm10.224-.009Zm-32.89,0a.377.377,0,0,1,.135-.156A.377.377,0,0,0,4852.922,5300.062Zm34.023-.043a10.4,10.4,0,0,1-.947-1.423,2.187,2.187,0,0,1-.424-.392l0,0a2.246,2.246,0,0,0,.428.4,10.446,10.446,0,0,0,.946,1.421Zm-57.337-.012h0c.091-.052.181-.105.269-.158Zm45.656-.012a.18.18,0,0,0,.054-.114h0a.184.184,0,0,1-.053.113c-.005-.014-.01-.029-.015-.043C4875.254,5299.964,4875.258,5299.979,4875.264,5299.994Zm-44.937-.057Zm0,0a.3.3,0,0,0-.17-.2A.308.308,0,0,1,4830.328,5299.938Zm-.447-.089c.093-.035.177-.073.277-.106C4830.057,5299.774,4829.974,5299.813,4829.88,5299.848Zm45.35-.028c-.086-.06-.177-.119-.265-.178Zm-86.288-.048h0l-.027-.063Zm85.764-.062c0-.087.067-.12.258-.068a.581.581,0,0,0-.148-.025C4874.739,5299.617,4874.709,5299.651,4874.707,5299.71Zm-26.566-.482c.54.049.989.092,1.342.127h0c-.353-.035-.8-.078-1.341-.127a1.993,1.993,0,0,0-.072-.334A2.08,2.08,0,0,1,4848.141,5299.228Zm1.462.03Zm0,0c-.389-.108-.928-.257-1.53-.414C4848.676,5299,4849.214,5299.151,4849.6,5299.258Zm24.583-.122Zm-.212-.131c.072.043.139.088.212.131-.073-.043-.141-.088-.212-.132s-.15-.091-.224-.135Zm-85.283-.036a1.921,1.921,0,0,0,.239.138,1.8,1.8,0,0,1-.238-.138c.061-.141.123-.28.185-.419Zm.656.129Zm60.167-.166h0l-.158-.038Zm-.033-.055c-.031-.048-.065-.095-.1-.141C4849.415,5298.783,4849.449,5298.829,4849.48,5298.877Zm-1.424-.031h0l.017,0Zm.734-.088Zm-59.244-.012Zm0,0a1.075,1.075,0,0,1-.254-.2A1.038,1.038,0,0,0,4789.546,5298.746Zm-.254-.2a.552.552,0,0,1-.415,0A.545.545,0,0,0,4789.292,5298.55Zm23.959-.011c0,.009.007.018.009.025h0C4813.258,5298.556,4813.255,5298.548,4813.251,5298.539Zm.543-.019.047-.021Zm-.463-.026Zm72.593-.031c-.146-.26-.3-.547-.486-.9.182.353.339.642.485.9Zm-12.178-.1,0,0q-.045-.038-.094-.073C4873.683,5298.306,4873.715,5298.332,4873.747,5298.359Zm-.126-.15a2.827,2.827,0,0,1-.339-.539A2.736,2.736,0,0,0,4873.621,5298.209Zm-59.73-.031c.138-.076.273-.153.417-.226C4814.164,5298.024,4814.028,5298.1,4813.891,5298.178Zm.393-.092.024-.134Zm26.782-.177Zm-.512-.008Zm46.561-.049h0a3.324,3.324,0,0,0-.488-.691A3.318,3.318,0,0,1,4887.114,5297.852Zm-13.833-.182,0-.009Zm12.156-.108Zm-12.12-.126c0-.2-.041-.476-.04-.688C4873.276,5296.96,4873.317,5297.232,4873.318,5297.436Zm-58.354-.051.145-.065a.549.549,0,0,0,.043-.064.549.549,0,0,1-.043.064Zm-2.811-.05,0-.276Zm60.556-.021Zm-.281-.254Zm-26.682-.036a.454.454,0,0,1,.074-.177A.454.454,0,0,0,4845.746,5297.023Zm26.631-.034h0a.218.218,0,0,0,.149-.087h0A.217.217,0,0,1,4872.376,5296.989ZM4872.578,5296.982Zm11.694-.047-.08-.137Zm-11.646-.293a.743.743,0,0,1-.039.158.764.764,0,0,0-.013.125.747.747,0,0,1,.013-.124.789.789,0,0,0,.039-.158,1.828,1.828,0,0,1,.183-.375c.147.09.308.174.454.265-.146-.092-.308-.174-.454-.266A1.866,1.866,0,0,0,4872.626,5296.642Zm-33.471.135.044-.007-.044.007Zm45.579-.051-1.025-1.353,1.025,1.353c-.945-1.2-1.315-1.59-1.322-1.457.008-.132.378.254,1.322,1.457Zm-11.437-.17h0l-.034-.021Zm11.224-.158.3.024h0l-.3-.024Zm.3-.029c-.009-.083-.025-.146-.035-.227a.581.581,0,0,1,.117-.011.589.589,0,0,0-.117.011h0C4884.79,5296.221,4884.807,5296.285,4884.816,5296.368Zm.633-.1-.1-.04Zm-13.686-.091-.018-.021Zm-.008-.014.008.014-.008-.015-.01-.007Zm1.314-.415a.645.645,0,0,0-.252-.17A.652.652,0,0,1,4873.071,5295.75Zm-71.453-.018a.149.149,0,0,1,.128-.109A.149.149,0,0,0,4801.618,5295.732Zm69.938-.142-.019-.062.018.062Zm-.019-.062c-.158-.092-.311-.184-.469-.274l0,0C4871.227,5295.346,4871.38,5295.437,4871.537,5295.528Zm-.388-.184.06.08Zm13.037.027c-.249-.149-.562-.336-.888-.53C4883.625,5295.035,4883.938,5295.224,4884.187,5295.372Zm-67.646-1.481.03-.041Zm-25.337,0a1.867,1.867,0,0,0-.012-.267A2.022,2.022,0,0,1,4791.2,5293.889Zm.163-.095-.009,0Zm-.127-.1a.243.243,0,0,1-.048-.074A.238.238,0,0,0,4791.24,5293.7Zm.34-.048Zm-.391-.031Zm0-.012Zm-.594-.154a.3.3,0,0,0,.122.137A.307.307,0,0,1,4790.592,5293.45Zm.592.111h0Zm0-.01Zm0-.009h0Zm0-.01Zm.006-.009Zm-.608-.073.488-1.15a.812.812,0,0,1,.192.142.825.825,0,0,0-.192-.143Zm.355-.561a3.426,3.426,0,0,0,.8.436h0a3.409,3.409,0,0,1-.8-.435Zm91.054.281a.789.789,0,0,0,.01-.1.789.789,0,0,1-.01.1Zm.012-.147a1.112,1.112,0,0,0-.587-.931h0A1.111,1.111,0,0,1,4882.013,5293.023Zm-90.7-.4a.413.413,0,0,0-.039-.164A.413.413,0,0,1,4791.316,5292.62Zm.654-.019Zm89.422-.125Zm-89.527-.072h0c-.129-.253-.19-.481.022-.587C4791.674,5291.922,4791.736,5292.151,4791.865,5292.405Zm.406-.139.032-.066ZM4791.939,5292.235Zm-7.252-.093.071.06h0l-.072-.059-.317-.263A1.775,1.775,0,0,0,4784.687,5292.142Zm7.616.058c-.118-.1-.251-.246-.415-.384C4792.051,5291.954,4792.185,5292.1,4792.3,5292.2Zm-7.529-.038h0a.1.1,0,0,1-.05,0A.093.093,0,0,0,4784.773,5292.163Zm97.083,0c-.487-.165-1.218-1.019-1.164-1.516C4880.637,5291.144,4881.368,5292,4881.856,5292.163Zm-11.774-.075.023-.007-.023.007-.049-.063Zm-85.26-.051c.03-.076.058-.157.086-.229-.028.072-.057.153-.086.229-.006-.092-.031-.213-.048-.34C4784.79,5291.823,4784.815,5291.945,4784.822,5292.037Zm-.054-.523.291-.239-.291.239Zm.216-.243h0Zm95.429-.395h0c-.583-.531-1.54-1.529-2.187-2,.647.47,1.6,1.469,2.187,2Zm.61-.035a.067.067,0,0,1-.051.022A.067.067,0,0,0,4881.023,5290.841Zm-.132-.007a.759.759,0,0,1-.139-.12A.759.759,0,0,0,4880.891,5290.833Zm-.152-.135-.021-.022Zm-95.336-.019.012-.024-.012.024Zm6.878-.016Zm.014-.011c.015-.015.028-.035.048-.04C4792.322,5290.618,4792.309,5290.637,4792.293,5290.652Zm88.781-.068c0-.03,0-.062,0-.095C4881.074,5290.522,4881.075,5290.554,4881.075,5290.584Zm-95.6-.051Zm95.507-.149a62,62,0,0,0-5.691-5.958l-.01-.008A62.137,62.137,0,0,1,4880.98,5290.384Zm-63.075-.137h0Zm15.8-.038.161-.22Zm-25.9-.457.084-.1ZM4785.966,5289.612Zm0,0a1.1,1.1,0,0,0-.108-.055h0A1.1,1.1,0,0,1,4785.966,5289.612Zm92.589-.109-.037-.066Zm-93.239-.037v0a.335.335,0,0,0-.1-.214A.337.337,0,0,1,4785.316,5289.466Zm25.9-.072.006,0Zm-26.112-.2.016,0-.016,0Zm0,0c.441-.718.869-1.4,1.136-1.792C4785.973,5287.8,4785.544,5288.478,4785.1,5289.2Zm1.175-.492.144.153-.142-.151a.117.117,0,0,1,.159-.051.147.147,0,0,0-.059-.014A.123.123,0,0,0,4786.28,5288.7Zm-1.127.043Zm0,0a15.406,15.406,0,0,0,1.053-2.554A15.442,15.442,0,0,1,4785.153,5288.748Zm58.513-.047Zm-1.447-.174.023.03.32.034.2-.083-.2.081-.32-.032-.023-.03Zm.778-.111Zm-48.56-.735a.339.339,0,0,1,.077.008l.1-.167-.1.167a.339.339,0,0,0-.077-.008Zm0,0a.254.254,0,0,1,.181-.16A.252.252,0,0,0,4794.438,5287.68Zm-8.179-.092c0-.01,0-.021,0-.031C4786.26,5287.567,4786.259,5287.578,4786.259,5287.588Zm0-.034-.016.033.016-.033c0-.021,0-.042,0-.062C4786.261,5287.513,4786.26,5287.534,4786.26,5287.554Zm53.646-.083.019.005.123.037-.122-.037-.021-.005Zm0,0c0-.023.011-.049.014-.072.115.011.252.026.409.046-.157-.021-.294-.035-.411-.047C4839.916,5287.422,4839.905,5287.448,4839.905,5287.471Zm.423-.026Zm-53.119-.077a1.213,1.213,0,0,1-.014-.156,1.206,1.206,0,0,0,.014.155Zm-.939-.008Zm.023-.034a1.027,1.027,0,0,1,.214-.265h0A1.043,1.043,0,0,0,4786.294,5287.326Zm.114-.061.1-.2Zm.021-.015h0l.157-.288,0,0Zm1-.043h0a.181.181,0,0,0,0-.04A.157.157,0,0,1,4787.427,5287.207Zm53.641-.007h0q-.525-.112-1.033-.214l-.057.164h0l.056-.162Q4840.544,5287.086,4841.068,5287.2Zm-54.557-.138c.382-.731.7-1.393,1.078-2.115C4787.212,5285.669,4786.894,5286.33,4786.511,5287.063ZM4791.678,5286.848Zm44.339-.235c.25.019.514.059.778.1.037-.113.06-.215.08-.308-.021.093-.043.195-.08.308C4836.533,5286.672,4836.268,5286.631,4836.018,5286.613Zm1.146.062Zm0,0c.016-.07.032-.142.046-.211C4837.2,5286.533,4837.18,5286.6,4837.164,5286.675Zm-2.013-.049h0l-.045-.012Zm.867-.013.721-.232h0Zm1.757-.049Zm-3.07-.081Zm-4.668-.035.313,0Zm6.587-.088Zm-2.629-.18h0c.207-.058.518-.1.743-.142h0C4834.514,5286.083,4834.2,5286.124,4833.994,5286.18Zm-.045-.019.431-.182-.963-.16.962.16-.43.182ZM4788.111,5286.149Zm0,0,.005-.013h0Zm7.181-.485a1.42,1.42,0,0,0,.176.479c.138-.227.268-.443.381-.641-.113.2-.243.414-.381.641a1.42,1.42,0,0,1-.176-.479Zm-7.174.475h0Zm-.046-.1h0c-.192-.423-.359-.807-.482-1.092C4787.712,5285.234,4787.88,5285.618,4788.071,5286.04Zm69.59-.049a.424.424,0,0,0-.083-.114.413.413,0,0,1,.082.113Zm-24.438-.007.094,0-.094,0Zm24.287-.068.082.041Zm-.154-.076h0l-.254-.126Zm-71.116-.008c0-.167-.019-.322-.019-.526C4786.221,5285.511,4786.239,5285.667,4786.239,5285.833Zm71.156-.085Zm0,0a1.878,1.878,0,0,0-.5-.136l0,0A1.883,1.883,0,0,1,4857.4,5285.748Zm19.453-.076c.008-.009-.006-.04-.047-.1C4876.841,5285.632,4876.855,5285.662,4876.848,5285.672Zm-81.589-.147a.291.291,0,0,1,.035.115.291.291,0,0,0-.035-.115l-.034-.126Zm81.5.008c-.408-.448-.875-.926-1.385-1.42C4875.886,5284.607,4876.353,5285.084,4876.761,5285.533Zm-81.794-.284a1.269,1.269,0,0,1,.224.185h0a1.422,1.422,0,0,0-.226-.184Zm68.316.091c0-.034,0-.069,0-.1,0,.034,0,.068,0,.1Zm-.469-.58.331.492h0l-.332-.493Zm-67.346-.288c-.091.145-.188.291-.281.435a.7.7,0,0,1,.341.2l.551-.535-.551.535a.7.7,0,0,0-.339-.2c.092-.145.19-.289.28-.434.359-.549.739-1.051,1.119-1.537C4796.207,5283.422,4795.828,5283.925,4795.469,5284.472Zm17.584.6,0,0Zm50.249-.018h0c-.028-.024-.036-.039-.07-.065h0A.86.86,0,0,1,4863.3,5285.054Zm-67.133-.165v0a1.183,1.183,0,0,0-.044-.224A1.223,1.223,0,0,1,4796.168,5284.89Zm-8.792-.439s.067.16.177.413h0c-.109-.253-.177-.414-.177-.414a.852.852,0,0,1-.067-.322A.861.861,0,0,0,4787.376,5284.451Zm25.944.3,0,0Zm49.551-.071a.234.234,0,0,0,.036-.121A.234.234,0,0,1,4862.871,5284.68Zm-62.134-.2h0c.085-.1.162-.176.247-.268C4800.9,5284.3,4800.824,5284.379,4800.737,5284.476Zm62.853-.066c.019-.02.04-.04.062-.06C4863.629,5284.37,4863.609,5284.39,4863.59,5284.41Zm-62.569-.128v.011h0v-.012a.313.313,0,0,0-.035-.072A.322.322,0,0,1,4801.021,5284.282Zm-4.2-.061h0a4.661,4.661,0,0,1-.285-1.071A4.674,4.674,0,0,0,4796.822,5284.221Zm66.236-.1c-.216-.044-.521-.13-.784-.19C4862.537,5284,4862.842,5284.082,4863.058,5284.125Zm-60.96-.207a.137.137,0,0,1,.054-.141A.134.134,0,0,0,4802.1,5283.918Zm.054-.141Zm.043-.215-.026-.039Zm-4.583-.085c-.322-.162-.849-.324-.747-.716C4796.762,5283.153,4797.29,5283.315,4797.612,5283.478Zm4.35-.208h0c.093-.077.19-.159.281-.229h0C4802.152,5283.111,4802.055,5283.194,4801.961,5283.27Zm.813-.623a1.973,1.973,0,0,0,.162.589A1.973,1.973,0,0,1,4802.775,5282.646Zm70.838.423Zm0,0,.305-.117C4873.735,5283.021,4873.62,5283.066,4873.613,5283.069Zm-84.086-.119h0Zm7.061-.014Zm-7.052-.016Zm-.435-.231c.174.059.355.042.435.231-.079-.189-.258-.172-.433-.231ZM4798.746,5282.9Zm0,0,.275-.222h0Zm.665-.014c.056-.054.111-.105.166-.156C4799.521,5282.784,4799.465,5282.836,4799.41,5282.89Zm-1.181-2.027c-.487.641-1.038,1.3-1.595,2.012l0,0c.555-.708,1.1-1.368,1.59-2.006.762-.955,1.542-1.708,2.165-2.371C4799.771,5279.156,4798.991,5279.91,4798.229,5280.863Zm-.137,1.966h0l-.68-.627Zm-9.585-.009a.506.506,0,0,0-.036-.174l0,0A.494.494,0,0,1,4788.508,5282.819Zm4.585,0,.047-.111Zm5.649-.216Zm1.012-.033Zm47.008-.032Zm-46.264-.049.009.018h0Zm0,0,.022-.025v0Zm-.75-.025a.908.908,0,0,1,.146-.483A.908.908,0,0,0,4799.749,5282.463Zm-.872,0,.011-.012Zm48.17-.017Zm-48.109-.045.041-.042Zm.363-.359c-.1.1-.207.2-.31.3.1-.1.208-.206.31-.3a1.287,1.287,0,0,1,.595-.061,1.278,1.278,0,0,0-.171-.012A1.324,1.324,0,0,0,4799.3,5282.04Zm-.7.289h0Zm-.106-.006a.985.985,0,0,1-.158-.044A.971.971,0,0,0,4798.5,5282.323Zm-.3-.1-.041-.018Zm-.789-.023,0-.012Zm.685-.021Zm-.056-.024c-.069-.03-.139-.059-.2-.081C4797.9,5282.1,4797.973,5282.125,4798.042,5282.155Zm2.242-.047-.014-.026-.007,0,.007,0,.012.022Zm-2.683-.078h0Zm2.621-.008.019.007-.019-.007a1.6,1.6,0,0,1-.142-.281,1.467,1.467,0,0,0-.135.174,1.467,1.467,0,0,1,.135-.174A1.557,1.557,0,0,0,4800.223,5282.021Zm-1.426-.006c0-.025,0-.052,0-.082C4798.795,5281.962,4798.8,5281.989,4798.8,5282.015Zm-7.879-.064c.033-.565.216-.817.217-1.239,0,.422-.184.674-.217,1.239l-.462-.931Zm7.463-.122c.083-.091.21-.182.345-.021-.136-.162-.262-.071-.345.02a1.176,1.176,0,0,1-.094.11C4798.3,5281.938,4798.331,5281.883,4798.381,5281.829Zm-.1.086v0a.819.819,0,0,1,.031-.083A.819.819,0,0,0,4798.285,5281.916Zm2.338-.2a1.067,1.067,0,0,1,.02.116,1.067,1.067,0,0,0-.02-.116Zm-1.021.053.1.042-.1-.042Zm0,0c.063-.056.131-.122.191-.173C4799.732,5281.646,4799.665,5281.711,4799.6,5281.767Zm1.236-.073Zm-.206-.008c.022-.066.046-.133.075-.205h0C4800.679,5281.551,4800.655,5281.619,4800.632,5281.686Zm-9.492-.021a.621.621,0,0,1,.567-.637A.619.619,0,0,0,4791.141,5281.665Zm8.652-.071c.054-.041.1-.069.148-.108C4799.889,5281.525,4799.847,5281.553,4799.793,5281.594Zm-9.224-.125a1.343,1.343,0,0,0-.023-.157A1.343,1.343,0,0,1,4790.569,5281.469Zm9.259-.186h0l-.164-.293Zm1-.059.005,0Zm-9.1-.187h0l-.019-.009Zm9.332-.072c.038.016.076.031.113.048l.2-.122-.2.122-.112-.049Zm-1.392.024Zm1.7-.1-.038,0Zm4.874-.239a1.134,1.134,0,0,0,.251-.5,1.134,1.134,0,0,1-.251.5ZM4802.44,5280.575Zm3.62-.17a.467.467,0,0,1,.194.138.467.467,0,0,0-.194-.138Zm-13.31-2.873a23.085,23.085,0,0,0-2.985,2.818,23.207,23.207,0,0,1,2.985-2.817c1.753-1.53,3.3-2.428,5.062-3.79C4796.047,5275.1,4794.5,5276,4792.75,5277.532Zm-1.65,2.774a.275.275,0,0,0-.026-.045A.275.275,0,0,1,4791.1,5280.307Zm.583-.021Zm.64-.191c-.074.084-.179.189-.28.189C4792.144,5280.284,4792.248,5280.179,4792.322,5280.095Zm-.29.189a.154.154,0,0,1-.1-.052A.154.154,0,0,0,4792.033,5280.284ZM4791.9,5280.187Zm.463-.135-.007.008.007-.008,0-.01ZM4802.37,5280.03Zm-10,0c.091-.23.018-.941-.465-.964C4792.388,5279.086,4792.462,5279.8,4792.371,5280.027Zm9.9-.036Zm.009-.013a.6.6,0,0,1,.171-.164h0A.6.6,0,0,0,4802.282,5279.978Zm-10.347-.114Zm7.559-.095,1.123-1.516Zm1.407-1.615c-.488.522-.959,1.06-1.407,1.615.447-.555.919-1.092,1.407-1.613a21.4,21.4,0,0,1,1.594-1.428A21.377,21.377,0,0,0,4800.9,5278.155Zm2.581,1.354.063-.067Zm0-.116.116-.43.139.112-.139-.112Zm.2-.094h0l.059-.222Zm42.629-.08Zm.3-.09Zm-54.749-.065.469-.138Zm0,0h0Zm1.67-.023Zm10.125-.3.256.209h0l-.256-.209Zm-11.326.181a.471.471,0,0,0-.132-.129h0A.476.476,0,0,1,4792.333,5278.925Zm72.6-.7.8.558-.8-.558-.074-.071Zm1.457.551a1.9,1.9,0,0,1-.128-.16A1.736,1.736,0,0,0,4866.389,5278.779Zm-72.449-.089Zm-.023-.039a.669.669,0,0,1-.092-.325A.664.664,0,0,0,4793.917,5278.651ZM4803.792,5278.623Zm0,0a.744.744,0,0,0-.139-.081A.8.8,0,0,1,4803.792,5278.623Zm62.468,0c-.554-.28-1.119-.546-1.695-.8h0Q4865.43,5278.2,4866.261,5278.62Zm-73.87-.1c.166.167.189.1.191-.021,0,.119-.026.187-.191.019Zm74.729.01h0c-.2-.118-.4-.235-.6-.349v0Zm-74.538-.031v0Zm10.44-.1a.4.4,0,0,0,.053-.283A.4.4,0,0,1,4803.022,5278.4Zm-10.44-.015a.292.292,0,0,1,.043-.191l-.052.021.052-.021A.288.288,0,0,0,4792.582,5278.384Zm73.543-.055a.31.31,0,0,1,0-.06.31.31,0,0,0,0,.06Zm-60.97-.032c.144-.111.287-.219.433-.327a.754.754,0,0,1,.03-.09.824.824,0,0,0-.03.089C4805.442,5278.078,4805.3,5278.186,4805.156,5278.3Zm-2.2-.266Zm63.261-.027Zm-.331-.193.331.193-.33-.193c-.3-.168-.577-.329-.835-.487a.719.719,0,0,0-.375.195h0a.719.719,0,0,1,.375-.193C4865.312,5277.483,4865.586,5277.643,4865.888,5277.811Zm-55.8.132h0a1.078,1.078,0,0,1,.282-.293A1.073,1.073,0,0,0,4810.084,5277.943Zm-4.491-.055a.244.244,0,0,1-.069.011A.244.244,0,0,0,4805.593,5277.888Zm-.167-.02a.382.382,0,0,1-.116-.161A.382.382,0,0,0,4805.425,5277.868Zm4.908-.034.032-.013Zm-16.163-.008Zm15.409-.142c.021-.061.043-.1.065-.148C4809.622,5277.586,4809.6,5277.624,4809.579,5277.685Zm50.411-.024-.069-.089a8.686,8.686,0,0,1-.505-.753c-.353-.179-.747-.38-1.216-.608l-.039-.007c.486.235.893.437,1.255.619a8.685,8.685,0,0,0,.505.752l.067.084Zm-49.622-.011Zm-5.111-.073c-.049-.126-.1-.242-.2-.242C4805.157,5277.335,4805.208,5277.451,4805.257,5277.577Zm.638-.018h0c.046-.46.7-.525.739-.848C4806.592,5277.035,4805.94,5277.1,4805.9,5277.559Zm.359-.1Zm53.047-.035Zm-52.758-.074.06-.007Zm-11.8-.284c.854-1.015,2.235-2.311,3.148-3.392C4796.982,5274.759,4795.6,5276.055,4794.747,5277.07Zm12.228-.114h0a.475.475,0,0,1-.333-.28A.477.477,0,0,0,4806.975,5276.956Zm2.766-4.889c-1.25.73-2.538,1.389-3.75,2.162a29.378,29.378,0,0,0-3.5,2.5,29.534,29.534,0,0,1,3.5-2.5c1.213-.774,2.5-1.433,3.751-2.162.021-.009.042-.022.063-.033v0C4809.784,5272.044,4809.762,5272.058,4809.741,5272.067Zm-2.412,4.655.054-.036-.054.036a.657.657,0,0,1-.1-.3A.657.657,0,0,0,4807.329,5276.723Zm-.692-.044c0-.005,0-.011,0-.017S4806.636,5276.673,4806.636,5276.679Zm6.126-.14h0a1.324,1.324,0,0,1,.081-.282A1.367,1.367,0,0,0,4812.762,5276.539Zm47.973-.643c.588.206,1.146.408,1.7.62-.551-.212-1.108-.415-1.7-.62Zm-53.071.607Zm0,0a.637.637,0,0,0-.246-.371A.639.639,0,0,1,4807.664,5276.5Zm48.336-.023.048.013-.048-.013Zm0,0c.32-.114.707-.242,1.125-.369C4856.707,5276.237,4856.321,5276.363,4856,5276.479Zm3.232-.046a1.161,1.161,0,0,1-.069-.249.554.554,0,0,1-.009-.067.445.445,0,0,0,.009.112.987.987,0,0,0,.06.2Zm-46.409-.209.025.021-.025-.021Zm-4.97-.008a1.294,1.294,0,0,1-.2-.414h0c-.021.047-.106.043-.221.095-.163-.258.251-.326.213-.541.037.214-.377.282-.213.541.114-.051.2-.047.221-.095A1.279,1.279,0,0,0,4807.853,5276.216Zm9.331-.029a.764.764,0,0,1,.012-.134A.764.764,0,0,0,4817.184,5276.187Zm-4.4-.055h0c.025-.078.05-.156.075-.233C4812.83,5275.975,4812.806,5276.055,4812.78,5276.132Zm49-.006c-.271-.126-.561-.248-.859-.362C4861.218,5275.878,4861.507,5276,4861.778,5276.125Zm-4.652-.015c.458-.149.939-.355,1.393-.464C4858.065,5275.755,4857.583,5275.961,4857.126,5276.11Zm-44.117-.066c0-.012-.012-.019-.039-.019C4813,5276.025,4813.009,5276.032,4813.009,5276.044Zm.87-.094Zm-.488-.534a1.515,1.515,0,0,1,.4.136,1.334,1.334,0,0,1,.078.347,1.355,1.355,0,0,0-.078-.348,1.645,1.645,0,0,0-.4-.136Zm47.4.35a.824.824,0,0,1-.055.129.8.8,0,0,0,.055-.128l.128,0Zm-47.891-.008h0c.027-.087.055-.168.083-.255C4812.957,5275.587,4812.927,5275.671,4812.9,5275.758Zm-5.75-.051a.936.936,0,0,1,.415-.491.936.936,0,0,0-.415.491Zm0,0a.3.3,0,0,0,.006-.112A.3.3,0,0,1,4807.15,5275.707Zm-1.28-.051-.01.022.01-.022Zm52.869-.021-.11,0Zm.224-.015c.17-.014.343-.033.521-.036C4859.307,5275.587,4859.134,5275.606,4858.964,5275.62Zm-49.784-.1Zm3.805-.016c.671-.343,1.353-.671,2.054-.968h0C4814.339,5274.828,4813.655,5275.156,4812.985,5275.5Zm.439-.042a.02.02,0,0,0-.011-.018A.02.02,0,0,1,4813.425,5275.459Zm-4.214-.178.012-.075Zm6.511-.13.021.112c.1-.035.2-.074.307-.111-.1.037-.207.076-.307.111l-.021-.112Zm-1.218-.082.157-.077Zm.469-.4h0Zm.036,0Zm3.031-.384c0,.028.012.061.012.086l.177-.1c.154-.122.33-.25.511-.376-.181.126-.356.254-.511.376l-.177.1a.707.707,0,0,0-.011-.086,1.415,1.415,0,0,1,.15-.11h0c-.053.028-.1.051-.157.082a.968.968,0,0,0-.08-.32,1.046,1.046,0,0,1,.08.32c.053-.031.1-.054.157-.082A1.494,1.494,0,0,0,4818.039,5274.288Zm-.051-.369.026-.014Zm.75-.017c-.022-.015-.046-.03-.069-.043C4818.693,5273.873,4818.716,5273.887,4818.739,5273.9Zm.472-.03h0a.078.078,0,0,1-.051-.028A.076.076,0,0,0,4819.21,5273.873Zm-2.3,0,0,0Zm-.005-.006,0,0Zm-.037-.038.03.031-.029-.03c.65-.229,1.309-.43,1.974-.615C4818.182,5273.4,4817.523,5273.6,4816.872,5273.827Zm1.774.02a.7.7,0,0,0-.073-.032A.7.7,0,0,1,4818.646,5273.847Zm.513,0h0Zm0,0h0Zm0,0v0Zm.022-.061a.075.075,0,0,0-.023.058.074.074,0,0,1,.023-.057l0,0Zm-.883.02.052-.008Zm.075-.01h0Zm.808-.009,1-.538c.275-.125.564-.246.862-.366-.3.119-.586.241-.863.366l-.937.5Zm0,0h0c.089-.1.383-.259.375-.313C4819.561,5273.517,4819.264,5273.672,4819.178,5273.777Zm-.066-.128h0a2.37,2.37,0,0,1,1.688-.751A2.367,2.367,0,0,0,4819.112,5273.648Zm.313-.2Zm-.875-.1c.1-.043.2-.088.3-.135C4818.75,5273.26,4818.65,5273.3,4818.55,5273.348Zm2.252-.452Zm-6.77-.01h0a8.657,8.657,0,0,1,.5-.866A8.825,8.825,0,0,0,4814.032,5272.886Zm7.008-.012Zm1.646-.2Zm0,0c.042-.037.095-.073.128-.109.08,0,.144.012.207.02h0c-.066-.008-.13-.018-.211-.021C4822.781,5272.6,4822.728,5272.642,4822.686,5272.678Zm-7.9-.142.015-.019.012.006h0l-.013-.006Zm9.844-.389Zm-8.982-.167a2.406,2.406,0,0,1-.6.1A2.406,2.406,0,0,0,4815.651,5271.98Zm-.614.1a.5.5,0,0,1-.389-.14A.5.5,0,0,0,4815.037,5272.082ZM4840.224,5272.044Zm-14.6-.622-1.305.453a.591.591,0,0,0,.148.169.585.585,0,0,1-.147-.169c.473-.165.944-.328,1.3-.451.869-.215,1.753-.4,2.634-.569a.764.764,0,0,1,.225.153.771.771,0,0,0-.225-.155C4827.376,5271.019,4826.493,5271.208,4825.624,5271.423Zm39.182.62a7.83,7.83,0,0,0-1.862-.8l-.077.013h0l.074-.012a7.738,7.738,0,0,1,1.857.794ZM4840.486,5271.984Zm-24.664-.053c.3-.091.624-.209.921-.308C4816.447,5271.722,4816.125,5271.84,4815.823,5271.931Zm8.459-.153c.005.015.011.03.017.043h0a.417.417,0,0,1-.018-.043Zm22.268-.153a.635.635,0,0,0-.074.148.607.607,0,0,1,.075-.148c.038-.018.075-.027.113-.046C4846.625,5271.6,4846.588,5271.608,4846.549,5271.625Zm-29.832.036.269-.116Zm29.84-.048h0a.462.462,0,0,1,.223-.168h0A.471.471,0,0,0,4846.558,5271.613Zm-21.63,0,.093-.03Zm17.638-.005c.038-.022.075-.042.112-.062-.038.019-.075.04-.112.062-.106-.368.655-.41.765-.505C4843.221,5271.193,4842.458,5271.235,4842.566,5271.6Zm-25.683-.026.044-.014Zm29.8-.007Zm-.875-.013h0Zm-.064,0a7.691,7.691,0,0,1-1.16-.114A7.691,7.691,0,0,0,4845.741,5271.557Zm2.7-.009-.057,0Zm-.95-.126c-.009-.091.232-.146.294-.205h0C4847.722,5271.274,4847.48,5271.33,4847.491,5271.421Zm-4.351-.041.032-.006Zm.808-.025Zm0,0a.524.524,0,0,1,.093-.229A.517.517,0,0,0,4843.948,5271.355Zm-.025,0c-.1-.009-.194-.015-.289-.016C4843.729,5271.339,4843.825,5271.345,4843.923,5271.354Zm0,0c-.023-.083-.131-.166-.292-.243C4843.792,5271.189,4843.9,5271.273,4843.923,5271.354Zm-.428-.015.1,0h0Zm5.413-.016-1.076-.1Zm-31.427-.187.042.187-.042-.187Zm45.394.1h0a1.164,1.164,0,0,0-.127-.017h0A1.121,1.121,0,0,1,4862.875,5271.24Zm-20.775-.042Zm5.488,0Zm-29.347-.125c0,.075.121.108.3.107C4818.361,5271.18,4818.24,5271.147,4818.24,5271.073Zm25.942.061-.107-.03.105.03Zm2.561-.015c-.5-.052-1.033-.116-1.6-.2C4845.709,5271,4846.238,5271.068,4846.743,5271.119Zm-2.667-.015a1.183,1.183,0,0,1,.5-.258l.167.018-.167-.019A1.172,1.172,0,0,0,4844.075,5271.1Zm-24.788-.054a1.384,1.384,0,0,1-.154.052c.045-.016.143-.027.192-.044l.007-.008c.057-.038.088-.066.155-.108C4819.421,5270.984,4819.344,5271.012,4819.288,5271.05Zm.024.041.136-.033c-.046.011-.09.021-.135.032Zm-1.072-.021a41.023,41.023,0,0,1,4.047-1.24A40.644,40.644,0,0,0,4818.24,5271.069Zm24.6,0Zm0,0c-.287-.013-.667-.03-1.068-.046C4842.17,5271.038,4842.55,5271.055,4842.836,5271.067Zm-1.127-.016Zm1.381-.057.061.021.04-.039-.04.039-.061-.021Zm-24.907-.105-.327.088.327-.086a.288.288,0,0,1,.188.023.229.229,0,0,0-.125-.028A.6.6,0,0,0,4818.184,5270.889Zm.227.066Zm10.467-.214a.189.189,0,0,0-.071.211l.078-.02-.078.02a.188.188,0,0,1,.073-.211c.056-.009.111-.022.167-.031C4828.99,5270.72,4828.935,5270.732,4828.877,5270.742Zm-10.472.206v0Zm0-.115c.009.039.021.076.032.113h0a1.053,1.053,0,0,1-.032-.113l.845-.225Zm19.566.108Zm0,0a4.126,4.126,0,0,0,.777-.213h0A4.222,4.222,0,0,1,4837.968,5270.94Zm-19.568,0,0,0Zm19.507-.006h0l-.027,0Zm-19.513,0,0,0Zm-.007-.006-.005,0Zm-.007-.006-.008-.005Zm23.869,0-.07-.019.069.019Zm-.144-.005Zm0,0,.073-.014Zm-5.866-.162,1.08.116-1.08-.116Zm12.691,0a3.24,3.24,0,0,0-1.318-.317A3.264,3.264,0,0,1,4848.93,5270.752Zm-35.987-.412a.729.729,0,0,0,1.2.141.273.273,0,0,0,.007-.06.258.258,0,0,1-.007.059.727.727,0,0,1-1.2-.139c.217-.119.43-.243.65-.356C4813.375,5270.1,4813.162,5270.222,4812.943,5270.34Zm16.127.366c.359-.055.716-.105,1.07-.155C4829.787,5270.6,4829.429,5270.651,4829.071,5270.707Zm-9.9-.067.078-.032Zm21-.037a27,27,0,0,1,3-1.84A27,27,0,0,0,4840.169,5270.6Zm-9.659-.013c.156-.029.306-.065.462-.091-.157.026-.308.062-.462.091Zm-.369-.038Zm17.142-.037.269.035-.269-.035Zm-16.645.014a.624.624,0,0,1,.23-.059h0A.624.624,0,0,0,4830.639,5270.529Zm3.348-.013Zm0,0a2.79,2.79,0,0,1,.481-.176A2.566,2.566,0,0,0,4833.987,5270.516Zm13.3,0a2.206,2.206,0,0,0,.329-.08A2.4,2.4,0,0,1,4847.283,5270.515Zm-16.344-.033a.174.174,0,0,0-.038-.009A.174.174,0,0,1,4830.939,5270.481Zm-1.493,0,.019,0Zm.549-.127Zm4.551-.014.535-.027h.006Zm-21.252-.039c-.092,0,.189-.173.3-.314C4813.483,5270.125,4813.2,5270.3,4813.294,5270.3Zm0,0h0Zm.072-.014.043-.013Zm21.464-.055h0Zm2.4-.011a22.294,22.294,0,0,0,3.412-.315h-.009A22.319,22.319,0,0,1,4837.238,5270.218Zm-23.614-.018.03-.011Zm21.673,0a1.184,1.184,0,0,1,.166-.292A1.15,1.15,0,0,0,4835.3,5270.2Zm-21.586-.031.035-.013Zm.049-.018h0Zm.088-.034-.088.034.088-.032c1.167-.466,2.21-.878,3.174-1.25v0C4816.061,5269.239,4815.016,5269.65,4813.849,5270.116Zm22.522-.038c-.328,0-.42-.163-.346-.307C4835.949,5269.916,4836.042,5270.079,4836.371,5270.079Zm.231-.022c-.033.006-.064.01-.094.014.03,0,.061-.008.094-.014l.4-.446Zm.916-.047h0c.162-.177.145-.385-.293-.648l-.207.231-1.592-.211,1.592.211.207-.231C4837.662,5269.625,4837.68,5269.833,4837.518,5270.009Zm.22-.019Zm-2.847-.058c.232-.031.463-.062.683-.095Zm4.849-.014Zm-4.166-.081Zm-13.166-.046c.373-.079.833-.161,1.2-.242l.012-.016C4823.24,5269.62,4822.805,5269.708,4822.408,5269.792Zm13.617-.021c.349-.053.68-.106.977-.161C4836.7,5269.665,4836.373,5269.719,4836.024,5269.771Zm-5.3-.063Zm-.439-.023h.006c.207-.029.369-.056.522-.083h0C4830.663,5269.628,4830.5,5269.655,4830.288,5269.685Zm-13.292-.05c.557-.626,1.049-.864,1.434-1.313C4818.044,5268.771,4817.553,5269.009,4817,5269.635Zm16.3,0h0a.505.505,0,0,0-.1-.057A.491.491,0,0,1,4833.292,5269.631Zm-1.758-.035Zm.017-.017c.341-.317,1.224-.557,1.116-.936C4832.772,5269.023,4831.892,5269.263,4831.551,5269.58Zm2.557-.119a17.578,17.578,0,0,1,2.8-1.259h0a18.034,18.034,0,0,0-2.788,1.248Zm1.365-.086a3.169,3.169,0,0,0,.406-.058h-.006A3.2,3.2,0,0,1,4835.473,5269.375ZM4835.248,5269.361Zm-4.02-.189c.042-.04.084-.078.127-.117-.043.039-.086.077-.127.117-.771-.181-2.155-.349.427-.792C4829.071,5268.823,4830.457,5268.991,4831.228,5269.172Zm5.525-.206a6.83,6.83,0,0,1,3.411-.518,6.815,6.815,0,0,0-3.41.517Zm-19.626-.142,1.3-.5Zm26.044-.062q-.794-.085-1.655-.173Zm-2.62-.273c.152.022.306.04.466.052-.16-.012-.314-.031-.466-.053l-.275-.029Zm-7.943.041h0c.022,0,.518-.1,1.035-.159C4833.115,5268.433,4832.608,5268.53,4832.608,5268.53Zm7.627-.075-.072-.006C4840.187,5268.452,4840.212,5268.453,4840.235,5268.455Zm-8.486-.085c.219-.022.435-.03.654-.05h0C4832.184,5268.339,4831.969,5268.348,4831.749,5268.37Zm2.978-.185.008.046s-.534.07-1.066.138c.534-.068,1.067-.138,1.067-.138l-.008-.046c.18,0,.357-.007.535-.008C4835.085,5268.178,4834.907,5268.181,4834.727,5268.185Zm8.943.112h0c.106-.019.206-.036.32-.059C4843.878,5268.262,4843.778,5268.278,4843.67,5268.3Zm-8.059-.03h0l-.437-.018Zm-.435-.019c.021-.024.063-.046.088-.071C4835.239,5268.2,4835.2,5268.225,4835.176,5268.249Zm8.818-.009Zm-25.32-.009Zm0,0,1.19-.452C4819.481,5267.924,4819.082,5268.074,4818.674,5268.23Zm1.35-.292h0l.352-.335Zm-.159-.16Zm.511-.174Zm-.03,0h0Zm1.027-.392Zm.273-.468h.13l-.127,0Zm.068-.03.078-.032Zm9.045,112.115a5.783,5.783,0,0,1-.588.219Zm-7.569-.711a.351.351,0,0,1,.213.028C4823.325,5378.137,4823.25,5378.13,4823.19,5378.118Zm35.558-2.008c-.787.346-1.751.647-3.038,1.062C4856.8,5376.75,4857.82,5376.451,4858.748,5376.11Zm-59.146-.144-.612-.161-.521-.385.875.357c.432.178.874.335.874.335S4799.9,5376.049,4799.6,5375.967Zm85.017-22.047.354-1.015a9,9,0,0,1-.354,1.015Zm.665-2.044,2.073-3.142-2.384,4.17Zm-110.071-34.412c.2,1.8.066,3.509.16,4.743C4775.1,5320.707,4774.781,5317.863,4775.213,5317.463Zm7.684-19.218.063.028Zm-.056-.034.056.034Zm-.2-.192.2.192A1.324,1.324,0,0,1,4782.638,5298.02ZM4889.909,5297c-.1-.22-.2-.439-.366-.4a2.018,2.018,0,0,0,.114.449.765.765,0,0,0-.481.033c-.432.119-.93.238-1.5-1.373.326-.676.508-.2.732.269.206.431.445.861.861.422-.229-.65-.519-.625-.705-.6a.5.5,0,0,1-.119.009c-.351-1.025-.077-1.105.187-1.146-.446-.274-.55-1.724-1.3-2.016-.542-1.025-.241-1.005.039-.983.231.018.449.034.172-.531l-1.375-.2c.049-.026-.925-2.074-.925-2.074-1.01-1.312-1.369-.934-1.787-.6s-.855.589-2.15-.651c.759.051.793-1.719-.062-3.234.655.762,2.369,1.9,2.836,3.193-.128-1.116.286-.435.758.246.417.6.88,1.206,1.051.565a4.782,4.782,0,0,1-1.275-1.307,7.8,7.8,0,0,1-1.023-1.7l.32.269c-.669-1.153-2.169-1.239-2.97-2.854-.6-.648-.245-.738.061-.793-.619-.464-1.22-.819-1.034-.993l1.063-.253a26.579,26.579,0,0,0-2.6-1.974c.853.466-.549-1.311-2.651-2.757a15.871,15.871,0,0,0-2.065-1.529c2.211,1.363,3.335,2.174,4.1,2.5a3.45,3.45,0,0,0,1.405.369,3.431,3.431,0,0,1,1.67.731,26.7,26.7,0,0,1,4.482,4.015c-1.207-1.264-1.288-.962-1.551-1.057.572.586,1.57,1.833,2.717,3.065,1.072,1.305,2.269,2.631,3.086,3.545l-.531-.27.982,1.347,1.006,1.385c.335.528.693,1.093,1.053,1.658.743,1.114,1.385,2.289,1.857,3.178l.8,1.473c-.9-.6-1.9-2.792-3.184-4.8a23.341,23.341,0,0,0-1.853-2.791,5.161,5.161,0,0,0-1.538-1.548s.227.282.528.742l1.124,1.657c.419.595.8,1.215,1.07,1.693s.461.785.461.785l-.885-1.239c-.539-.735-1.333-1.66-2.092-2.6s-1.627-1.789-2.229-2.459c-.379-.422-.7-.738-.88-.915,2.527,2.336.791-.79-1.859-2.835a1.192,1.192,0,0,1-.873-.08,14.935,14.935,0,0,1,1.6,2.069c.677,1.057,1.361,2.019,2.212,3.49-.012.308-.313.011-.465-.139,1.395,1.928,2.718,5.233,3.85,6.667.266.73.582,2.746-.019,2.147a2.936,2.936,0,0,1,.565,1.092.189.189,0,0,1-.1.032C4890.089,5297.4,4890,5297.2,4889.909,5297Zm-7.822-13.679-.68-.988Zm0-.016a1.785,1.785,0,0,0-.678-.972A1.79,1.79,0,0,1,4882.085,5283.3Zm7.572,13.748a.419.419,0,0,1,.092.051A.138.138,0,0,1,4889.657,5297.049Zm-4.516-12.256s.063.056.172.161Zm.231-2.687.1.1Zm-11.837-7.729.177.118Zm-3.563-1.431a43.546,43.546,0,0,0-10.172-5.478c-3.555-.561-4.286-1.141-9.9-2.247-.951-.625.7-.341,2.717.038,2,.45,4.349,1.056,4.85.855a19.808,19.808,0,0,0-3.123-.833c-2.117-.818-.888-.656.387-.492a4.463,4.463,0,0,0,1.633.08s.439.147,1.088.4l2.375.923c1.692.753,3.385,1.5,3.385,1.5s1.1.225,2.221.458l1.543.33.692.182c-4.019-2.4-3.695-2.313-3.229-2.224.372.07.835.141-.735-1.048,1.529.886,4.323,2.154,6.931,3.635,1.284.774,2.539,1.561,3.567,2.335a11.823,11.823,0,0,1,2.254,2.174l-1.266-.605c-.765-.353-1.753-.862-2.794-1.262s-2.042-.854-2.823-1.131l-1.3-.451c1.688.827,2.97,1.8,4.558,2.455l-.44,1.095,1.143.736C4871.832,5273.314,4871.356,5273.663,4869.971,5272.944Zm-.934.193-.384.092C4868.667,5273.159,4868.772,5273.123,4869.038,5273.138Zm-8.288-3.2-.861-.275c-.182-.225.8-.78,1.646-.322l-.665.1-.672.128c.935.493,1.219-.108,1.391.7Zm1.746.089-.031.062A.152.152,0,0,1,4862.5,5270.03Zm.059-.043-.059.043A.518.518,0,0,1,4862.555,5269.986Zm.41-.106a1.419,1.419,0,0,0-.411.105A1.2,1.2,0,0,1,4862.965,5269.88Zm-15.4-2.563-.142.024C4847.471,5267.332,4847.518,5267.323,4847.567,5267.317Zm-37.268-.922-1.243.5A10.259,10.259,0,0,1,4810.3,5266.4Zm2.954-.834-.343.185C4813.021,5265.683,4813.139,5265.619,4813.253,5265.561Zm21.973-.676,2.471-.021c.618-.008,1.238-.009,1.7.023l.136.007c-1.106-.023-1.012.181-1.259.291Zm4.308.008c.18,0,.384.012.637.028Zm-4.45-.727c1.525-.02,3.332.018,3.3-.28.766.57-3.271.346-4.89.718C4832.316,5264.319,4833.556,5264.242,4835.084,5264.167Zm17.773-.638-3.039-.718c-2-.355-3.715-.573-3.982-.167,6.643,1.326,3.982,1.072,1.028.819a17.05,17.05,0,0,0-3.666-.139,7.043,7.043,0,0,0-2.3-.407c4.373.269,8.135.742,2.641-.636l-.512-.083c-.324-.06-.791-.12-1.354-.177-1.127-.111-2.625-.33-4.139-.379-.756-.042-1.515-.083-2.223-.123l-1.947-.005c-1.141,0-1.9.012-1.9.012l3.747-.154,3.376,0a30.884,30.884,0,0,1,7.094,1.031s.533-.123,1.063-.2l1.069-.182a50.038,50.038,0,0,0-17.466-.783,41.816,41.816,0,0,1,11.555-1.205,61.49,61.49,0,0,1,13.861,2.07c2.442.9,1.508.782.518.665-.908-.106-1.865-.215-.315.462-2.662-1-6.282-1.458-5.288-.855,1.146.307,2.151.477,3.041.648l2.37.473c.516.47-2.585-.07-.635.705C4854.745,5264.053,4853.844,5263.773,4852.857,5263.529Zm-14.845-.692a18.621,18.621,0,0,1,2.886.08C4839.934,5262.883,4838.957,5262.8,4838.012,5262.837Z" transform="translate(-3475 -3790)" fill="#e80000"></path></g><g id="icon-2" data-name="icon" transform="translate(1299.975 1502)"><path id="Path_1096" data-name="Path 1096" d="M64.854,286.709a29.89,29.89,0,0,0,25.854-14.857,29.828,29.828,0,0,0-51.707,0A29.89,29.89,0,0,0,64.854,286.709Z" transform="translate(-4.382 -226.293)" fill="#e80000"></path><path id="Path_1097" data-name="Path 1097" d="M43.706,330.7A29.715,29.715,0,0,0,39,336.86a29.988,29.988,0,0,0,4.706,6.1Z" transform="translate(-4.382 -291.3)" fill="#e9eeb8"></path><path id="Path_1098" data-name="Path 1098" d="M138.119,290.6v16.2a3.636,3.636,0,0,1-3.61,3.634H105.2a29.939,29.939,0,0,0,43.808-8.9A29.778,29.778,0,0,0,138.119,290.6Z" transform="translate(-62.695 -255.978)" fill="#731611"></path><path id="Path_1099" data-name="Path 1099" d="M230.8,237.037h0l-3.4-3.4V228.9h6.779v4.742Z" transform="translate(-170.336 -201.629)" fill="#f29f18"></path><path id="Path_1100" data-name="Path 1100" d="M160.5,111.938h2.919a2.924,2.924,0,0,0,2.919-2.919h0a2.924,2.924,0,0,0-2.919-2.919H160.5Zm-16.358,0h-2.919a2.924,2.924,0,0,1-2.919-2.919h0a2.924,2.924,0,0,1,2.919-2.919h2.919Z" transform="translate(-91.852 -93.459)" fill="#f29f18"></path><path id="Path_1101" data-name="Path 1101" d="M185.179,47.918h0a9.579,9.579,0,0,1-9.579-9.579v-6.66a9.579,9.579,0,0,1,9.579-9.579h0a9.579,9.579,0,0,1,9.579,9.579v6.66A9.579,9.579,0,0,1,185.179,47.918Z" transform="translate(-124.708 -19.467)" fill="#fbad41"></path><path id="Path_1102" data-name="Path 1102" d="M245.142,22h.012a9.7,9.7,0,0,0-1.454.119,9.6,9.6,0,0,1,8.137,9.472v6.66a9.6,9.6,0,0,1-8.125,9.484,9.831,9.831,0,0,0,1.454.119h-.024a9.58,9.58,0,0,0,9.555-9.6v-6.66A9.569,9.569,0,0,0,245.142,22Z" transform="translate(-184.694 -19.379)" fill="#f29f18"></path><rect id="Rectangle_3" data-name="Rectangle 3" width="2.979" height="1.191" transform="translate(55.11 13.701)" fill="#595959"></rect><rect id="Rectangle_4" data-name="Rectangle 4" width="1.191" height="2.264" transform="translate(57.493 16.084)" fill="#595959"></rect><rect id="Rectangle_5" data-name="Rectangle 5" width="2.979" height="1.191" transform="translate(62.854 13.701)" fill="#595959"></rect><rect id="Rectangle_6" data-name="Rectangle 6" width="1.191" height="2.264" transform="translate(62.258 16.084)" fill="#595959"></rect><path id="Path_1103" data-name="Path 1103" d="M234.419,174.619A2.924,2.924,0,0,1,231.5,171.7h1.168a1.751,1.751,0,0,0,3.5,0h1.168A2.924,2.924,0,0,1,234.419,174.619Z" transform="translate(-173.948 -151.244)" fill="#734b0b"></path><rect id="Rectangle_7" data-name="Rectangle 7" width="1.168" height="1.168" transform="translate(70.991 14.976)" fill="#734b0b"></rect><rect id="Rectangle_8" data-name="Rectangle 8" width="1.168" height="1.168" transform="translate(48.784 14.976)" fill="#734b0b"></rect><path id="Path_1104" data-name="Path 1104" d="M165.981,16.7h0v8.459a2.207,2.207,0,0,1-2.2,2.2H162.3V20.37A3.689,3.689,0,0,1,165.981,16.7Zm14.916,0h0v8.459a2.207,2.207,0,0,0,2.2,2.2h1.477V20.37A3.689,3.689,0,0,0,180.9,16.7Z" transform="translate(-112.992 -14.71)" fill="#3a3a3a"></path><path id="Path_1105" data-name="Path 1105" d="M167.046,4.9h12.962a4.652,4.652,0,0,1,4.646,4.646V14.9H162.4V9.546A4.652,4.652,0,0,1,167.046,4.9Z" transform="translate(-113.08 -4.316)" fill="#290505"></path><path id="Path_1106" data-name="Path 1106" d="M167.046,4.9H175.2a4.652,4.652,0,0,1,4.646,4.646v5.29H162.4V9.546A4.652,4.652,0,0,1,167.046,4.9Z" transform="translate(-113.08 -4.316)" fill="#e80000"></path><path id="Path_1107" data-name="Path 1107" d="M166.963,50H180.1a4.563,4.563,0,0,1,4.563,4.563H162.4A4.556,4.556,0,0,1,166.963,50Z" transform="translate(-113.08 -44.043)" fill="#e80000"></path><path id="Path_1108" data-name="Path 1108" d="M166.963,50h8.328a4.563,4.563,0,0,1,4.563,4.563H162.4A4.556,4.556,0,0,1,166.963,50Z" transform="translate(-113.08 -44.043)" fill="#f4756e"></path><path id="Path_1109" data-name="Path 1109" d="M230.984,21.6a3.287,3.287,0,0,0-3.384,3.384h6.779A3.3,3.3,0,0,0,230.984,21.6Z" transform="translate(-170.512 -19.027)" fill="#fff"></path><path id="Path_1110" data-name="Path 1110" d="M191.6,263.111l-2.6,2.6-6.1-6.112a28.593,28.593,0,0,1,5.314-1.1v1.215l3.384,3.4Zm8.685-3.527-6.112,6.1-2.562-2.573,3.4-3.4V258.5A29.034,29.034,0,0,1,200.283,259.584Z" transform="translate(-131.138 -227.702)" fill="#fbad41"></path><path id="Path_1111" data-name="Path 1111" d="M160.023,455H130v2.2a30.149,30.149,0,0,0,30.023,0Z" transform="translate(-84.54 -400.791)" fill="#e9eeb8"></path><rect id="Rectangle_9" data-name="Rectangle 9" width="29.916" height="6.255" transform="translate(45.507 47.906)" fill="#e9eeb8"></rect><rect id="Rectangle_10" data-name="Rectangle 10" width="29.916" height="6.255" transform="translate(45.507 41.663)" fill="#e9eeb8"></rect><path id="Path_1112" data-name="Path 1112" d="M130,364.45a18.086,18.086,0,0,0,3.681,1.728h9.09a3.92,3.92,0,0,0,4.027-3.932H130Zm12.772-4.468H130.048v-4.027H146.8A4.03,4.03,0,0,1,142.772,359.982Zm0-6.255H130.048V349.7H146.8A4.022,4.022,0,0,1,142.772,353.727Z" transform="translate(-84.54 -308.037)" fill="#fff"></path><path id="Path_1113" data-name="Path 1113" d="M228.795,349.7H220.3a3.117,3.117,0,0,0,3.121,3.121h2.24a3.119,3.119,0,0,0,3.133-3.121Zm0,12.5H220.3a3.117,3.117,0,0,0,3.121,3.121h2.24a3.112,3.112,0,0,0,3.133-3.121Zm0-6.255H220.3a3.117,3.117,0,0,0,3.121,3.121h2.24a3.112,3.112,0,0,0,3.133-3.121Z" transform="translate(-164.082 -308.037)" fill="#c6bec3"></path><rect id="Rectangle_11" data-name="Rectangle 11" width="1.168" height="1.168" transform="translate(51.178 47.323)" fill="#0d0d0d"></rect><rect id="Rectangle_12" data-name="Rectangle 12" width="2.979" height="1.191" transform="translate(55.11 13.701)" fill="#290505"></rect><rect id="Rectangle_13" data-name="Rectangle 13" width="1.191" height="2.264" transform="translate(57.493 16.084)" fill="#290505"></rect><rect id="Rectangle_14" data-name="Rectangle 14" width="2.979" height="1.191" transform="translate(62.854 13.701)" fill="#290505"></rect><rect id="Rectangle_15" data-name="Rectangle 15" width="1.191" height="2.264" transform="translate(62.258 16.084)" fill="#290505"></rect><path id="Path_1114" data-name="Path 1114" d="M234.419,174.619A2.924,2.924,0,0,1,231.5,171.7h1.168a1.751,1.751,0,0,0,3.5,0h1.168A2.924,2.924,0,0,1,234.419,174.619Z" transform="translate(-173.948 -151.244)" fill="#290505"></path><rect id="Rectangle_16" data-name="Rectangle 16" width="1.168" height="1.168" transform="translate(70.991 14.976)" fill="#290505"></rect><rect id="Rectangle_17" data-name="Rectangle 17" width="1.168" height="1.168" transform="translate(48.784 14.976)" fill="#290505"></rect><path id="Path_1115" data-name="Path 1115" d="M180.339,11.163H158.084a.585.585,0,0,1-.584-.584V5.147A5.156,5.156,0,0,1,162.647,0h.87V1.168h-.87a3.974,3.974,0,0,0-3.967,3.967V9.984h21.088V5.147A3.974,3.974,0,0,0,175.8,1.179h-9.936V0H175.8a5.156,5.156,0,0,1,5.147,5.147V10.58A.622.622,0,0,1,180.339,11.163Z" transform="translate(-108.764)" fill="#0d0d0d"></path><path id="Path_1116" data-name="Path 1116" d="M180.339,50.831H158.084a.585.585,0,0,1-.584-.584,5.156,5.156,0,0,1,5.147-5.147h13.141a5.156,5.156,0,0,1,5.147,5.147A.6.6,0,0,1,180.339,50.831Zm-21.624-1.168h20.993a3.977,3.977,0,0,0-3.932-3.384H162.647A3.949,3.949,0,0,0,158.715,49.663Z" transform="translate(-108.764 -39.727)" fill="#290505"></path><path id="Path_1117" data-name="Path 1117" d="M190.645,21.263h-6.779a.585.585,0,0,1-.584-.584,3.967,3.967,0,1,1,7.935,0A.567.567,0,0,1,190.645,21.263Zm-6.136-1.191H190a2.81,2.81,0,0,0-5.492,0Zm.143,33.228h0a.617.617,0,0,1-.417-.167l-6.1-6.112a.6.6,0,0,1-.155-.56.58.58,0,0,1,.393-.417,29.823,29.823,0,0,1,5.421-1.12.528.528,0,0,1,.429.143.583.583,0,0,1,.167.441v.977l3.217,3.217a.655.655,0,0,1,.155.2.567.567,0,0,1-.119.631l-2.585,2.6A.622.622,0,0,1,184.652,53.3Zm-4.968-6.41,4.98,4.992,1.763-1.763-2.943-2.99a.585.585,0,0,1-.155-.417v-.548A26.676,26.676,0,0,0,179.684,46.89Z" transform="translate(-126.79 -14.71)" fill="#0d0d0d"></path><path id="Path_1118" data-name="Path 1118" d="M222.887,261.861h0a.619.619,0,0,1-.417-.191l-2.573-2.585a.6.6,0,0,1,.024-.834l3.253-3.229v-.977a.6.6,0,0,1,.167-.441.54.54,0,0,1,.441-.143,31.118,31.118,0,0,1,5.373,1.108.58.58,0,0,1,.393.417.61.61,0,0,1-.155.56L223.3,261.67A.619.619,0,0,1,222.887,261.861Zm-1.739-3.193,1.739,1.751,4.968-4.992a26.33,26.33,0,0,0-3.6-.715v.56a.554.554,0,0,1-.155.417Zm.3,22.47h-2.24a3.709,3.709,0,0,1-3.705-3.705.585.585,0,0,1,.584-.584h8.495a.585.585,0,0,1,.584.584A3.727,3.727,0,0,1,221.445,281.138ZM216.727,278a2.544,2.544,0,0,0,2.478,1.954h2.24A2.554,2.554,0,0,0,223.923,278Z" transform="translate(-159.854 -223.259)" fill="#0d0d0d"></path><path id="Path_1119" data-name="Path 1119" d="M156,404.622H126.084a.585.585,0,0,1-.584-.584v-6.255a.585.585,0,0,1,.584-.584h3.908v1.168h-3.324v5.087h28.749v-5.087H134.674V397.2H156a.585.585,0,0,1,.584.584v6.255A.585.585,0,0,1,156,404.622Z" transform="translate(-80.577 -349.877)" fill="#0d0d0d"></path><path id="Path_1120" data-name="Path 1120" d="M221.445,401.589h-2.24a3.709,3.709,0,0,1-3.705-3.705.585.585,0,0,1,.584-.584h8.495a.585.585,0,0,1,.584.584A3.727,3.727,0,0,1,221.445,401.589Zm-4.718-3.133a2.544,2.544,0,0,0,2.478,1.954h2.24a2.554,2.554,0,0,0,2.478-1.954Z" transform="translate(-159.854 -349.965)" fill="#0d0d0d"></path><path id="Path_1121" data-name="Path 1121" d="M156.584,351.539h-1.168v-5.671H126.668v5.671H125.5v-6.255a.585.585,0,0,1,.584-.584H156a.585.585,0,0,1,.584.584Z" transform="translate(-80.577 -303.632)" fill="#0d0d0d"></path><path id="Path_1122" data-name="Path 1122" d="M149.215,134.336h-2.24a3.709,3.709,0,0,1-3.705-3.705.585.585,0,0,1,.584-.584h8.495a.585.585,0,0,1,.584.584A3.727,3.727,0,0,1,149.215,134.336Zm-4.718-3.121a2.544,2.544,0,0,0,2.478,1.954h2.24a2.554,2.554,0,0,0,2.478-1.954Zm3.6-13.213a10.116,10.116,0,0,1-10.163-9.972h-.941a3.478,3.478,0,0,1-3.491-3.515A3.544,3.544,0,0,1,137.015,101v1.168a2.35,2.35,0,0,0-1.668,4,2.256,2.256,0,0,0,1.644.667h1.525a.547.547,0,0,1,.524.6v.405a9.033,9.033,0,0,0,9.031,9.007,8.863,8.863,0,0,0,3.193-.584,9.049,9.049,0,0,0,5.886-8.423v-.405a.547.547,0,0,1,.524-.6H159.2a2.325,2.325,0,0,0,1.644-3.979,2.416,2.416,0,0,0-1.668-.691V101a3.515,3.515,0,0,1,.024,7.029h-.941A10.131,10.131,0,0,1,148.095,118Z" transform="translate(-87.623 -88.967)" fill="#290505"></path><rect id="Rectangle_18" data-name="Rectangle 18" width="1.072" height="2.383" transform="translate(50.344 16.084)" fill="#0d0d0d"></rect><rect id="Rectangle_19" data-name="Rectangle 19" width="1.072" height="2.383" transform="translate(69.526 16.084)" fill="#0d0d0d"></rect><path id="Path_1123" data-name="Path 1123" d="M226.844,237.5a.6.6,0,0,1-.417-.167l-3.372-3.4a.585.585,0,0,1-.155-.417v-4.17a.561.561,0,0,1,.226-.477.585.585,0,0,1,.524-.071,9.012,9.012,0,0,0,3.181.584,8.8,8.8,0,0,0,3.181-.584.5.5,0,0,1,.512.071.561.561,0,0,1,.226.477v4.17a.555.555,0,0,1-.155.417l-3.384,3.4A.438.438,0,0,1,226.844,237.5Zm-2.859-4.229,2.859,2.812,2.859-2.812v-3.121a10.594,10.594,0,0,1-5.719,0Z" transform="translate(-166.372 -201.508)" fill="#0d0d0d"></path><path id="Path_1124" data-name="Path 1124" d="M60.471,284.259a30.4,30.4,0,0,1-15.417-4.182A30.774,30.774,0,0,1,34.105,269.1a.57.57,0,0,1,0-.584,30.445,30.445,0,0,1,22.911-15.059.515.515,0,0,1,.429.143.583.583,0,0,1,.167.441v.977l2.859,2.812,2.859-2.812v-.977a.6.6,0,0,1,.167-.441.54.54,0,0,1,.441-.143,30.4,30.4,0,0,1,22.887,15.059.57.57,0,0,1,0,.584,30.68,30.68,0,0,1-10.949,10.973A30.33,30.33,0,0,1,60.471,284.259ZM35.309,268.807a29.293,29.293,0,0,0,50.313,0A29.288,29.288,0,0,0,64.4,254.712v.56a.555.555,0,0,1-.155.417l-3.384,3.4a.568.568,0,0,1-.405.167.617.617,0,0,1-.417-.167l-3.372-3.4a.576.576,0,0,1-.143-.417v-.56A29.355,29.355,0,0,0,35.309,268.807Z" transform="translate(0 -223.259)" fill="#0d0d0d"></path><path id="Path_1125" data-name="Path 1125" d="M141.488,138.516a30.316,30.316,0,0,1-15.226-4.087.563.563,0,0,1-.262-.5v-2.192a.558.558,0,0,1,.524-.608H156.44a.567.567,0,0,1,.536.608v2.192a.538.538,0,0,1-.262.5A30.316,30.316,0,0,1,141.488,138.516Zm-14.416-4.932a29.483,29.483,0,0,0,28.832,0V132.32H127.072ZM131.85,90.74h-1.513a.585.585,0,0,1-.584-.584V88.1h1.168v1.477h.929A1.571,1.571,0,0,0,133.422,88h1.168A2.741,2.741,0,0,1,131.85,90.74Zm20.742,0h-1.513a2.741,2.741,0,0,1-2.74-2.74h1.168a1.571,1.571,0,0,0,1.573,1.573h.929V88.1h1.168v2.061A.585.585,0,0,1,152.592,90.74Z" transform="translate(-81.017 -77.516)" fill="#0d0d0d"></path></g></g></svg>