<svg xmlns="http://www.w3.org/2000/svg" width="130.646" height="125.014" viewBox="0 0 130.646 125.014"><g id="icon" transform="translate(-495.501 -1469.506)"><g id="background" transform="translate(625.646 1470) rotate(90)"><path id="path" d="M4331.145,3918.663a56.725,56.725,0,0,1-14.888-5.933l.271.082c-.235-.124-.452-.256-.674-.388a38.9,38.9,0,0,1-8.428-3.686c-.772-.5-1.521-.981-2.24-1.445-.689-.513-1.336-1.024-1.952-1.509a21.113,21.113,0,0,1-1.638-1.5c-.493-.492-.97-.934-1.356-1.39-2.907-2.384-7-7.679-9.552-14.72l.311.754c.181.454.5,1.032.782,1.62s.585,1.168.8,1.606l.417.705a47.345,47.345,0,0,1-4.045-11.556c-.081-.341-.147-.681-.212-1.021a41.009,41.009,0,0,1-2.868-4.591c.885,1.233,1.772,2.5,2.72,3.8-.125-.724-.233-1.442-.328-2.149-.72-1.073-1.422-2.087-2.034-3.011-1.384-2.249-1.156-1.44-.906-.632.222.723.463,1.444-.409-.008.115.165-.053-.159-.383-.761-.314-.609-.72-1.535-1.187-2.513-.228-.494-.483-1-.7-1.5-.2-.513-.4-1.016-.576-1.48-.364-.925-.675-1.691-.851-2.062-.251-1.092-.255-1.568-.4-2.419-.072-.427-.173-.948-.346-1.692-.126-.751-.285-1.733-.536-3.07-.1-.444-.178-.786-.236-1.045s-.083-.439-.114-.55c-.062-.223-.1-.187-.123-.044-.057.289-.031,1-.068.889-.029-1.327-.165-2.926-.286-4.662-.022-1.737-.188-3.617-.066-5.479a32.824,32.824,0,0,1,1.393-9.3c-.212.607-.115-.057.118-1.171.354-1.265.836-3.145,1.217-4.324-.081.576.588-.89,1.187-2.162.121-.361.24-.709.36-1.049.411-1.044.811-2.033,1.241-3.2.523-1.13,1.057-2.442,1.75-4.125l.844-1.934a23.1,23.1,0,0,1,1.115-2.31l1.438-2.52a12.827,12.827,0,0,1,.837-1.289l.907-1.29.925-1.3,1.04-1.225q.526-.609,1.044-1.212a12.774,12.774,0,0,1,1.067-1.155l2.189-2.076a9.415,9.415,0,0,1,1.079-.907l1.052-.8-1.646,1.362c-.47.456-.9.879-1.316,1.279-.812.81-1.615,1.465-2.284,2.284-.695.793-1.43,1.6-2.236,2.574-.729,1.034-1.611,2.189-2.553,3.694.531-.592-.154.781-.457,1.484-.152.351-.21.535.021.229.116-.153.3-.429.589-.867l.5-.785c.2-.3.466-.627.747-1.011.616-.908,1.222-1.911,1.968-2.862.768-.936,1.567-1.9,2.4-2.871.913-.894,1.838-1.8,2.761-2.707.981-.843,2.012-1.63,3-2.425a42.011,42.011,0,0,1,6.077-3.691l1.385-.712c.443-.228.9-.382,1.311-.566.841-.336,1.575-.7,2.23-.923a4.456,4.456,0,0,0-1.923.468c-.417.162-.87.354-1.335.557s-.912.492-1.367.738c-.905.506-1.778,1-2.474,1.324-.667.378-1.156.605-1.355.481.463-.252.935-.609,1.511-.869l1.777-.881c.616-.3,1.232-.64,1.869-.917.646-.254,1.284-.507,1.9-.749,2.466-.917,4.567-1.423,4.811-1.276-.063-.047.336-.168.995-.33.595-.3,1.206-.592,1.825-.865s1.2-.56,1.809-.8l1.788-.684c1.15-.474,2.278-.762,3.219-1.076s1.757-.474,2.315-.628l.884-.219-1.208.631a27.8,27.8,0,0,1,6.3-1.643,43.082,43.082,0,0,1,9.393-.485l.237-.047-.228.049h0c-.331.066-.67.14-1.023.223.354-.083.693-.157,1.023-.223.228.012.452.02.682.035.181.012.367.031.55.045a27.189,27.189,0,0,1,6.608-.14,25.732,25.732,0,0,1,12.421,4.589c.066.017.134.031.2.05l1.7.43a53.661,53.661,0,0,1,6.5,2.3c.757.38,1.569.938,2.5,1.51.458.3.964.575,1.452.918l1.512,1.088a51.982,51.982,0,0,1,6.451,5.551c-.4-.376-.992-.85-1.638-1.417l-1.031-.893c-.366-.3-.775-.589-1.172-.893a42.414,42.414,0,0,0-4.7-3.113c-1.378-.685-2.25-1.068-2.035-.827.2.258,1.569,1.024,4.307,3.136a24.026,24.026,0,0,0-3.006-2.011c-1-.5-1.94-1.009-3.056-1.453-.556-.219-1.143-.452-1.777-.7-.318-.123-.636-.275-.986-.395l-1.1-.365-.93-.323c.131.125.265.248.395.376.225.082.458.167.674.24l1.067.375.961.423,1.78.769c.569.251,1.086.564,1.629.842s1.089.575,1.647.9l1.146.767a41.831,41.831,0,0,1,4.1,2.368l.769.491.8.59,2.519,1.811a12.858,12.858,0,0,1-2.568-1.661,25.974,25.974,0,0,0-2.5-1.613c-.493-.294-1.011-.61-1.565-.921l.9.738,1.032.866c.181.15.365.306.547.472.289.177.57.358.846.546,1.131.847,2.259,1.649,3.368,2.626l1.492,1.375c-.224-.3-.449-.61-.674-.905a11.642,11.642,0,0,1,.862,1.046l.083.107c.276.253.557.513.848.78.252.25.5.521.757.792.062-.008-.089-.266-.71-1.083l1.059,1.287c.15.2.311.422.479.656l1.331,1.384,2.168,2.542.646.636c.192.212.375.417.552.612l1.022,1.1a22.567,22.567,0,0,1,1.967,2.237c.334.435.692.909,1.083,1.451a15.608,15.608,0,0,1,1.23,1.885c.418.734.877,1.562,1.387,2.511.441.858.833,1.859,1.293,2.965-.209-.488-.495-1.13-.826-1.859l-.337-.732c-.137-.241-.276-.488-.42-.741l-.888-1.548c-.308-.517-.592-1.051-.917-1.536l-.973-1.376c-.622-.856-1.135-1.6-1.534-2.061a4.106,4.106,0,0,1,.305.452c.172.279.4.649.633,1.019l.919,1.482-2.044-2.5.188.187c-.955-1.284-1.881-2.442-2.755-3.581-.962-1.066-1.875-2.122-2.841-3.171-.235-.222-.468-.45-.7-.679.374.523.771,1.084,1.167,1.649l.433.7a47.241,47.241,0,0,1,5.5,7.438q-.456-.708-.9-1.4a14.347,14.347,0,0,0-.908-1.321l-1.771-2.291-.39-.5-.4-.43-.538-.56c.138.223.27.438.4.646.133.151.265.3.4.455q.333.439.686.907c.469.625.964,1.283,1.476,1.964s.941,1.453,1.432,2.2a46.588,46.588,0,0,1,2.637,4.749l.3.6.254.614c.167.408.334.811.5,1.208.313.8.672,1.552.913,2.3.04-.01-.168-1.641-.168-1.641.131.414.293.84.431,1.3s.254.942.388,1.439.287,1.009.438,1.538q.118.395.237.8c.073.273.119.555.183.838.229,1.135.52,2.317.75,3.552l.538,3.84a47.787,47.787,0,0,1-.984,15.917s-.016.169-.074.458l-.26,1.2c-.108.5-.234,1.074-.369,1.7-.068.311-.138.632-.21.958-.092.319-.186.646-.278.97-.395,1.294-.729,2.617-1.085,3.571s-.589,1.593-.589,1.593l.046-.265-.785,1.865c-.222.482-.39.843-.515,1.114a2.339,2.339,0,0,0-.287.822c.021.161.3-.148-.208.939-.181.2-.486.814-.925,1.48s-.914,1.437-1.3,2.04c-.771,1.208-1.145,1.755.046-.47.563-.975,1.033-1.732,1.354-2.363s.534-1.112.705-1.471a8.805,8.805,0,0,0,.491-1.178,35.569,35.569,0,0,1,1.21-3.426c-.4,1.045-.73,1.986-1.1,2.8s-.739,1.52-1.069,2.165a26.037,26.037,0,0,1-1.91,3.187l-.918,1.36c-.325.445-.684.884-1.05,1.367-.741.96-1.532,2.083-2.68,3.427a49.16,49.16,0,0,1-4.863,5.87c-.745.749-1.389,1.45-1.861,1.944-.117.195-.226.391-.344.587.1-.07.223-.15.377-.26,1.351-1.263,2.285-2.176,3.017-2.932.684-.8,1.187-1.428,1.721-2.08l.851-1.024c.288-.381.606-.8.975-1.286l1.311-1.662c.515-.63,1.021-1.417,1.671-2.3-4.114,5.979-4.924,6.457-5.048,6.867a3.86,3.86,0,0,1-.528.869,12.872,12.872,0,0,1-1.042,1.276c-.462.494-1.077,1.138-1.868,1.951.442-.467.691-.793-.433.217,0,0-.07.073-.189.2s-.3.3-.522.5l-1.163,1.061a69.366,69.366,0,0,1-5.917,8.076s-.423.438-.874.855l-.9.831s-1.764,2.131-3.779,4.08c-.973,1-2.06,1.911-2.838,2.623l-1.374,1.115a13.913,13.913,0,0,1-1.7,1.112c-.31.167-.379.168-.3.066.164-.206.938-.813,1.555-1.412.63-.583,1.16-1.091.931-1a7.685,7.685,0,0,0-1,.638c-.291.2-.637.465-1.086.76l-1.617,1.053c-1,.717-1.7,1.125-2.142,1.452a9.693,9.693,0,0,0-.809.629,4.433,4.433,0,0,1-1.014.922,18.865,18.865,0,0,1-1.995.983,27.229,27.229,0,0,1-2.761,1.1l-1.708.573c-.605.194-1.265.33-1.955.509a38.7,38.7,0,0,1-4.39.826l.112-.022.852-.172,1.236-.254c.055-.065-.366-.029-1.072.064l-1.247.178-1.541.125c-.546.041-1.114.1-1.683.127l-1.68.012c-.163,0-.323,0-.48,0-.369,0-.723,0-1.05-.02-.468-.036-.887-.075-1.232-.114-.69.041.062.188,1.275.332.606.054,1.331.063,2.042.077a13.812,13.812,0,0,0,1.965-.06,26.612,26.612,0,0,1-4.58.382A36.978,36.978,0,0,1,4331.145,3918.663Zm15.632-5.266c.595-.11,1.183-.188,1.741-.328-.558.14-1.146.218-1.741.328Zm10.787-3.832c-.9.466-1.787.987-2.753,1.38-.479.207-.955.434-1.45.633.5-.2.971-.427,1.45-.633.966-.393,1.851-.914,2.753-1.38q.208-.116.414-.237Q4357.772,3909.448,4357.564,3909.565Zm-18.709-2.781.057-.008Zm1.613-.3h0Zm2.233-.077c.487-.025.967-.048,1.429-.071-.462.023-.941.045-1.429.071Zm.328-.116q-.163.055-.292.1.13-.048.292-.1c.375-.067.751-.14,1.13-.219C4343.781,3906.148,4343.405,3906.221,4343.03,3906.287Zm-1.627.071-.1.016.1-.016.078-.018Zm21.313-.256a44.945,44.945,0,0,0,4.451-3.982h0A44.754,44.754,0,0,1,4362.716,3906.1Zm-18.1-.03.009-.007Zm-.457,0c.147,0,.3,0,.466,0C4344.462,3906.068,4344.307,3906.069,4344.16,3906.069Zm-1.583-.018.255-.068h0Zm-17.547-.715c.231.068.461.137.692.2-.231-.065-.461-.134-.692-.2l-.757-.455Zm1.221.084Zm.395-.112.022-.007-.022.007Zm20.707-.672c.1.007.2.013.333.018l.274-.1c.4-.146.956-.377,1.671-.708-.715.33-1.27.563-1.671.708l-.274.1c-.13,0-.237-.011-.333-.018Zm1.806-.195q.445-.156.871-.319-.426.162-.871.319Zm16.014-.262Zm-13.843-.971a49.985,49.985,0,0,0,4.577-2.066l0,0A50.127,50.127,0,0,1,4351.329,3903.209Zm15.233-.4.707-.73Zm-12.528-.45Zm.809-.452Zm13.07-.13Zm-12.344-.381-.06.039-.013.012.013-.012.06-.039.042-.03Zm10.139-.211.009,0,1.8-.543,1.873-.583c.085-.032.167-.064.252-.095.259-.29.529-.6.816-.933-.287.334-.558.643-.816.933-.085.031-.167.063-.252.095l-1.873.583-1.8.543-.009,0Zm4.046-1.8c-.1,0-.124-.1,0-.349C4369.63,3899.281,4369.65,3899.378,4369.754,3899.378Zm.027,0a.337.337,0,0,0,.056-.012A.337.337,0,0,1,4369.781,3899.376Zm.08-.02a2.772,2.772,0,0,0,.533-.292A2.772,2.772,0,0,1,4369.861,3899.357Zm-.082-.38a11.27,11.27,0,0,1,.827-1.234A11.27,11.27,0,0,0,4369.779,3898.977Zm-1.129-.691c.6-.328,1.219-.715,1.856-1.072l.833-.483-.833.483c-.638.357-1.261.744-1.856,1.072Zm0,0c.6-.561,1.2-1.124,1.778-1.7C4369.848,3897.162,4369.25,3897.724,4368.65,3898.286Zm1.4-.221c.2-.115.383-.22.555-.323C4370.436,3897.844,4370.253,3897.95,4370.051,3898.065Zm-61.623-1.451.137.053.011,0-.011,0-.137-.053Zm.148.056c-.147-.117-.29-.24-.437-.358C4308.287,3896.432,4308.43,3896.554,4308.577,3896.671Zm61.852-.082c.04-.024.067-.044.109-.07C4370.5,3896.545,4370.467,3896.563,4370.428,3896.589Zm1.4-.828-1.292.758,1.292-.757c.112-.073.232-.148.357-.226Zm-64.8.3c-.551-.566-.968-.948-1.1-1.07.129.121.546.5,1.1,1.069Zm-.422-.171.013.006.05.022-.05-.022-.013-.006Zm64.668-.172h0l.094-.1C4371.344,3895.653,4371.313,3895.686,4371.28,3895.719Zm.844-.054-.028.037.028-.037.116-.163Zm-.747-.047h0Zm.033-.034h0l.161-.079Zm.292-.145q.126-.066.237-.13l.011-.008C4371.874,3895.347,4371.791,3895.393,4371.7,3895.439Zm.255-.424h0q1.493-1.555,2.9-3.163Q4373.458,3893.464,4371.958,3895.015Zm1.743-1.568-.681.958.681-.958c.412-.521.868-1.138,1.346-1.811C4374.569,3892.309,4374.113,3892.927,4373.7,3893.447Zm10.112-3.161,1.694-1.624-1.694,1.624Zm13.151-19.647a35.851,35.851,0,0,1-2.843,6.165c-.322.555-.646,1.181-1.061,1.838l-1.417,2.122a27.275,27.275,0,0,1-4.108,5.678,27.343,27.343,0,0,0,4.109-5.678c.515-.772.986-1.476,1.416-2.122.415-.656.739-1.283,1.061-1.838a35.851,35.851,0,0,0,2.843-6.165l.051-.18Zm-8.184,11.616.586-.711Zm-.777-.034a14.1,14.1,0,0,0,1.354-1.364c.616-.744,1.358-1.762,2.229-2.958.439-.6.818-1.3,1.262-2.009.417-.729.924-1.46,1.312-2.3-.388.838-.9,1.568-1.312,2.3-.444.713-.823,1.412-1.262,2.009-.871,1.2-1.613,2.215-2.229,2.958A14.1,14.1,0,0,1,4388,3882.22Zm.575-1.262c.194-.248.388-.5.564-.739l1.191-1.756.842-1.24.291-.49.014,0-.016,0-.291.49c-.2.3-.493.727-.841,1.24l-1.191,1.756c-.177.244-.37.492-.564.739Zm.7-.742,1.171-1.664Zm6.218-18.036c-.116.589-.266,1.292-.439,2.068-.206.766-.431,1.6-.666,2.479a86.459,86.459,0,0,1-3.284,9.33,86.459,86.459,0,0,0,3.284-9.33c.234-.874.46-1.713.666-2.479.173-.776.324-1.479.439-2.068.239-1.143.3-1.869.2-1.869C4395.8,3860.311,4395.733,3861.037,4395.5,3862.18Zm.018,7.6a16.7,16.7,0,0,1-.769,1.934,14.049,14.049,0,0,0-.918,2.355,14.213,14.213,0,0,1,.918-2.355,16.7,16.7,0,0,0,.769-1.934c.049-.156.07-.246.056-.245C4395.583,3869.54,4395.561,3869.63,4395.513,3869.784Zm-1.409,3.9.027-.045Zm-70.319-.3,0,0a.13.13,0,0,0,.013-.079A.131.131,0,0,1,4323.786,3873.389Zm-.547-.02.1-.061-.1.061Zm.637-.052.006,0Zm-.6-.008h0Zm-1.463-2.013c.114-.033.224-.067.33-.109-.118-.012-.209-.019-.3-.028.087.009.177.015.3.028-.1.042-.216.076-.329.109Zm75.05-2.359c-.313.714-.582,1.4-.888,2.04.306-.635.575-1.325.888-2.038.3-.747.684-1.505.956-2.359-.008.022-.017.046-.027.069.01-.024.019-.047.027-.069C4397.546,3867.431,4397.159,3868.19,4396.862,3868.936Zm-74.834,1.463a4.152,4.152,0,0,1,.546-.3c.02-.1.039-.2.057-.294-.019.095-.038.191-.057.294a4.152,4.152,0,0,0-.546.3Zm.7-.015.008,0-.008,0Zm76.452-13.457c-.144.813-.278,1.576-.407,2.3-.369,1.426-.708,2.694-1.05,3.9-.412,1.181-.8,2.3-1.169,3.466-.433,1.139-.883,2.306-1.321,3.624.438-1.317.888-2.484,1.321-3.624.37-1.163.757-2.284,1.17-3.466.34-1.2.68-2.472,1.05-3.9.127-.724.262-1.486.405-2.3a20.471,20.471,0,0,0,.336-2.617A20.647,20.647,0,0,1,4399.178,3856.927Zm-76.556,13.142c.022-.01.041-.023.064-.032-.009-.036-.016-.07-.025-.108.009.038.016.073.023.108-.021.009-.04.022-.062.031Zm-4.845-.06a1.111,1.111,0,0,0,.11-.066A1.111,1.111,0,0,1,4317.777,3870.009Zm.125-.077Zm4.316-.33h0c.045-.192.091-.381.135-.571C4322.31,3869.221,4322.264,3869.41,4322.219,3869.6Zm.347-.028Zm75.1-2.666c-.232.446-.6.946-.736.945C4397.073,3867.853,4397.437,3867.354,4397.668,3866.908Zm-.746.945h0c-.036-.007-.056-.049-.057-.135C4396.866,3867.8,4396.887,3867.845,4396.922,3867.852Zm.819-1.092c.013-.027.024-.053.036-.08C4397.766,3866.707,4397.754,3866.733,4397.741,3866.76Zm-63.686-.043.028-.006Zm17.034-2.591Zm0-.049Zm-50.872-.444c-.028-.569-.108-1.123-.1-1.659-.269-.756-.083-1.509-.814-2.259.732.75.542,1.5.81,2.259,0,.526.069,1.067.1,1.625Zm99.494-4.872a11.9,11.9,0,0,1-.364,1.816c-.164.634-.36,1.307-.606,2.028.246-.72.442-1.394.606-2.028a11.9,11.9,0,0,0,.364-1.816c.141-1.165.271-2.236.407-3.361C4399.987,3856.525,4399.856,3857.6,4399.716,3858.761Zm-.507,3.716Zm-.907,0c.116-.439.22-.831.315-1.19C4398.521,3861.643,4398.417,3862.034,4398.3,3862.474Zm-98.876-1.857,0,.034,0-.034Zm.873-.677.049-.364c.023-.177.061-.375.1-.582-.027-.237-.054-.47-.074-.693.019.223.045.458.073.693-.042.208-.08.406-.1.582l-.048.361Zm-1.445-.838c.068.26.139.519.214.78-.075-.261-.146-.521-.214-.78-.005-.226-.009-.451-.009-.675C4298.844,3858.651,4298.848,3858.876,4298.853,3859.1Zm.214.78c-.033-.482-.034-.967-.058-1.461C4299.032,3858.916,4299.034,3859.4,4299.067,3859.882Zm.219-.072c0,.009,0,.017,0,.026C4299.286,3859.828,4299.286,3859.819,4299.286,3859.811Zm52.515-2.2c.1-.267.2-.529.292-.785-.092.255-.19.517-.292.785Zm45.428-1.1c.005-.028.01-.055.016-.083C4397.239,3856.46,4397.234,3856.488,4397.229,3856.516Zm.049-.261c.014-.076.028-.153.042-.229C4397.307,3856.1,4397.292,3856.178,4397.278,3856.254Zm.042-.231v0Zm.015-.082c.244-1.356.416-2.641.534-3.809C4397.752,3853.3,4397.58,3854.584,4397.336,3855.941Zm2.15-1.455a4.133,4.133,0,0,1-.36,1.449A4.136,4.136,0,0,0,4399.486,3854.486Zm-.367,1.445a.016.016,0,0,1,0-.006A.016.016,0,0,0,4399.12,3855.931Zm.065-1.314c-.021.668-.1,1.23-.067,1.308-.027-.078.046-.64.067-1.308Zm-46.54.412.147.707v0l-.148-.706Zm.247.437.006-.02Zm-63.04-.032c.042-.138.082-.28.125-.419-.044.139-.083.279-.125.417A0,0,0,0,1,4289.852,3855.433Zm62.994-.979c.022.3.045.583.07.831l.01.08a8.63,8.63,0,0,0,.252-1.021,8.63,8.63,0,0,1-.252,1.021l-.01-.08c-.024-.248-.048-.53-.07-.831Zm-63.014.868Zm-.083-1.239c.069.3.151.621.228.931-.075-.311-.158-.626-.227-.931-.041-.182-.074-.356-.113-.536C4289.676,3853.727,4289.708,3853.9,4289.75,3854.083Zm62.9.9s0,.01,0,.016S4352.646,3854.989,4352.645,3854.984Zm46.56-.728a9.011,9.011,0,0,0,.028-2.005A9.057,9.057,0,0,1,4399.205,3854.256Zm.225-7.013c.032.864-.078,1.791-.113,2.7s-.086,1.8-.2,2.6l0-.009c.114-.792.155-1.682.2-2.587s.146-1.835.114-2.7a26.84,26.84,0,0,0-.229-3.423A26.622,26.622,0,0,1,4399.43,3847.242Zm-1.536,4.643h0Zm-6.2-7.015c.113.731.245,1.458.355,2.187l.016-.166c-.1-.674-.184-1.345-.287-2.021-.283-1.169-.433-2.358-.8-3.5C4391.337,3842.512,4391.408,3843.7,4391.691,3844.87Zm6.146,1.185c.021-.1.043-.143.066-.144-.023,0-.045.045-.066.138Zm-5.776-.825a24.549,24.549,0,0,0,.112-3.479l0-.034a25.169,25.169,0,0,1-.109,3.5C4392.06,3845.226,4392.06,3845.229,4392.06,3845.229Zm-29.108-.022a.42.42,0,0,0,.109-.049A.42.42,0,0,1,4362.952,3845.207Zm36.136-1.767c.107-.775.257-1.28.463-1.28h0C4399.345,3842.16,4399.195,3842.665,4399.088,3843.44Zm-7.368-.361c0-.044,0-.088,0-.132C4391.724,3842.99,4391.723,3843.034,4391.721,3843.079ZM4368.259,3843.074Zm0,0h0Zm23.464-.047a18.949,18.949,0,0,1,.216-2.121.008.008,0,0,1,0,0A19.166,19.166,0,0,0,4391.723,3843.027Zm-22.482-.042.21-.112Zm.83-.083.033.043a.781.781,0,0,0,.088.013.781.781,0,0,1-.088-.013l-.033-.043Zm-.012-.017.065-.014-.065.014ZM4370.051,3842.876ZM4369.105,3842.832ZM4369.547,3842.821Zm30.462,0Zm-30.456-.017,0,0Zm30.428-.055-.018-.043Zm-.026-.064,0-.01Zm-30.379-.008Zm.026-.048.055-.09C4369.637,3842.567,4369.619,3842.6,4369.6,3842.626Zm.048-.292a.813.813,0,0,0,.142-.039l.006-.018-.006.018A.813.813,0,0,1,4369.65,3842.335Zm.01-.036.018-.011Zm.14-.034a.023.023,0,0,0,0-.016A.023.023,0,0,1,4369.8,3842.264Zm-.053-.013a.094.094,0,0,1,.034-.009h0A.094.094,0,0,0,4369.747,3842.251Zm21.993-.1a43.337,43.337,0,0,0-.714-7.159A43.351,43.351,0,0,1,4391.74,3842.152ZM4372.095,3841.671Zm-12.316-1.6.082-.049Zm38.244-1.046c-.008-.031-.015-.064-.023-.1C4398.007,3838.963,4398.014,3839,4398.022,3839.027Zm-67.7-1.839c.174.223.351.456.535.724l.029-.033c.1-.107.19-.218.284-.329-.094.112-.188.222-.284.329l-.029.033c-.184-.268-.36-.5-.535-.724Zm59.613.575-.015-.036.008-.054-.008.054h0Zm-22.019-.18.027-.011Zm.027-.011.068-.028Zm-36.747-.053c.127-.15.263-.294.4-.437-.136.143-.271.287-.4.437Zm67.369-.018h0Zm-8.748,0c0-.035-.006-.072-.008-.111,0,.039.005.076.008.111q-.1-.222-.224-.442.122.22.224.442Zm7.8-3.145a19.773,19.773,0,0,1,.889,2.852,19.828,19.828,0,0,0-.889-2.853c-.261-.7-.492-1.352-.8-2.019C4397.127,3833,4397.358,3833.658,4397.619,3834.354Zm-116.334,2.8c.124-.424.257-.843.393-1.257.139-.989.3-1.852.471-2.628-.172.776-.332,1.639-.471,2.628-.136.413-.269.832-.393,1.257v0Zm50.309-.074c-.279-.286-.5-.482-.608-.482C4331.089,3836.6,4331.314,3836.8,4331.593,3837.081Zm-1.567-.265.164.208c.071-.082.155-.176.253-.282-.1.106-.182.2-.253.282l-.164-.208Zm59.566.206v0Zm.211-3.357q.06.656.127,1.384c.026.73.047,1.3.062,1.737-.014-.433-.035-1.007-.062-1.737q-.067-.726-.127-1.384Zm-57.8,3.006Zm.253-.24c.07-.359.138-.713.209-1.086C4332.4,3835.718,4332.329,3836.071,4332.261,3836.43Zm65.976-.883c.054.241.109.482.16.707C4398.346,3836.029,4398.291,3835.788,4398.236,3835.547Zm-65.676.6.151-.143c.2-.192.423-.371.64-.555-.217.184-.437.363-.64.555l-.151.143Zm-.884-.208Zm58.9-.1v-.043c-.058-1.043-.217-2.61-.478-4.372C4390.364,3833.206,4390.523,3834.792,4390.578,3835.835Zm7.807-.091c-.164-.569-.356-1.268-.586-2.133l.006.027C4398.032,3834.49,4398.222,3835.181,4398.385,3835.744Zm-.938-.011-.013-.094Zm-64.879-.909c-.327.25-.635.5-.9.735-.033.027-.059.054-.09.082.032-.028.058-.054.09-.082.267-.238.575-.485.9-.735.022-.116.043-.234.064-.351C4332.611,3834.589,4332.589,3834.708,4332.567,3834.823Zm1.055-.191c-.307.3-.656.78-.289.815-.368-.036-.017-.511.289-.815l.069-.076Zm-.065.639c.325-.267.663-.521,1.012-.767-.349.245-.687.5-1.012.767Zm56.006-.2c-.062-.509-.111-1.065-.2-1.653C4389.451,3834,4389.5,3834.562,4389.563,3835.07Zm-56.69,0c.266-.18.54-.348.818-.511C4333.413,3834.72,4333.139,3834.887,4332.873,3835.067Zm-.589-.358q.174-.121.348-.237Q4332.458,3834.588,4332.284,3834.709Zm.478-.035c.282-.209.577-.419.894-.626-.317.208-.612.418-.894.626Zm58.167-.1c-.218-.96-.415-1.821-.578-2.539v-.006Zm-56.709-.05a4.311,4.311,0,0,1,.408-.342h0A4.457,4.457,0,0,0,4334.221,3834.521Zm56.853-.21c-.1-.5-.248-1.138-.427-1.84.179.7.324,1.343.425,1.839Zm-31.819-.439.581.385c.031-.232.061-.456.089-.675-.029.219-.059.443-.089.675l-.581-.385Zm-25.611.172c-.067-.018-.15-.035-.246-.052h0C4333.494,3834.009,4333.576,3834.027,4333.643,3834.044Zm-.218-.071Zm57.314-.4q.021.071.041.133-.02-.063-.041-.133Zm-30.815.009c-.025-.1-.049-.175-.072-.251C4359.875,3833.407,4359.9,3833.486,4359.924,3833.582Zm-.313-.409c-.04.129-.077.264-.125.379h0c.046-.116.083-.25.125-.378-.069-.044-.137-.088-.206-.135h0Zm-25.149.375.1-.058Zm54.6-.115Zm.3-.017c-.121-.584-.247-1.2-.377-1.831C4389.117,3832.216,4389.244,3832.832,4389.365,3833.417Zm-43.748-.156.009-.007Zm44.152-.006,0-.018c-.02-.063-.04-.125-.059-.19v0C4389.728,3833.118,4389.75,3833.185,4389.769,3833.255Zm-44.077-.059Zm13.813-.687.116.09-.116-.09Zm30.082-.088c.009.055.021.112.031.166-.01-.054-.022-.111-.031-.166Zm1.06.05c-.123-.493-.274-1.009-.435-1.521,0,0,0,0,0,.006C4390.373,3831.466,4390.524,3831.98,4390.646,3832.471Zm-.224-.177Zm-.08-.3v0l-.021-.075Zm-1.938-2.176c.16,1.073.322,2.144.322,2.144,0-.016,0-.032,0-.047-.032-.219-.171-1.157-.311-2.1-.058-.375-.136-.744-.207-1.072-.011-.023-.009-.049-.02-.073.008.049.017.1.025.149C4388.277,3829.132,4388.353,3829.473,4388.4,3829.82ZM4390.322,3831.917Zm0,0-.005-.024Zm5.823-.1q-.275-1.076-.607-2.142Q4395.871,3830.736,4396.145,3831.812Zm0,0c-.111-.552-.239-1.1-.372-1.656C4395.906,3830.709,4396.034,3831.261,4396.145,3831.812Zm-7.729-2.51c.224.754.424,1.523.572,2.283-.148-.761-.347-1.53-.571-2.283-.016-.039-.03-.077-.046-.116a.014.014,0,0,1,0,0C4388.387,3829.228,4388.4,3829.265,4388.416,3829.3Zm-28.44,2.1c.019-.143.034-.3.05-.443-.016.148-.031.3-.05.443Zm.05-.443c-.02-.056-.037-.113-.058-.168v0C4359.988,3830.845,4360.005,3830.9,4360.025,3830.956Zm28.9-.055c-.033-.225-.091-.452-.147-.678C4388.837,3830.448,4388.9,3830.675,4388.928,3830.9Zm1.069-.147c-.06-.232-.108-.433-.136-.58C4389.887,3830.32,4389.937,3830.521,4390,3830.753Zm-.027-.167-.109-.413Zm-1.576-2.511a21.042,21.042,0,0,1,.769,2.293,21.042,21.042,0,0,0-.769-2.293Zm1.451,1.765c-.1-.3-.208-.586-.308-.858C4389.638,3829.255,4389.742,3829.543,4389.845,3829.841Zm-1.126-2.944c.091.228.41,1.048.818,2.086l-.816-2.086c-.179-.317-.387-.668-.606-1.028C4388.333,3826.228,4388.542,3826.58,4388.719,3826.9Zm-.437,1.209Zm0,0c-.005-.029-.01-.056-.014-.08C4388.271,3828.05,4388.276,3828.077,4388.282,3828.106Zm-37.992-.144.134-.039Zm38.028-.05c-.028-.052-.047-.075-.057-.069h0C4388.275,3827.842,4388.293,3827.865,4388.318,3827.912Zm-.236-.317Zm-29.889-1.369c.049.288.084.557.1.8.049-.193.1-.391.147-.583-.051.19-.1.389-.147.583-.021-.241-.056-.51-.1-.8Zm.252.215-.027-.042Zm-.118-.156-.023-.021Zm-.125-.061h0Zm29.971-.111Zm-.029-.121-.005-.023-.023-.1.023.1-.024-.1Zm-.03-.124c-.234-.386-.485-.78-.755-1.172C4387.627,3825.088,4387.879,3825.482,4388.114,3825.868Zm-56.04-.485Zm.359-.147-.058.022.059-.022c.134-.056.274-.106.415-.156C4332.707,3825.13,4332.568,3825.179,4332.433,3825.236Zm.4-.159c-.071-.018-.135-.03-.2-.046h0C4332.7,3825.047,4332.766,3825.059,4332.836,3825.077Zm21.327-1.682c.082-.188.164-.365.243-.533-.08.168-.161.344-.244.531ZM4354.48,3823.365Zm-.509-.451.009.01Zm.2-.422a.662.662,0,0,1-.073.359.491.491,0,0,0,.135.02.484.484,0,0,1-.134-.02.681.681,0,0,0,.073-.359l-.071-.108h0Zm.75.175Zm.351-1.04.029-.013Zm-.25-.059.044.015c.06-.107.117-.211.175-.312h0c-.058.1-.115.2-.174.312l-.044-.015Zm.389.007a.754.754,0,0,1,.2-.029h0A.754.754,0,0,0,4355.41,3821.575Zm.262-.025.094-.139-.094.139Zm-.031,0Zm-.746-.014h0Zm-.311-.086Zm-.242-.067c.073.019.144.041.217.06C4354.486,3821.42,4354.416,3821.4,4354.342,3821.379Zm.244.026.009-.015h0A.113.113,0,0,1,4354.586,3821.405Zm1.1-.024c-.071-.027-.142-.054-.213-.079Zm-.242-.008.014-.076Zm0,0c.008-.021.021-.049.029-.071C4355.465,3821.324,4355.451,3821.352,4355.444,3821.373Zm-.605-.042a.089.089,0,0,1-.03-.071A.089.089,0,0,0,4354.839,3821.331Zm.018-.249Zm0,0c-.113-.034-.226-.064-.339-.1C4354.63,3821.018,4354.744,3821.048,4354.856,3821.082Zm-16.575-.362Zm.094-.023h0Zm47.988-9.91c-.046-.04-.089-.083-.136-.123C4386.274,3810.705,4386.317,3810.747,4386.363,3810.787Zm-.757,0q-.161-.138-.323-.274Q4385.446,3810.644,4385.606,3810.782Zm-.646-.76-.023-.022.023.022Zm-.625-.908c-.331-.266-.662-.547-1.013-.815C4383.673,3808.568,4384,3808.847,4384.335,3809.114Zm-1.013-.815-1.124-.774Zm-.92-.279c-.147-.166-.3-.321-.452-.482C4382.1,3807.7,4382.255,3807.854,4382.4,3808.02Zm.246-.125-.45-.37Zm-65.258-.007Zm3.239-2.391c-.09.161-.175.321-.263.481.087-.16.173-.319.263-.481.012-.022.027-.045.039-.067h0C4320.655,3805.452,4320.641,3805.475,4320.628,3805.5Zm59.774.181a0,0,0,0,0,0,0,0,0,0,0,1,0,0c-.061-.064-.125-.119-.187-.181C4380.278,3805.559,4380.342,3805.614,4380.4,3805.678Zm-61.266-.1,1.5-.442c.091-.023.17-.045.237-.064.021-.037.042-.072.062-.108-.02.036-.041.072-.062.108-.067.019-.146.041-.237.064l-1.5.442Zm1.271-.1h0l-.034-.156Zm58.738-.75q.226.131.444.262-.219-.131-.444-.262c-.458-.4-.886-.755-1.238-1.045C4378.26,3803.972,4378.688,3804.325,4379.146,3804.727Zm-32.752,114.266c-.168.032-.277.043-.277.043Zm37.968-27.765c-.1.11-.216.227-.326.336Zm-102.291-59.88c.076-.042-.072.464-.3,1.15A9.363,9.363,0,0,1,4282.071,3831.347Zm118.876-1.645c.061.144.116.274.163.389Q4401.027,3829.894,4400.948,3829.7Zm-57.51-39.578-.132.027Z" transform="translate(-4279 -3790)" fill="#e80000" stroke="rgba(0,0,0,0)" stroke-miterlimit="10" stroke-width="1"></path></g><g id="icon-2" data-name="icon" transform="translate(528 1498.976)"><path id="path-2" data-name="path" d="M6.215,12a2.188,2.188,0,0,0-2.188,2.648L9.891,41.825a6.564,6.564,0,0,0,6.433,5.186h13.96V12Zm47.7,14.661,2.626-12.013A2.188,2.188,0,0,0,54.354,12H30.284V47.011h7.746a13.129,13.129,0,1,0,15.886-20.35Z" transform="translate(2.35 11.852)" fill="#f9a825"></path><path id="path-3" data-name="path" d="M7.47,9a5.47,5.47,0,0,0,0,10.941H32.634V9ZM57.8,9H32.634V19.941H57.8A5.47,5.47,0,1,0,57.8,9Z" transform="translate(0 8.288)" fill="#ffee58"></path><path id="path-4" data-name="path" d="M43.56,3.569a5.6,5.6,0,0,0-7.724,0L21.941,17.288l-7.287,7.2L11,28.229H26.711l.656-.635L37.586,17.288l5.974-5.974a5.492,5.492,0,0,0,0-7.746ZM40.453,8.207l-9.059,9.081-6.564,6.564h-3.3l6.564-6.564L38.833,6.676a1.094,1.094,0,1,1,1.532,1.532Z" transform="translate(10.693 0)" fill="#f57f17"></path><circle id="path-5" data-name="path" cx="13.129" cy="13.129" r="13.129" transform="translate(37.011 36.982)" fill="#ff6f00"></circle><path id="path-6" data-name="path" d="M26.584,32.147a2.188,2.188,0,0,1-1.532-.635l-3.435-3.37a2.189,2.189,0,0,1,3.063-3.129l1.882,1.838L30.5,22.8a2.19,2.19,0,0,1,3.151,3.042L28.16,31.49a2.188,2.188,0,0,1-1.554.656Z" transform="translate(22.527 23.894)" fill="#f9a825"></path><path id="path-7" data-name="path" d="M13.376,20.376H11.188a2.188,2.188,0,0,1,0-4.376h2.188a2.188,2.188,0,1,1,0,4.376ZM22.129,16H19.941a2.188,2.188,0,1,0,0,4.376h2.188a2.188,2.188,0,1,0,0-4.376Zm8.753,4.376H28.693a2.188,2.188,0,0,1,0-4.376h2.188a2.188,2.188,0,0,1,0,4.376ZM13.376,26.941H11.188a2.188,2.188,0,0,1,0-4.376h2.188a2.188,2.188,0,1,1,0,4.376Zm8.753-4.376H19.941a2.188,2.188,0,1,0,0,4.376h2.188a2.188,2.188,0,1,0,0-4.376Z" transform="translate(8.317 16.605)" fill="#fdd835"></path><path id="path-8" data-name="path" d="M6.215,12a2.188,2.188,0,0,0-2.188,2.648L9.891,41.825a6.564,6.564,0,0,0,6.433,5.186h13.96V12Z" transform="translate(2.35 11.852)" fill="#fbad41"></path><path id="path-9" data-name="path" d="M39.632,26.661l2.626-12.013A2.188,2.188,0,0,0,40.07,12H16V47.011h7.746a13.129,13.129,0,1,0,15.886-20.35Z" transform="translate(16.634 11.852)" fill="#fbad41"></path><path id="path-10" data-name="path" d="M7.47,9a5.47,5.47,0,0,0,0,10.941H32.634V9Z" transform="translate(0 8.288)" fill="#e9eeb8"></path><path id="path-11" data-name="path" d="M41.164,9H16V19.941H41.164A5.47,5.47,0,1,0,41.164,9Z" transform="translate(16.634 8.288)" fill="#e9eeb8"></path><path id="path-12" data-name="path" d="M43.56,3.569a5.6,5.6,0,0,0-7.724,0L21.941,17.288l-7.287,7.2L11,28.229H26.711l.656-.635L37.586,17.288l5.974-5.974a5.492,5.492,0,0,0,0-7.746ZM40.453,8.207l-9.059,9.081-6.564,6.564h-3.3l.416-.416,6.236-6.149L38.921,6.676a1.094,1.094,0,1,1,1.532,1.532Z" transform="translate(10.693 0)" fill="#290505"></path><path id="path-13" data-name="path" d="M13.129,0A13.129,13.129,0,1,1,0,13.129,13.129,13.129,0,0,1,13.129,0Z" transform="translate(37.011 36.982)" fill="#e9eeb8"></path><path id="path-14" data-name="path" d="M26.584,32.147a2.188,2.188,0,0,1-1.532-.635l-3.435-3.37a2.189,2.189,0,0,1,3.063-3.129l1.882,1.838L30.5,22.8a2.19,2.19,0,0,1,3.151,3.042L28.16,31.49a2.188,2.188,0,0,1-1.554.656Z" transform="translate(22.527 23.894)" fill="#e80000"></path><path id="path-15" data-name="path" d="M13.376,20.376H11.188a2.188,2.188,0,0,1,0-4.376h2.188a2.188,2.188,0,1,1,0,4.376ZM22.129,16H19.941a2.188,2.188,0,1,0,0,4.376h2.188a2.188,2.188,0,1,0,0-4.376Z" transform="translate(8.317 16.605)" fill="#e9eeb8"></path><path id="path-16" data-name="path" d="M21.376,20.376H19.188a2.188,2.188,0,0,1,0-4.376h2.188a2.188,2.188,0,0,1,0,4.376Z" transform="translate(17.822 16.605)" fill="#e9eeb8"></path><path id="path-17" data-name="path" d="M13.376,23.376H11.188a2.188,2.188,0,1,1,0-4.376h2.188a2.188,2.188,0,1,1,0,4.376ZM22.129,19H19.941a2.188,2.188,0,1,0,0,4.376h2.188a2.188,2.188,0,1,0,0-4.376Z" transform="translate(8.317 20.17)" fill="#e9eeb8"></path><path id="path-18" data-name="path" d="M21.941,9V19.941H11L14.742,16.2Z" transform="translate(10.693 8.288)" fill="#290505"></path></g></g></svg>