<svg xmlns="http://www.w3.org/2000/svg" width="127.666" height="125.028" viewBox="0 0 127.666 125.028"><g id="Group_1227" data-name="Group 1227" transform="translate(-897.5 -1469.472)"><g id="background" transform="translate(604.341 1048.677)"><path id="bg" d="M4207.52,4334.386l1.38-.127c.5-.032.869-.1.949.1a5.02,5.02,0,0,1-.72.215c-.454.105-1.075.2-1.69.31l-2.466.434c-.111.006-.2.008-.279.008C4203.452,4335.323,4206.651,4334.614,4207.52,4334.386Zm24.086-.752a35.3,35.3,0,0,1-10.606-4.411c-.692-.181.068.257.839.694,1.013.576,2.042,1.151-.211.317-.977-.476-1.956-1-2.933-1.558l-.853.157h0a4.187,4.187,0,0,1-.928,1.021,7.01,7.01,0,0,1-1.929,1.161c-.739.324-1.513.64-2.244.993a15.453,15.453,0,0,0-2.14,1.015l.492-.087-1.995.571c-.642.141-1.215.188-1.71.274l-2.494.376-.562.077c-.092,0-.195.048-.282.017l-.251-.177-1.112-.812-1.375-1.05a15.176,15.176,0,0,1-1.657-1.416c.3-.675.794-.539,1.612-.109a33.738,33.738,0,0,0,3.188,1.579c-.992-.646-2.021-1.363-3.04-2.113-.993-.842-1.745-1.524-2.6-2.361-.59-.616-1.156-1.272-1.723-1.926a5.54,5.54,0,0,1-.66-.188,10.951,10.951,0,0,1-1.151-.611c-.176-.112-.362-.228-.549-.347l1.04,1.8c-1.028-1.114-1.4-1.059-1.673-1-.211.043-.361.087-.706-.418l.908-.662a9.8,9.8,0,0,1-1.594-1.238,21.778,21.778,0,0,1-2.215-2.355,10.752,10.752,0,0,1-1.241-2.167,4.883,4.883,0,0,1-2.628-.979c-.019.144-.035.295-.052.445-.063.613-.127,1.224-.127,1.224a3.191,3.191,0,0,1-.314-2.026,18.931,18.931,0,0,1-3.219-3.324c-.9-1.142-1.6-2.3-2.276-3.053-.618-.722-1.091-1.178-1.558-1.027a2.847,2.847,0,0,0-.764-2.515l-.042,1.076a5.327,5.327,0,0,1-1.4-4.342c.179-1.092.539-1.956-.168-3.243-.366.157-.218,1.06-.5,1.67a15.431,15.431,0,0,1-.772-2.159,19.313,19.313,0,0,1-.293-5.956c0-.074.012-.146.014-.22-1.2-3.3-2.132-6.76-2.906-9.8-.133.062-.113.734.006,1.763q-.354-1.756-.7-3.471c-.217-1.142-.3-2.292-.451-3.416-.349-2.248-.31-4.472-.436-6.639a66.929,66.929,0,0,1,1.131-12.527,65.915,65.915,0,0,1,3.254-11.6,60.832,60.832,0,0,1,5.5-10.675c-.936.49-1.792.055-5.9,8.515q.49-1.339,1.064-2.771c.41-.941.923-1.878,1.423-2.856a50.708,50.708,0,0,1,3.672-5.925,54.381,54.381,0,0,1,11.171-11.1,58.828,58.828,0,0,1,15.07-7.926,71.425,71.425,0,0,1,16.734-3.644l-1.71-.324,1.98-.053c1.186-.061,2.765,0,4.337.048s3.131.238,4.3.32c1.164.129,1.937.253,1.937.253-2.5-.506-.823-.7-.887-1.1a70.829,70.829,0,0,1,22.433,4.967,1.29,1.29,0,0,1-.216-.375s.363.159.907.4,1.261.558,1.962.936l2.777,1.447a.112.112,0,0,1-.007.027c1.454.741,2.873,1.514,4.221,2.351a58.2,58.2,0,0,1,11.679,9.271,39.638,39.638,0,0,1,5.868,7.659c-.067-.41,1.106.718,1.974,1.574.608.571,1.1.977,1.023.556a13.276,13.276,0,0,0-1.78-3.187,66.21,66.21,0,0,1,7.722,14.326,78.726,78.726,0,0,1,2.843,8.8,77.413,77.413,0,0,1,1.715,9.294,65.663,65.663,0,0,1-.514,19.081,56.189,56.189,0,0,1-2.417,9.173c-.478,1.494-1.14,2.919-1.728,4.354-.7,1.384-1.309,2.8-2.1,4.1l.118-.363-.118.363c-.586,1.034-1.117,1.991-1.75,2.91l-.64.913c-.37.557-.917,1.259-1.474,1.953-1.072,1.421-2.281,2.723-2.281,2.723s1.209-1.3,2.282-2.723c.556-.694,1.1-1.4,1.473-1.953l.64-.913a50.077,50.077,0,0,1-19.315,17.653,28.59,28.59,0,0,1-2.511,2.253,23.75,23.75,0,0,1-5.7,3.3c-.155-.277-1.872.331-4.687,1.062a53.569,53.569,0,0,1-11.12,1.718q-1,.046-2.03.046A47.168,47.168,0,0,1,4231.606,4333.634Zm-27.779-2.891a6.846,6.846,0,0,0,.82,1.093c.326.117.659.223,1.011.317a12.5,12.5,0,0,0,2.4.4,11.613,11.613,0,0,0,3.067-.369,14.221,14.221,0,0,0,3.8-1.5,14.221,14.221,0,0,1-3.8,1.5,11.609,11.609,0,0,1-3.067.368,12.391,12.391,0,0,1-2.4-.394c-.352-.095-.685-.2-1.011-.318a6.858,6.858,0,0,1-.82-1.092c-.351-.611-.259-.825.041-.825h0C4203.567,4329.918,4203.476,4330.132,4203.827,4330.743Zm9.956-.87a14.442,14.442,0,0,1-2.009.981c-.245.092-.347.144-.344.163,0-.02.1-.071.344-.163a14.333,14.333,0,0,0,2.009-.981l.787-.448Zm20.942.831a10.259,10.259,0,0,1-1.663-.45A10.259,10.259,0,0,0,4234.725,4330.7Zm-21.887-.064.16-.05Zm2.095,0c.038-.255-.151-.351-.458-.352C4214.781,4330.288,4214.971,4330.383,4214.933,4330.638Zm-1.924-.051.025-.008Zm.209-.062.03-.009Zm.06-.017a4.889,4.889,0,0,1,1.191-.222h0A4.889,4.889,0,0,0,4213.277,4330.508Zm2.612-.735a1.78,1.78,0,0,1-1.078.529A1.78,1.78,0,0,0,4215.889,4329.772Zm-9.618.119c.258.03.526.059.787.076a5.39,5.39,0,0,0,1.238-.129,5.39,5.39,0,0,1-1.238.129c-.261-.018-.529-.046-.787-.076ZM4214.173,4329.906Zm-7.9-.015,1.136-.222Zm9.655-.152c.284-.238.575-.5.872-.727C4216.5,4329.243,4216.21,4329.5,4215.926,4329.739Zm27.229-.391a53.518,53.518,0,0,0,14.023-.6c.477-.119,1.1-.373,1.85-.625a24.584,24.584,0,0,0,2.469-.965,36.937,36.937,0,0,0,5.157-2.673c.752-.488,1.439-.927,1.973-1.331a10.449,10.449,0,0,0,1.135-1c.184-.2.234-.33.121-.358.112.028.062.154-.121.357a10.423,10.423,0,0,1-1.135,1.005c-.533.4-1.221.842-1.973,1.33a36.849,36.849,0,0,1-5.158,2.674,24.106,24.106,0,0,1-2.468.964c-.748.254-1.373.508-1.851.627a53.52,53.52,0,0,1-14.018.6Zm-3.111-.366c.746.11,1.48.184,2.214.264.9-.021,1.707-.084,1.7-.051.014-.034-.8.029-1.7.049-.734-.078-1.468-.152-2.212-.263Zm4.173-.9.22.01a3.368,3.368,0,0,1,.529.048,3.194,3.194,0,0,0-.529-.048l-.22-.01Zm7.959-1.194.071-.024Zm.187-.063.161-.055Zm.257-.088.023-.008Zm.056-.02.019-.007Zm.056-.02h0Zm.265-.095.028-.01Zm6.546-2.981c.137-.057.287-.105.42-.165.888-.369,1.718-.7,2.511-1.112.665-.334,1.348-.654,2.036-1.035-.688.38-1.372.7-2.037,1.034-.792.417-1.623.744-2.511,1.113-.132.059-.283.108-.419.165Zm-65.812-.862a8.631,8.631,0,0,0,1.17.378,8.631,8.631,0,0,1-1.17-.378c-1.2-.593-2.437-1.5-2.531-2.3C4191.292,4321.26,4192.532,4322.169,4193.73,4322.762Zm71.483.344Zm.32-.206c6.244-4.047,10.709-8.417,9.974-9.162C4276.241,4314.483,4271.777,4318.854,4265.534,4322.9Zm.928-2.681c.4-.232.805-.474,1.23-.757a48.108,48.108,0,0,0,7.574-5.828,48.108,48.108,0,0,1-7.574,5.828C4267.267,4319.745,4266.861,4319.987,4266.461,4320.219Zm3.542-3.5c-1.152,1.185-2.286,2.417-3.237,3.227l-.306.269.307-.269c.95-.811,2.083-2.042,3.236-3.226.973-1.181,2.018-2.294,2.693-3.277C4272.022,4314.43,4270.977,4315.544,4270,4316.724Zm-30.924,1.006.074,0-.074,0c0-.006,0-.013,0-.021S4239.08,4317.724,4239.08,4317.73Zm-1.918-.153c.543.073,1.132.122,1.763.148-.631-.027-1.22-.076-1.763-.148Zm1.9-.1.021-.037h0Zm-51.4-.32,1.548-.1a4.625,4.625,0,0,1-1.694-2.656,4.621,4.621,0,0,0,1.693,2.656l-1.547.1Zm54.476-.441h0Zm-.08,0-.379,0Zm-.535,0-.208,0Zm-.33-.005Zm1.981-.005q.482-.013.956-.038Q4243.66,4316.687,4243.178,4316.7Zm-4.286-.076c.391.028.759.025,1.141.043a1.988,1.988,0,0,1,.445-.016,1.993,1.993,0,0,0-.445.015c-.381-.019-.749-.015-1.139-.043Zm1.693.036Zm-.036,0h0Zm-.036,0h0Zm3.856,0,.178-.011Zm-.655-.644a1.752,1.752,0,0,1,.833.633,1.749,1.749,0,0,0-.832-.633,9.508,9.508,0,0,0-1.9-.27A9.493,9.493,0,0,1,4243.715,4316Zm-2.748.226,0,0Zm.007-.008a4.919,4.919,0,0,0,.378-.508h0A4.8,4.8,0,0,1,4240.974,4316.222Zm-53.477-.014-.6-2.5-.008-.044.008.044.6,2.5a19.1,19.1,0,0,1-1.207-2.385c-.114-.292-.217-.588-.323-.886.106.3.208.594.323.887a19.017,19.017,0,0,0,1.207,2.384Zm54.041-.455v0Zm-1.142-.057h0Zm.146,0h0Zm-53.812-.472c.081.1.16.2.236.3-.076-.1-.155-.2-.236-.3Zm18.914-.923c.029.018.054.03.086.048.3.175.65.411,1.027.669-.376-.259-.728-.5-1.027-.669-.032-.018-.057-.03-.086-.048-.146-.222-.292-.448-.441-.684C4205.353,4313.852,4205.5,4314.079,4205.644,4314.3Zm-6.285-.25c.535.319,1.058.611,1.562.883-.5-.272-1.026-.564-1.562-.883Zm-11.516.2Zm-.122-.055a4.182,4.182,0,0,1-.759-.473,4.214,4.214,0,0,0,.755.472Zm11.7-.341a.686.686,0,0,0-.026-.168A.686.686,0,0,1,4199.423,4313.857Zm85.183-.305c.085-.093.187-.208.3-.34C4284.792,4313.344,4284.691,4313.458,4284.605,4313.552Zm-99.244-.206.012.02-.012-.02Zm.6-.409a.451.451,0,0,0-.18-.053A.451.451,0,0,1,4185.967,4312.937Zm-.228-.051.036,0h0Zm40.332-.219Zm-.057,0a2.986,2.986,0,0,1-.39-.031A2.986,2.986,0,0,0,4226.014,4312.667Zm.2,0Zm-.013-.016a1.069,1.069,0,0,0-.58-.3h0A1.073,1.073,0,0,1,4226.2,4312.648Zm-.747-.044.033.007Zm49.918-1.883-1.337.8,1.337-.8a12.657,12.657,0,0,0,1.288-.851A12.541,12.541,0,0,1,4275.374,4310.721Zm-28.65-.041c.673-.121.891-.275.89-.431,0,.155-.216.31-.89.431Zm-.03-.072a.229.229,0,0,0,.009.022l-.009-.022Zm29.984-.749c.55-1.333,1.1-2.537,1.67-3.663C4277.777,4307.322,4277.227,4308.526,4276.677,4309.859Zm-58.871-.358.245.156c-.083-.052-.164-.1-.244-.156Zm30.639-.477a.421.421,0,0,0,.164-.151.412.412,0,0,1-.161.149Zm33.574-.6q.169-.224.335-.45Q4282.188,4308.2,4282.019,4308.422Zm-83.265-.824-.719-.91Zm0,0c-.081-.146-.151-.3-.232-.442C4198.6,4307.3,4198.674,4307.452,4198.754,4307.6Zm56.947-.119c.83-.425,1.591-.927,2.326-1.216-.735.29-1.5.791-2.326,1.216Zm1.383-1.344a4.008,4.008,0,0,0-1.293,1.172,4,4,0,0,1,1.294-1.172c.19-.145.4-.287.624-.43C4257.487,4305.849,4257.275,4305.991,4257.084,4306.136Zm22.8-3.236c-.539,1.028-.934,2.147-1.513,3.244.579-1.1.975-2.215,1.514-3.243,1.115-2.083,2-4.153,3.08-6.369C4281.893,4298.747,4281,4300.817,4279.888,4302.9Zm-21.018,2.088Zm.509-.311Zm3.466-4.175.492-.369.266-.23c.012-.068.025-.136.038-.2h0c-.013.069-.026.135-.038.2l-.266.23-.492.369Zm1.434-1.219c.115-.177.229-.357.338-.54-.11.183-.223.362-.338.54Zm23.348-4.734a23.823,23.823,0,0,1-1.455,4.226,23.823,23.823,0,0,0,1.455-4.226,4.893,4.893,0,0,0,.179-1.2A4.9,4.9,0,0,1,4287.628,4294.549Zm-.881,3.071-.563,1.133.564-1.133c.169-.316.346-.689.527-1.093C4287.094,4296.932,4286.917,4297.3,4286.747,4297.621Zm-95.165.9c-.3-.647-.543-1.172-.738-1.61C4191.039,4297.348,4191.278,4297.872,4191.582,4298.52Zm97.807-7.4-.439,1.233c-.228.635-.506,1.453-.853,2.272.347-.819.625-1.638.854-2.272l.439-1.233-1.2-.807a8.376,8.376,0,0,0-.486,2.1,8.376,8.376,0,0,1,.486-2.1Zm-14.438-.332a1.164,1.164,0,0,0,.066.159,1.617,1.617,0,0,0,.075.237,34.933,34.933,0,0,0,1.235-3.287,35.037,35.037,0,0,1-1.235,3.287,1.617,1.617,0,0,1-.075-.237,1.247,1.247,0,0,1-.066-.159Zm-.125-.485a1.348,1.348,0,0,0,.107.445,1.121,1.121,0,0,0,.119-.091.992.992,0,0,1-.119.09,1.334,1.334,0,0,1-.107-.444Zm-58.205-1.144h0a.672.672,0,0,1-.385-.156A.678.678,0,0,0,4216.62,4289.155Zm5.19-.59c.042.044.085.09.126.136.127.021.254.039.384.05l.128-.058-.128.058c-.129-.011-.257-.029-.384-.051Zm-6.191-.348c.087.145.168.269.244.374-.076-.1-.157-.229-.244-.375Zm36.041-1.26c.122.384.245.779.373,1.179l.013,0a8.991,8.991,0,0,1,2.07-2.135c.088-.079.173-.162.256-.246-.083.084-.168.167-.256.246a8.991,8.991,0,0,0-2.07,2.135l-.013,0c-.128-.4-.251-.794-.373-1.18Zm-31.639.816.005.005,0,0,0,0Zm0,0h.011Zm-.056-.058.176-.042a.951.951,0,0,1,.3-.187.951.951,0,0,0-.3.187l-.176.042Zm-.519-.64Zm-.489-.244h0a5.031,5.031,0,0,1-.552-.285A5.122,5.122,0,0,0,4218.957,4286.832Zm-.63-.165c.061.044.124.087.184.131l.02,0-.02,0c-.06-.044-.123-.087-.184-.131l-.011-.166Zm34.547-.224a15.2,15.2,0,0,0,1.58-.777h0A15.182,15.182,0,0,1,4252.875,4286.442Zm23.9-.075a35.067,35.067,0,0,0,.749-3.559,35.335,35.335,0,0,1-.749,3.559c-.016-.043-.032-.085-.048-.126C4276.742,4286.282,4276.758,4286.324,4276.774,4286.367Zm-.052-.137c-.1-.259-.22-.469-.347-.511C4276.5,4285.761,4276.618,4285.971,4276.722,4286.23Zm-2.5-.138a.716.716,0,0,1,.229-.085l.019-.117-.019.117a.716.716,0,0,0-.229.085Zm1.86-.152.022-.039-.022.039Zm-20.654-.423c.057.3.294.327.606.226.181-.3.312-.541.312-.541s-.131.244-.312.541c-.312.1-.549.07-.605-.226Zm20.857.2a.146.146,0,0,1,.045-.007h0A.146.146,0,0,0,4276.284,4285.718Zm-59.551-.509a4.941,4.941,0,0,1,.371.363l.006-.035-.006.035a4.941,4.941,0,0,0-.371-.363c-.138-.117-.215-.111-.217.02,0-.068.023-.1.063-.1A.284.284,0,0,1,4216.732,4285.209Zm-.863-.233c.054.028.11.061.164.089.167.123.339.231.509.349-.17-.118-.343-.226-.509-.349-.054-.028-.11-.061-.164-.089Zm38.121.138a2.28,2.28,0,0,0,.373-.13,2.28,2.28,0,0,1-.373.13Zm-38.12-.194a1.415,1.415,0,0,0-.05-.375A1.415,1.415,0,0,1,4215.871,4284.921Zm40.332-.122c0-.115.021-.224.021-.311C4256.223,4284.575,4256.2,4284.684,4256.2,4284.8Zm18.3-.061.02-.02-.02.02Zm0-.01c0-.04-.006-.08-.006-.12C4274.5,4284.649,4274.507,4284.688,4274.506,4284.729Zm.02-.01c-.009-.046-.018-.094-.024-.141C4274.508,4284.626,4274.517,4284.673,4274.526,4284.719Zm-59.609-.408c-.06-.115-.137-.27-.23-.462C4214.779,4284.041,4214.856,4284.2,4214.917,4284.311Zm61.966-.1a17.289,17.289,0,0,0,.292-2.162A17.289,17.289,0,0,1,4276.883,4284.208Zm-62.89-.224c.125.065.253.125.376.191-.123-.067-.251-.126-.376-.191Zm1.1.123.016-.015Zm20.857-.176c.194.012.388.025.614.058C4236.338,4283.955,4236.144,4283.942,4235.95,4283.93Zm-1.2.02c.146-.016.295-.028.456-.034l0-.034.008-.006-.008.006,0,.034c-.161.006-.31.019-.456.034Zm52.095-5.185a31.4,31.4,0,0,1-.266,5.17,31.294,31.294,0,0,0,.266-5.17c0-.15.008-.286.006-.438l0,.01,0-.01C4286.851,4278.479,4286.839,4278.615,4286.843,4278.765Zm-52.074,4.68c.28-.282.538-.544.757-.771-.22.227-.478.489-.757.77Zm3.092-2c-.5.52-1.013,1.006-1.459,1.41a1.38,1.38,0,0,0-.905.578,1.38,1.38,0,0,1,.905-.578c.446-.4.962-.89,1.459-1.41.112-.105.218-.218.322-.329C4238.079,4281.223,4237.973,4281.335,4237.861,4281.44Zm-3.09,1.962c0-.008,0-.017,0-.025C4234.771,4283.386,4234.771,4283.395,4234.771,4283.4Zm-20.208-.655c.036.042.07.084.108.126.112.129.225.258.337.385a.79.79,0,0,0,.192-.155.79.79,0,0,1-.192.155c-.112-.127-.226-.256-.337-.385-.038-.042-.072-.084-.108-.126-.11-.255-.221-.519-.34-.839l0,.008C4214.343,4282.233,4214.454,4282.495,4214.563,4282.748Zm22.435.1c.223.03.448.082.671.134a1.827,1.827,0,0,0,1.036.011l.138-.15-.138.149a1.81,1.81,0,0,1-1.036-.011c-.223-.051-.448-.1-.671-.133Zm1.743.123a.5.5,0,0,0,.113-.084.534.534,0,0,1-.113.084Zm-1.743-.123c.277-.308.563-.633.843-.963C4237.559,4282.217,4237.274,4282.542,4237,4282.851Zm-22.478-.152c-.606-.7-1.081-1.426-.657-1.91C4213.438,4281.272,4213.913,4282,4214.519,4282.7Zm21.343-.377c.8-.839,1.021-1.1.569-.388-.083.094-.19.2-.3.3.105-.1.212-.208.3-.3.451-.717.226-.451-.57.386a3.368,3.368,0,0,1-.642.084A3.443,3.443,0,0,0,4235.862,4282.321Zm-.991-.036.342.119-.342-.119Zm42.115.02Zm-40.9-.025c.05-.014.1-.011.149-.028-.051.018-.1.014-.149.028Zm40.495-.034Zm-67.278-.187c.072.021.146.04.218.063l.156.046-.156-.046c-.072-.023-.146-.042-.218-.063a2.613,2.613,0,0,1-.212-1.349h0A2.615,2.615,0,0,0,4209.308,4282.059Zm27.79-.512h0Zm-.084,0a3.022,3.022,0,0,1-1.051-.428A3.013,3.013,0,0,0,4237.013,4281.547Zm-1.795-.425.073-.01Zm.005-.011a.66.66,0,0,1,.315-.08.659.659,0,0,0-.315.08Zm.682-.016a14.851,14.851,0,0,0,2.189-.195,14.986,14.986,0,0,1-2.189.195.4.4,0,0,0-.063-.015.541.541,0,0,1,.063.015Zm-.071-.018Zm-.114-.025.143-.02-.143.02Zm2.284-.021c.033-.035.065-.072.1-.111C4238.07,4280.959,4238.038,4281,4238,4281.032Zm15.838-.012c.167-.2.329-.388.486-.557-.158.169-.32.359-.486.557Zm-15.825-.3c.027.061.05.12.076.182-.026-.062-.049-.121-.075-.182l-.524-.964Zm-25.672.13Zm-.143-1.75c-.341.1-.481.527-.077,1.725-.4-1.2-.264-1.628.077-1.725Zm1.161,1.307.321.024-.321-.024Zm63.794-.009.075-.054c0-.028,0-.057,0-.084,0,.027,0,.056,0,.084Zm-63.859-.2Zm40.995-.024c0-.346.29-.1.472-1.349C4254.585,4280.078,4254.3,4279.828,4254.295,4280.174Zm.34-.139a15.435,15.435,0,0,1,1-2.393,15.435,15.435,0,0,0-1,2.393Zm-19.706-.366Zm-20.428-.163-.079,0Zm-.09,0h0Zm-.532-1.04c.181.47.385.9.453,1.037-.067-.137-.272-.567-.453-1.037-.211-.56-.382-1.146-.382-1.146a8.513,8.513,0,0,0-.682.785c-.01-.051-.02-.1-.03-.152.01.05.02.1.03.152a8.513,8.513,0,0,1,.682-.785S4213.668,4277.909,4213.879,4278.469Zm.7,1.031a.8.8,0,0,0,.188-.044A.8.8,0,0,1,4214.578,4279.5Zm-.626-.041a2.467,2.467,0,0,0,.323.041,2.467,2.467,0,0,1-.323-.041Zm.323.041-.016-.011Zm-.226-.065h0Zm.824-.032Zm20.409-.176Zm51.274-3.861a30.116,30.116,0,0,1,.273,3.051v0a30.334,30.334,0,0,0-.273-3.047c-.05-3.538-.359-7.063-.173-6.853a.022.022,0,0,0-.015-.009C4286.214,4268.5,4286.507,4271.928,4286.555,4275.365Zm-73.9,2.97Zm0,0c-.018-.117-.035-.232-.051-.35C4212.621,4278.1,4212.637,4278.218,4212.655,4278.335Zm41.438-.286Zm-41.49-.064h0Zm-.076,0a1.291,1.291,0,0,1-.4-.107A1.291,1.291,0,0,0,4212.528,4277.982Zm41.736-.072a.966.966,0,0,0-.015-.1A.966.966,0,0,1,4254.264,4277.911Zm-.118-.01c.033-.089.057-.146.076-.146h0C4254.2,4277.754,4254.179,4277.812,4254.146,4277.9Zm-41.187-.056.023-.024Zm1.256-.044c0-.339.051-.663.052-.975C4214.266,4277.138,4214.215,4277.461,4214.215,4277.8Zm41.121-1.488a1.98,1.98,0,0,0-.824,1.3,1.98,1.98,0,0,1,.825-1.3c-.218-.3-.2-.761.267-1.679C4255.133,4275.552,4255.119,4276.017,4255.336,4276.313Zm-13.382,1.038a1.617,1.617,0,0,1-.259-.612h0A1.6,1.6,0,0,0,4241.954,4277.351Zm-30.98-.025Zm81.3-.286c0-12.467-4.187-24.774-10.991-33.222C4288.087,4252.266,4292.274,4264.572,4292.274,4277.04Zm-36.729-.112a2.153,2.153,0,0,1,.027-.33A2.153,2.153,0,0,0,4255.545,4276.927Zm-41.492-.761h0Zm.06,0h0Zm-1.611-.639.006.109a1.29,1.29,0,0,0,.753.406,1.294,1.294,0,0,1-.753-.406l-.006-.109Zm.91.476Zm60.285-.959c.005.036.01.07.015.106a.671.671,0,0,0,.252-.61.669.669,0,0,1-.252.609c-.005-.035-.01-.069-.015-.106Zm-64-1.743c.018.085.036.168.056.252.044.061.089.121.138.2a3.715,3.715,0,0,1,1.64-1.883,3.715,3.715,0,0,0-1.64,1.883c-.049-.077-.094-.137-.138-.2-.02-.084-.038-.167-.055-.252.275-.78.591-1.6.955-2.48C4210.287,4271.7,4209.972,4272.52,4209.7,4273.3Zm77.41-1.321a0,0,0,0,0,0,0c-.263-1.474-.444-2.419-.565-2.946C4286.662,4269.558,4286.843,4270.5,4287.106,4271.979Zm-.011-.109a38.251,38.251,0,0,0-.432-3.91A38.4,38.4,0,0,1,4287.1,4271.87Zm-74.165-.515c.026-.027.063-.057.086-.083C4212.994,4271.3,4212.957,4271.327,4212.931,4271.354Zm.081-.1a1.346,1.346,0,0,1,.212-1.08A1.34,1.34,0,0,0,4213.012,4271.252Zm-1.2-.269.018.006-.018-.006Zm-31.394-.327h0a1.737,1.737,0,0,0-.292-.218h0A1.651,1.651,0,0,1,4180.415,4270.657Zm-.293-.22c-.173,0-.31-.028-.345-.112C4179.812,4270.409,4179.949,4270.436,4180.122,4270.437Zm0,0a.953.953,0,0,0-.345-.112A.959.959,0,0,1,4180.122,4270.437Zm.408-.067Zm32.242-.77a5.244,5.244,0,0,1,.417.518,5.37,5.37,0,0,0-.417-.519,2.843,2.843,0,0,1-.255-.335A2.935,2.935,0,0,0,4212.772,4269.6Zm.684.323a.691.691,0,0,1,.106-.068.762.762,0,0,0-.106.067,1.4,1.4,0,0,1-.276-.09A1.441,1.441,0,0,0,4213.456,4269.923Zm.057-.542a.772.772,0,0,0,.3.422A.777.777,0,0,1,4213.513,4269.382Zm-35.523-.385a.2.2,0,0,0,.157.109.2.2,0,0,1-.157-.109Zm.244.079a1.324,1.324,0,0,0,.345-.335A1.324,1.324,0,0,1,4178.233,4269.076Zm-.319-.245-.008-.024Zm.958-2.424a8.266,8.266,0,0,0-.959,2.39,8.277,8.277,0,0,1,.959-2.39,2.591,2.591,0,0,0,.222-.943A2.591,2.591,0,0,1,4178.873,4266.407Zm107.76,1.393.015.076-.015-.076c-.01-.051-.02-.1-.029-.153C4286.613,4267.7,4286.623,4267.749,4286.633,4267.8Zm-.065-.358c-.006-.032-.011-.064-.017-.1C4286.556,4267.378,4286.562,4267.41,4286.567,4267.442Zm-.979-5.005a27.853,27.853,0,0,1,.78,3.779,28.022,28.022,0,0,0-.778-3.779c-.009-.032-.018-.065-.027-.1Zm-103.213,1.905c.09-.066.182-.126.271-.2-.09.073-.181.132-.271.2Zm-.021-.3c0-.005-.008-.008-.011-.008S4182.35,4264.034,4182.354,4264.039Zm-3.119-.215a.906.906,0,0,1,.247-.205.506.506,0,0,1,.125-.014.509.509,0,0,0-.125.014.906.906,0,0,0-.247.205Zm.878-.185c-.025,0-.049,0-.073,0C4180.064,4263.643,4180.089,4263.642,4180.114,4263.64Zm-.3-.016a1.943,1.943,0,0,0,.2.019,1.943,1.943,0,0,1-.2-.019Zm-.332,0q.034-.021.072-.04Q4179.516,4263.6,4179.482,4263.619Zm-1.224-.053.181-.115.7-.419-.7.419-.181.115Zm106.734-.041Zm-104.469-.056.017-.014Zm-.034-.021a1.83,1.83,0,0,0-.237-.019A1.83,1.83,0,0,1,4180.489,4263.447Zm104.393,0a7.553,7.553,0,0,1-1-2.123A7.546,7.546,0,0,0,4284.882,4263.446Zm-104.678-.018h0Zm-1.8-.136.668-.569Zm-.024-.457a2.352,2.352,0,0,1,.692-.112A2.32,2.32,0,0,0,4178.385,4262.836Zm.067-.313.7-.109-.7.108Zm0-.064.023,0,.36-.982-.361.982-.022,0Zm.023,0,.779-.059h0Zm107.063-.2Zm-.211-4.947.091.969c.048.583.08,1.342.1,2.119.028.649.026,1.277.024,1.809,0-.531.005-1.159-.023-1.808-.017-.778-.049-1.537-.1-2.12l-.091-.969Zm.15,4.711c-.014-.055-.028-.11-.043-.165C4285.45,4261.9,4285.464,4261.959,4285.478,4262.015Zm-34.678-.236a.486.486,0,0,1,.167-.159.477.477,0,0,0-.167.159Zm43.664-.4-.06-.2Zm0,0c0-.034-.161-1.145-.406-2.237C4294.3,4260.238,4294.458,4261.347,4294.463,4261.381Zm-16.159-12.076c.11.286.222.57.329.856.275.418.549.867.849,1.36.434.733.888,1.536,1.344,2.365s.78,1.735,1.169,2.6c.37.873.731,1.726,1.071,2.52.285.812.551,1.563.78,2.215-.229-.652-.5-1.4-.78-2.215-.338-.793-.7-1.647-1.071-2.52-.389-.864-.707-1.772-1.168-2.6s-.911-1.632-1.345-2.365c-.3-.493-.573-.942-.849-1.36-.106-.286-.219-.57-.329-.856l-.078-.2Zm-97.964,11.358,1.005.277-1.005-.277Zm.952.216c-.226-.183-.888-.248-.271-.529h0C4180.4,4260.632,4181.066,4260.7,4181.292,4260.879Zm-.019-.48Zm0,0c-.048-.032-.094-.062-.136-.093C4181.179,4260.338,4181.225,4260.368,4181.273,4260.4Zm.939-.288a.074.074,0,0,0,.027,0h0A.068.068,0,0,1,4182.212,4260.111Zm101.651-3.395a26.37,26.37,0,0,1,.957,2.83,26.616,26.616,0,0,0-.955-2.83l-.778-2.07Zm9.726.2s.236,1.12.468,2.231c-.231-1.112-.468-2.232-.468-2.232l-.026-.1.026.1c-.4-.507-1.2-2.149-1.369-2.292C4292.384,4254.763,4293.193,4256.406,4293.589,4256.913Zm-9.77,1.646c-.607-1.782-1.175-3.706-1.9-5.37C4282.644,4254.855,4283.212,4256.777,4283.819,4258.559Zm-13.067-.251.034.041Zm-1.389-1.438c.288.249.535.486.75.712l.277-.247h0l-.277.247c-.214-.226-.461-.463-.75-.712Zm15.275.394q0,.051,0,.105,0-.055,0-.105Zm.649-.086c-.1-.279-.249-.451-.377-.462C4285.038,4256.727,4285.185,4256.9,4285.287,4257.177Zm8.417-.833a32.591,32.591,0,0,0-1.6-4.729,32.537,32.537,0,0,1,1.6,4.729c.116.5.112.688.039.688C4293.815,4257.032,4293.819,4256.845,4293.7,4256.344Zm-23.044.518-.029-.025Zm.55-.133c-.112-.192-.238-.395-.387-.615C4270.971,4256.334,4271.1,4256.536,4271.209,4256.729Zm13.663-.012.023,0h0Zm-15.981-.231.056.044-.055-.044c-.005-.031-.01-.061-.014-.092C4268.882,4256.424,4268.886,4256.455,4268.891,4256.485Zm.167-.026h0l-.189-.124Zm1.137-.056-.007,0Zm-.015-.012Zm-.122-.186-.01-.018Zm-.025-.061a5.2,5.2,0,0,0-.3-.683q-.083.254-.167.51.083-.256.167-.509A5.133,5.133,0,0,1,4270.034,4256.145Zm15.962,0s-.314-.987-.79-2.464c-.271-.73-.588-1.581-.93-2.492s-.8-1.833-1.209-2.788c.41.954.856,1.881,1.209,2.788s.658,1.762.93,2.492c.476,1.478.79,2.464.79,2.464Zm-66.67-.1c.05-.048.086-.085.142-.136-.056.051-.092.088-.142.136a2.014,2.014,0,0,1-.213.012A2.014,2.014,0,0,0,4219.326,4256.04Zm-.483-.008Zm.634-.021a1.638,1.638,0,0,0,.448-.161,1.638,1.638,0,0,1-.448.161Zm50.092-.039Zm23.017-.122-.036-.1Zm-22.211-.073c-.128-.1-.256-.193-.386-.288Zm-.336-.083h0Zm22.477-.036-.054-.15Zm-.064-.177-.031-.086Zm-1.159-1.442-.272-.645Zm-13.548-9a35.165,35.165,0,0,1,3.889,6.416c.383.8.837,1.626,1.2,2.515-.361-.888-.815-1.714-1.2-2.515a35.165,35.165,0,0,0-3.889-6.416Zm-31.212,7.667.02.207a2.806,2.806,0,0,1,.243.211c.371.031.755.069,1.164.119-.409-.05-.793-.088-1.164-.119a2.806,2.806,0,0,0-.243-.211l-.02-.207Zm-6.628-.322a.647.647,0,0,0,.122.549l.537.29.092-.011h.014c.216-.1.306-.229.306-.36,0,.131-.09.258-.306.36h-.014l-.092.011-.537-.29a.643.643,0,0,1-.121-.549c.2-.043.4-.071.594-.1C4240.3,4252.309,4240.109,4252.335,4239.9,4252.38Zm7.777.811h0c-.242-.227-.453-.429-.635-.61C4247.229,4252.761,4247.44,4252.964,4247.681,4253.19Zm21.6-.214v0c-.054-.033-.107-.068-.16-.1Zm-22.743-.283.028-.024Zm22.277-.021Zm-21.931-.13h0Zm20.362-.8c.136.08.273.152.409.234l.014-.136h0l-.014.135c-.136-.081-.273-.153-.409-.234a4.212,4.212,0,0,0-.6-.783A4.2,4.2,0,0,1,4267.249,4251.741Zm24.875-.06-.021-.067Zm-24.144-.079.054.014-.054-.014c-.213-.392-.4-.728-.508-.939C4267.585,4250.875,4267.767,4251.211,4267.98,4251.6Zm-86.395-.131c.036,0,.072.006.106.006.229-.323.281-.843.671-1.137-.391.294-.442.814-.671,1.137-.034,0-.069,0-.105-.007Zm49.279-.258a.092.092,0,0,0,.1-.056c.007-.025,0-.046.01-.07-.005.024,0,.044-.01.07a.094.094,0,0,1-.1.056Zm35.349-.764c.047.059.1.117.146.175-.048-.059-.1-.117-.146-.176a2.43,2.43,0,0,1-.461-1.325A2.436,2.436,0,0,0,4266.213,4250.451Zm-83.558-1.125c.258-.075.458-.186.459-.4,0,.219-.2.33-.459.4Zm0,0c.078-.151.158-.3.238-.458C4182.813,4249.023,4182.734,4249.174,4182.656,4249.326Zm105.994-1.091q.254.493.487.978-.234-.484-.487-.978c-.381-.678-.752-1.383-1.141-2.082C4287.9,4246.852,4288.269,4247.556,4288.65,4248.234Zm-8.768.806c-.612-.951-1.017-1.41-1.017-1.121-.742-1.437-1.187-2.349-1.378-2.824.191.475.636,1.387,1.378,2.825,0-.058.016-.086.047-.086C4279.036,4247.835,4279.393,4248.281,4279.882,4249.041Zm-96.85-.2a.209.209,0,0,1-.111.025A.206.206,0,0,0,4183.032,4248.844Zm39.408-.506Zm57.68-.076-.01,0Zm-54.651-.047c.146-.018.3-.037.458-.059-.159.021-.312.041-.458.059a2.646,2.646,0,0,0-.288-.02A2.646,2.646,0,0,1,4225.469,4248.215Zm-.661,0v0Zm.208-.014.12,0h0Zm.358-.121c-.16.042-.353.081-.563.116.211-.036.4-.073.563-.115.178-.011.39-.018.628-.021C4225.764,4248.06,4225.553,4248.066,4225.375,4248.077Zm-2.322.107a.081.081,0,0,1,.022-.054A.081.081,0,0,0,4223.052,4248.184Zm3.055-.129Zm53.633-.184-.018-.022Zm-.05-.064-.014-.018Zm-.086-.114-.046-.062Zm-53.195-.1.618-.041.121-.063.3-.735-.3.735-.121.063-.618.041Zm39.295-.432c-.038,0-.076.007-.118.007C4265.628,4247.168,4265.666,4247.164,4265.7,4247.161Zm-.281-.02.012,0-.012,0Zm16.088-.268c-.575-.958-1.17-1.9-1.784-2.815C4280.341,4244.971,4280.937,4245.916,4281.512,4246.874Zm-4.518-.583-.041-.089Zm3.357-2.926c.374.581.772,1.264,1.177,2.006-.4-.743-.8-1.426-1.175-2.006-.8-1.355-1.419-2.2-1.419-2.2S4279.557,4242.01,4280.351,4243.365Zm-16.6,1.667a.519.519,0,0,0,.24.058h0A.516.516,0,0,1,4263.752,4245.032Zm13.958-.04c-.034-.041-.065-.078-.094-.111C4277.645,4244.914,4277.676,4244.951,4277.71,4244.992Zm.689-.067-.012-.017ZM4278.328,4244.826Zm1.46-.178a3.05,3.05,0,0,0-.06-.589A3.05,3.05,0,0,1,4279.788,4244.647Zm-20.516-.626.142.321a.857.857,0,0,0,.211.082h0a.9.9,0,0,1-.21-.081c-.046-.106-.094-.213-.142-.321Zm17.669-1c.219.362.489.789.856,1.332h0c-.367-.544-.638-.97-.857-1.333Zm-24.357.277c.335.275.67.551,1,.831-.329-.28-.664-.555-1-.831Zm7.393.413c-.184.248-.365.477-.648.329C4259.611,4244.194,4259.792,4243.963,4259.976,4243.716Zm1.808-.136c.188.122.394.248.648.388-.254-.14-.46-.266-.648-.388Zm-1.781.1c.039-.052.078-.1.118-.152C4260.08,4243.576,4260.042,4243.628,4260,4243.68Zm16.79-.422a.63.63,0,0,1-.823.266h0A.631.631,0,0,0,4276.792,4243.257Zm9.636.241a34.406,34.406,0,0,0-5.64-7.052A34.425,34.425,0,0,1,4286.428,4243.5Zm-8.016,0a1.313,1.313,0,0,1,.294-.789A1.313,1.313,0,0,0,4278.413,4243.495Zm-17.418-.063a.09.09,0,0,1-.041.01A.09.09,0,0,0,4260.995,4243.432Zm-.121-.021a.183.183,0,0,0,.027.017.183.183,0,0,1-.027-.017l-.012-.009Zm-.83-.029c.739-.1.353-.6.606-.964h0C4260.4,4242.778,4260.783,4243.277,4260.044,4243.381Zm.778-.008a.605.605,0,0,0-.2-.093A.615.615,0,0,1,4260.822,4243.373Zm.25-.035.006-.013Zm-8.477-.038a.393.393,0,0,1,.053-.008A.393.393,0,0,0,4252.6,4243.3Zm9.779-.028.021.021-.02-.021a1.721,1.721,0,0,0-.262-.021A1.7,1.7,0,0,1,4262.375,4243.272Zm-9.714.02h0Zm7.153,0a.19.19,0,0,0-.086-.15A.19.19,0,0,1,4259.815,4243.287Zm.668-.014a.35.35,0,0,1,.051,0h0A.35.35,0,0,0,4260.483,4243.273Zm16.309-.016.025-.036Zm.027-.038.04-.061Zm-34.061-5.913a37.4,37.4,0,0,1,9.231,5.5c.164.128.315.265.477.4a1.207,1.207,0,0,1,.23-.066,1.14,1.14,0,0,0-.23.066c-.161-.13-.312-.267-.477-.4a37.365,37.365,0,0,0-9.231-5.5Zm34.11,5.837.014-.022Zm-15.739-.054c0-.028,0-.057,0-.086,0,.029,0,.058,0,.086-.072-.063-.14-.127-.2-.188C4260.99,4242.963,4261.058,4243.027,4261.13,4243.09Zm15.811-.064c.226-.392.417-.845.824-.845h0C4277.357,4242.181,4277.166,4242.634,4276.94,4243.026Zm-4.362-.859.444.624a.556.556,0,0,0,.1-.347.556.556,0,0,1-.1.347l-.444-.624c-.191-1.082-1.633-2.357-1.746-2.885C4270.945,4239.81,4272.387,4241.085,4272.578,4242.167Zm6.129.54c-.028-.026-.056-.052-.084-.076C4278.651,4242.654,4278.679,4242.68,4278.707,4242.706Zm-.1-.092-.022-.02Zm-.046-.04-.04-.032Zm-.088-.071h0Zm-17.754-.149Zm-74.173-.323a.755.755,0,0,1,.162-.007h.006a.837.837,0,0,0-.167.008Zm.671-.019h0Zm63.4-.249a1.444,1.444,0,0,0,.147-.625A1.444,1.444,0,0,1,4250.615,4241.763Zm-63.527-.747c.354.03.729.078,1.091.122-.362-.044-.738-.092-1.091-.122Zm1.333-.281a.219.219,0,0,1-.1.027A.219.219,0,0,0,4188.422,4240.735Zm-.115.027a.489.489,0,0,1-.3-.176A.489.489,0,0,0,4188.307,4240.762Zm.209-.095Zm.288-.268c-.029.08-.179.106-.615.032h0C4188.625,4240.506,4188.775,4240.479,4188.8,4240.4Zm-.915.051-.019-.023Zm.916-.055h0Zm88.925-.2c-.093-.1-.186-.2-.279-.3C4277.544,4240,4277.637,4240.094,4277.73,4240.194ZM4274.18,4240.161Zm0,0-1.022-.063h0Zm-85.522-.271c0-.007,0-.014,0-.02S4188.658,4239.884,4188.658,4239.891Zm-.269-.168a1.1,1.1,0,0,1,.434-.959A1.1,1.1,0,0,0,4188.389,4239.723Zm88.861-.208c-.31-.388-.743-.932-1.261-1.579Zm-8.248-3.667a2.415,2.415,0,0,0,1.96,1.113c.522.078.938.288,1.095,1.809v0c-.157-1.518-.574-1.728-1.094-1.805a2.415,2.415,0,0,1-1.962-1.113Zm-80.022,2.808a3.355,3.355,0,0,1,.534-.248,3.272,3.272,0,0,0-.534.248l-.174-.064a.267.267,0,0,0,0,.044.267.267,0,0,1,0-.044Zm84.135-.264a3.065,3.065,0,0,0,.326.157,3.065,3.065,0,0,1-.326-.157Zm-.026-.012a1.383,1.383,0,0,0-.535-.163A1.389,1.389,0,0,1,4273.088,4238.38Zm.867-.087a1.356,1.356,0,0,0,.054-.256,1.328,1.328,0,0,1-.054.255q-.177-.183-.382-.382C4273.71,4238.044,4273.837,4238.171,4273.956,4238.293Zm-25.671-.235a.852.852,0,0,0,.111-.126A.852.852,0,0,1,4248.284,4238.058Zm20.623-.056c-.228-.24-.461-.469-.7-.693C4268.446,4237.532,4268.68,4237.762,4268.907,4238Zm0-.012c-.061-.242-.263-.471-.7-.682C4268.64,4237.519,4268.843,4237.748,4268.9,4237.99Zm-23.95-.44a1.014,1.014,0,0,1,.5-.168,1.014,1.014,0,0,0-.5.168,1.067,1.067,0,0,1-.536.169A1.076,1.076,0,0,0,4244.954,4237.55Zm1.221.138a1.288,1.288,0,0,0-.2-.469,1.288,1.288,0,0,1,.2.469Zm-25.867-.229c.148-.026.3-.054.445-.083l-.007-.1.006.1c-.148.028-.3.057-.444.083l-.046-.248Zm23.341-.005-.031-.019Zm29.418-.025-.074-.069Zm-29.488-.019-.075-.049Zm-.078-.051a6.142,6.142,0,0,1-.583-.449A6.142,6.142,0,0,0,4243.5,4237.36Zm-.318,0c-.432-.18-.471-.284-.471-.427,0,.143.04.247.471.427Zm-23.413-.2.165.2Zm1.121.2c.051-.011.1-.017.155-.028-.052.011-.1.018-.155.028l-.021-.052Zm-31.363-.015a1.107,1.107,0,0,1,.173-.016,1.107,1.107,0,0,0-.173.016Zm0,0,.028-.038Zm.2-.015Zm0,0-.115-.089h0Zm31.345,0c.256-.051.512-.1.766-.134-.253.039-.51.083-.766.134Zm21.563-.061-.244-.095Zm10.745,0c.016,0,.032-.009.047-.011h0c-.016,0-.032.008-.047.011l-.012-.015Zm-32.643-.293.109.273.01.007-.01-.007-.109-.273Zm53.63-.161c.144.139.291.276.435.416l.539-.086h0l-.538.087c-.145-.141-.292-.277-.435-.416a3.023,3.023,0,0,1-.11-.747A3.023,3.023,0,0,0,4274.364,4236.8Zm-32.063.329-.107-.041Zm-.11-.042-.078-.029Zm-18.98-.07h0c-.159-.218-.327-.5-.505-.8C4222.884,4236.512,4223.051,4236.8,4223.209,4237.017Zm18.753-.014a26.514,26.514,0,0,0-9.048-1.659A26.516,26.516,0,0,1,4241.962,4237Zm.919-.123-.1-.087Zm33.845-.032-.3-.356.3.355Zm-50.687-.011a.106.106,0,0,1,0-.012.106.106,0,0,0,0,.012Zm16.674-.017a.667.667,0,0,0-.006-.1A.667.667,0,0,1,4242.713,4236.82Zm-.113-.014a.987.987,0,0,1,.071-.314A.987.987,0,0,0,4242.6,4236.806Zm-17.343-.231c0-.009,0-.019,0-.027C4225.258,4236.556,4225.258,4236.565,4225.257,4236.575Zm1.362-.13Zm.02-.01c.216-.09.465-.183.717-.272-.252.089-.5.182-.717.272Zm-.02-.031v0Zm-34.383-2.1a12.193,12.193,0,0,0,.878,1.982.554.554,0,0,1,.041-.1.554.554,0,0,0-.041.1,12.193,12.193,0,0,1-.878-1.982Zm34.382,1.979Zm-32.219-.073a.29.29,0,0,1-.076.009A.29.29,0,0,0,4194.4,4236.21Zm-.146,0a1.905,1.905,0,0,1-.326-.094A1.905,1.905,0,0,0,4194.253,4236.214Zm29.864-.015a1.812,1.812,0,0,1,.055-.333c.022,0,.049.023.067.043,0-.008,0-.016,0-.023a.812.812,0,0,1,.014-.094l-.084,0a2.239,2.239,0,0,0-.052.328C4224.12,4236.146,4224.119,4236.172,4224.117,4236.2Zm-29.674-.006.007,0Zm-.539-.08-.014,0Zm47.028-.013h0a9.3,9.3,0,0,1-1.357-.045A9.374,9.374,0,0,0,4240.933,4236.1Zm-47.09-.009c-.065-.022-.129-.043-.192-.059C4193.713,4236.048,4193.778,4236.069,4193.843,4236.091Zm47.252-.015q.168-.034.168-.1Q4241.263,4236.041,4241.095,4236.076Zm-16.039-.008c-.268,0-.546-.151-.821-.091h0a.637.637,0,0,1,.136-.014C4224.6,4235.963,4224.832,4236.068,4225.056,4236.068Zm55.177,0a2.157,2.157,0,0,0-.165-.154C4280.074,4235.911,4280.126,4235.961,4280.233,4236.063Zm-56.265-.249h.124a.953.953,0,0,1,.029.246.9.9,0,0,0-.029-.264l-.341.009c-.163.042-.33.1-.493.14,0,.02,0,.039,0,.057q0-.026,0-.053c.163-.044.33-.092.493-.134.048,0,.094,0,.136,0Zm-30.432.2a.617.617,0,0,0-.066,0A.617.617,0,0,1,4193.536,4236.01Zm-.122,0,.043,0h0Zm34.765-.138h0a1.574,1.574,0,0,1-.385-.55A1.582,1.582,0,0,0,4228.18,4235.869Zm2.109-.126c.171.031.319.06.468.089-.149-.029-.3-.058-.468-.089Zm-4.381-.07,0,0c-.09.115-.156.129-.209.095C4225.749,4235.806,4225.815,4235.791,4225.908,4235.673Zm-.213.1,0,0Zm-.006,0,0,0Zm-.005,0-.016-.015Zm-.016-.015Zm0,0a.714.714,0,0,1-.118-.276l-.018,0c.022.085.044.188.07.272l.032,0Zm4.622-.005a1.228,1.228,0,0,1,.21-.023h0A1.218,1.218,0,0,0,4230.289,4235.743Zm42.029-.013-.052-.04ZM4229.828,4235.653Zm.012-.03s0,0,0,0S4229.84,4235.622,4229.84,4235.623Zm42.226-.085-.074-.055Zm-81-.018v0l1.173-.463-1.173.463v0Zm2.586-.044.07-.057Zm34.036-.413a2.056,2.056,0,0,0,.1.252l.347.037.585.1-.585-.1-.347-.037a2.056,2.056,0,0,1-.1-.252Zm1.037.393a2.375,2.375,0,0,0-.119-.47h0A2.379,2.379,0,0,1,4228.726,4235.455Zm40.968,0a1.208,1.208,0,0,0,.059-.669h0A1.208,1.208,0,0,1,4269.694,4235.455Zm2.17-.065c-.081-.058-.16-.113-.237-.165C4271.7,4235.277,4271.783,4235.332,4271.864,4235.39Zm-40.123-.022c.042,0,.082,0,.122,0-.041,0-.08,0-.122,0,0-.027-.012-.052-.016-.077C4231.729,4235.316,4231.736,4235.342,4231.741,4235.368Zm.5-.016.314-.006-.314.006Zm.617-.008h0Zm42.373-.134c-.57-.617-.934-1.008-1.143-1.287C4274.3,4234.2,4274.665,4234.592,4275.235,4235.209Zm-81.213-.028.223-.176-.223.176-.01-.039Zm77.388-.1-.16-.1Zm-43.24-.006c-.016,0-.03-.02-.043-.05h0C4228.14,4235.057,4228.154,4235.077,4228.17,4235.077Zm.032-.024a.2.2,0,0,0,.016-.026A.2.2,0,0,1,4228.2,4235.053Zm.018-.034h0Zm5.125-.119.252-.094Zm-38.932-.011Zm0,0-.1-.087Zm40.119-.019a2.49,2.49,0,0,0-.156-.357,2.6,2.6,0,0,1,.156.357s0,0,0,0S4234.533,4234.872,4234.533,4234.871Zm-42.331-.021c0-.07.007-.142.007-.216C4192.209,4234.708,4192.2,4234.781,4192.2,4234.851Zm2.271-.031h0a.789.789,0,0,0-.25-.1A.771.771,0,0,1,4194.473,4234.82Zm75.476-.027Zm-74.2-.006c.065-.125.127-.237.186-.338-.06.1-.121.214-.187.337Zm-1.777-.141c.042-.363.265-.571.724-.106a.719.719,0,0,0-.45-.269C4194.085,4234.271,4194,4234.431,4193.973,4234.645Zm40.124-.025.086-.032h0Zm37.9-.011Zm-75.735-.219a.885.885,0,0,0,.423.19.892.892,0,0,1-.423-.19Zm73.955.186h0Zm-75.524-.037Zm1.7-.2a.251.251,0,0,1,.079-.021h0A.251.251,0,0,0,4196.4,4234.336Zm-1.283-.008-.058-.043Zm-2.4-.1c0-.017,0-.033,0-.048C4192.717,4234.2,4192.718,4234.211,4192.72,4234.228Zm2.248-.006h0Zm-.041-.026a3.079,3.079,0,0,0-1.14-.443A3.079,3.079,0,0,1,4194.928,4234.2Zm76.442-3.229c.577.743,1.607,1.76,2.723,2.957-1.116-1.2-2.146-2.213-2.723-2.958a2.311,2.311,0,0,1-.583-.859A2.3,2.3,0,0,0,4271.37,4230.966Zm2.723,2.957c-.415-.537-.214-.5,0-.456.093.018.188.036.233,0a.072.072,0,0,0,.026-.068.072.072,0,0,1-.026.067c-.045.031-.14.013-.233,0a.921.921,0,0,0-.152-.021C4273.815,4233.445,4273.786,4233.526,4274.093,4233.922Zm-80.335-.175c-.07-.011-.138-.018-.2-.022C4193.62,4233.729,4193.688,4233.737,4193.758,4233.748Zm-.345-.026h0Zm67.755-3.287a4.219,4.219,0,0,1,2.344,3.037c.073.051.143.109.216.161-.074-.052-.144-.11-.216-.161a4.219,4.219,0,0,0-2.344-3.037Zm-76.407,3.083a77.5,77.5,0,0,0,6.833-6.364c.731-.871,1.474-1.619,2.271-2.508a22.984,22.984,0,0,1,3.04-2.794,22.984,22.984,0,0,0-3.04,2.793c-.8.89-1.542,1.638-2.271,2.509A78.1,78.1,0,0,1,4184.761,4233.518Zm10.091-.287c0-1.043,1.062-1.008,1.06-1.7C4195.914,4232.223,4194.854,4232.187,4194.852,4233.23Zm79.384-.077,0,0Zm0,0a21.86,21.86,0,0,0-3.14-3.148A21.916,21.916,0,0,1,4274.233,4233.148Zm-9.44-.28.022-.006Zm.022-.006c-.807-.6-1.69-1.213-2.594-1.822C4263.125,4231.649,4264.008,4232.269,4264.815,4232.862Zm-1.479-1.4,1.392.939s.2.16.492.406c.057,0,.109-.009.175-.009-.066,0-.118.007-.175.009-.292-.246-.492-.406-.492-.406s-.555-.375-1.392-.939Zm6.172.7a.451.451,0,0,1-.068,0A.451.451,0,0,0,4269.508,4232.16Zm-.091,0a.945.945,0,0,1-.343-.095A.945.945,0,0,0,4269.417,4232.164Zm.174-.024a.422.422,0,0,0,.063-.027A.422.422,0,0,1,4269.591,4232.14Zm.109-.056-.031-.01ZM4269.07,4232.071Zm0,0a.326.326,0,0,1,.126-.052.326.326,0,0,0-.126.052l-.024-.014c-.247-.206-.489-.4-.732-.6a10.133,10.133,0,0,1-1.292-1.988,10.133,10.133,0,0,0,1.292,1.988c.244.2.485.4.732.6l.024.014Zm.553-.007a1.574,1.574,0,0,0-.195-.044A1.574,1.574,0,0,1,4269.627,4232.063Zm-69.853,0v0a1.063,1.063,0,0,1,.039-.185h0A1.413,1.413,0,0,0,4199.774,4232.06Zm69.51-.052h0Zm-69.423-.078.013-.018Zm-.61-.034a3.015,3.015,0,0,1,.406-.453h0a3.041,3.041,0,0,0-.405.453Zm-.027-.089v0Zm-.03-.122c0-.007,0-.014,0-.021S4199.192,4231.678,4199.193,4231.686Zm-.006-.033a0,0,0,0,1,0,0A0,0,0,0,0,4199.188,4231.653Zm-2.467-1.034c.471.4.991,1.082,1.117.7h0c-.125.377-.645-.3-1.115-.7Zm66.559.807,0,0Zm-.057-.038-.011-.007Zm6.137-.021-.7-.67Zm-6.193-.016-.021-.014Zm-.054-.035-.044-.028Zm-3.1-2.753,1.054,1.513c.723.43,1.418.836,1.993,1.207-.574-.371-1.27-.777-1.993-1.208-.224-.32-.63-.9-1.054-1.511Zm6.982.462c.7.522,1.464,1.191,2.275,1.915l.342.3-.342-.3c-.811-.724-1.578-1.392-2.275-1.915l-.276-.218Zm-70.975,2.162-.013-.008Zm-.049-.034.033.023-.033-.023Zm0,0c.083-.058.166-.118.248-.176Zm.391-.044h0l-.143-.132ZM4200.523,4231.073Zm.022,0a5.405,5.405,0,0,1,1.44-1.153A5.405,5.405,0,0,0,4200.545,4231.069Zm61.676-.029c-.334-.229-.672-.448-1.01-.664C4261.549,4230.593,4261.887,4230.812,4262.221,4231.04Zm-63.534-.389a2.742,2.742,0,0,0,1.015.346,2.735,2.735,0,0,1-1.014-.346,2.766,2.766,0,0,0-1.055-.345A2.765,2.765,0,0,1,4198.687,4230.651Zm1.506.031a1.106,1.106,0,0,0,.053-.125A1.106,1.106,0,0,1,4200.193,4230.682Zm0-.105a.645.645,0,0,1-.194.04A.645.645,0,0,0,4200.192,4230.577Zm0,0h0Zm.026-.009.028-.01Zm60.95-.132a.7.7,0,0,0,.043-.059C4261.2,4230.4,4261.183,4230.416,4261.168,4230.435Zm-60.608-.012a4.255,4.255,0,0,1,1.307-.526h0A4.236,4.236,0,0,0,4200.56,4230.423Zm-.626-.272Zm0,0-.006-.01Zm-.03-.082v0Zm0,0c0-.042.041-.064.118-.057h-.029C4199.935,4230.008,4199.9,4230.03,4199.9,4230.067Zm3.279-.6a2.339,2.339,0,0,1-.391.031A2.339,2.339,0,0,0,4203.183,4229.468Zm-.617.023c-.238-.324-.488-.641-.7-.641C4202.078,4228.85,4202.327,4229.167,4202.566,4229.491Zm-.511-.037h0c-.149-.012-.3-.021-.457-.021C4201.753,4229.432,4201.905,4229.442,4202.055,4229.454Zm-1.584-.147.968-.105a.77.77,0,0,1-.489-.125.754.754,0,0,0,.489.125l-.968.105Zm66.347-.274.264.225-.264-.225c-.014-.031-.032-.069-.044-.1C4266.785,4228.964,4266.8,4229,4266.817,4229.033Zm-65.883.032h0Zm0,0c-.123-.093-.152-.178-.267-.043.043-.05.074-.07.1-.07C4200.816,4228.952,4200.856,4229.006,4200.933,4229.064Zm65.963-.032-.176-.226Zm-1.561-1.311,1.38,1.083.058.13-.058-.131c-.555-.436-1.039-.816-1.378-1.084l-.619-.441.013.009Zm-63.551,1.146c0,.012,0,.023,0,.034,0-.011,0-.022,0-.034Zm-.814-.171h0a5.15,5.15,0,0,1,.454-.428A5.117,5.117,0,0,0,4200.97,4228.7Zm65.272-.158Zm-64.238-.206Zm.063-.074a.225.225,0,0,1,.241-.058.267.267,0,0,0-.08-.014A.23.23,0,0,0,4202.066,4228.26Zm.241-.058.04-.037-.04.037Zm58.462-.036.135-.1Zm-57.52-.236a.183.183,0,0,0,.011-.039.222.222,0,0,1-.011.039Zm55.044-.035a.439.439,0,0,0,.2-.245.439.439,0,0,1-.2.245c-1.212-.27-.356-1.23-1.641-1.261C4257.938,4226.666,4257.081,4227.625,4258.293,4227.9Zm-55.084-.022,0,0Zm-1.178,0Zm0,0a1.43,1.43,0,0,1,.188-.075,1.369,1.369,0,0,0-.187.074Zm54.571-.31c.088.1.2.176.291.271l.061.029a.728.728,0,0,0,.216-.088c.179-.284.283-.684-.026-.708.309.024.206.425.026.708a.728.728,0,0,1-.216.088l-.061-.029c-.094-.095-.2-.167-.291-.271Zm-54.38.234h0Zm.427-.057Zm58.665-1.681c1.039.563,2.185,1.074,3.2,1.554-1.011-.479-2.156-.991-3.2-1.554a10.639,10.639,0,0,1-2.01-1.727A10.639,10.639,0,0,0,4261.314,4226.057Zm-59.309,1.322.035-.019Zm56.083-.217a1.1,1.1,0,0,1,.4-.3A1.1,1.1,0,0,0,4258.089,4227.162Zm-55.595-.037.286-.146Zm54.451-.039-.046-.009Zm-.106-.011h0Zm.255-.013h0Zm-54.063-.212.017.019.056-.055-.056.055Zm55.657-.076c.016,0,.035,0,.051-.008-.016,0-.034,0-.051.008Zm-.205,0c0-.049,0-.1.008-.146C4258.487,4226.673,4258.483,4226.721,4258.483,4226.77Zm.256,0-.107-.063v0ZM4257,4226.1a1.391,1.391,0,0,1-.138-.017A1.391,1.391,0,0,0,4257,4226.1Zm-.183-.025c-.079-.015-.169-.035-.271-.06C4256.645,4226.04,4256.736,4226.06,4256.814,4226.074Zm-.5-.095v0Zm-62.962-.229q.869-.521,1.651-.956-.784.436-1.651.956Zm62.895-.36.144.085-.144-.085v0h0Zm-44.836-.408c0,.015,0,.035.006.049.3.021.593.063.807-.138a1.1,1.1,0,0,0,.308-.676,1.1,1.1,0,0,1-.308.676c-.213.2-.5.159-.807.138,0-.014,0-.034-.006-.049Zm-3.732-1.141a2.094,2.094,0,0,0-.493.434h0a2.054,2.054,0,0,1,.492-.432c.1-.058.213-.109.321-.164C4207.893,4223.732,4207.778,4223.785,4207.68,4223.841Zm4.852.34.532-.329-.532.329Zm-.448-.517c.264.107.448.264.448.505,0-.242-.185-.4-.448-.505,0-.011,0-.022,0-.034C4212.08,4223.642,4212.082,4223.653,4212.083,4223.664Zm-4,.095h0c-.012-.036-.015-.072-.025-.106h0C4208.063,4223.687,4208.068,4223.723,4208.08,4223.759Zm47.741-.354.51.239-.51-.239a.455.455,0,0,1-.027-.151A.446.446,0,0,0,4255.82,4223.4Zm-32.232-.6c.027.2-.03.446.339.649l.107.023.925-.185.33-.045a.188.188,0,0,0,0-.023.188.188,0,0,1,0,.023l-.33.045-.925.185-.107-.023C4223.558,4223.252,4223.615,4223.008,4223.588,4222.806Zm-10.727-.088a2.417,2.417,0,0,1-.794.44c0,.059-.007.12-.007.181q0-.092.007-.18a2.453,2.453,0,0,0,.794-.44c.546-.19,1.111-.375,1.67-.557.26.2.178.443-.1.719.275-.276.357-.522.1-.72C4213.972,4222.344,4213.407,4222.527,4212.861,4222.718Zm-4.156.617.047-.034-.047.033Zm16.047-.3c.07-.056.144-.093.216-.141C4224.9,4222.945,4224.822,4222.982,4224.752,4223.038Zm-11.934-.376c.563-.187,1.125-.366,1.676-.532-.551.167-1.113.345-1.676.531-.128-.114-.159-.222-.465-.154a.767.767,0,0,1,.163-.021C4212.677,4222.484,4212.718,4222.57,4212.818,4222.661Zm10.7-.037.006.013.072-.01h-.008l-.063.009-.006-.012Zm0,0h0Zm-11.444-.049v0Zm.123-.027.022-.007Zm.023-.007.024-.007Zm.1-.028.013,0Zm.017,0h0Zm-.649-.276.078.034-.078-.034Zm0,0c.4-.121.8-.231,1.2-.333l0,0C4212.494,4222,4212.094,4222.111,4211.69,4222.232Zm1.026-.2Zm29.83-1.4c.247.108.49.218.743.33h0l-.743-.331Zm.848.152h0Zm0,0a.4.4,0,0,0,.02-.121A.417.417,0,0,1,4243.4,4220.771Zm-27.837-2.971c-3.089.625-5.449,1.23-7.392,1.808l-2.658.811-.3.1.3-.1,2.658-.811c1.943-.578,4.3-1.184,7.393-1.808l2.713-1.615Zm-14.735,1.546-1.613,1-.11.069.11-.069,1.613-1,.756-.41Zm-1.828,1.05a24.319,24.319,0,0,1,2.584-1.46A24.223,24.223,0,0,0,4198.995,4220.4Zm8.071-.5c.385-.415.19-.744-.712-.747C4207.256,4219.155,4207.451,4219.483,4207.066,4219.9Zm-2.159-.577h0Zm.014,0,.2-.038Zm38.322-.082Zm.083-.039Zm-37.292-.037c.109-.007.211-.011.305-.011h0C4206.246,4219.151,4206.144,4219.155,4206.035,4219.162Zm36.4-.107-.143-.085Zm-3.6-2.61c.146-.043.136-.115-.007-.207h0c.144.091.153.162.007.206Zm-59.841,93.531a.658.658,0,0,1,.087-.036.079.079,0,0,1-.063.041A.065.065,0,0,1,4178.987,4309.976Zm111.114-3.9-.131.416s-.39.634-.78,1.267-.838,1.228-.838,1.228C4288.984,4308.069,4289.515,4307.112,4290.1,4306.078Zm-117.148-16.664a17.82,17.82,0,0,1-.708-3.2c.211,1.261.657,2.426.984,3.647.178.607.356,1.22.542,1.845.2.621.464,1.236.7,1.885A23.418,23.418,0,0,1,4172.953,4289.415Zm110.807-53.609c.312.417.575.789.818,1.144C4284.306,4236.565,4284.034,4236.178,4283.759,4235.806Z" transform="translate(-3877 -3790)" fill="#fbad41" stroke="rgba(0,0,0,0)" stroke-miterlimit="10" stroke-width="1"></path></g><g id="icon" transform="translate(926.655 1498)"><g id="icon-2" data-name="icon" transform="translate(3.345 4)"><path id="path" d="M35.736,5.109A3.327,3.327,0,0,0,33.252,4H31.589a3.327,3.327,0,0,0-3.327,3.726l.521,4.314a1.109,1.109,0,0,0,1.109.976h5.034a1.109,1.109,0,0,0,1.109-.976l.521-4.314a3.327,3.327,0,0,0-.821-2.617Z" transform="translate(-0.635 -4)" fill="#e9eeb8"></path><path id="path-2" data-name="path" d="M34.286,10A23.286,23.286,0,0,0,11,33.286v3.327a1.109,1.109,0,0,0,1.109,1.109H56.464a1.109,1.109,0,0,0,1.109-1.109V33.286A23.286,23.286,0,0,0,34.286,10Z" transform="translate(-2.511 -3.347)" fill="#e9eeb8"></path><path id="path-3" data-name="path" d="M61.69,48.065l-5.666-.821L53.485,42.11a1.109,1.109,0,0,0-1.985,0l-2.539,5.134-5.666.821a1.109,1.109,0,0,0-.621,1.9l4.1,4-.965,5.644a1.109,1.109,0,0,0,1.608,1.175L52.5,58.111l5.068,2.672a1.109,1.109,0,0,0,1.608-1.175l-.965-5.644,4.1-4a1.109,1.109,0,0,0-.621-1.9Z" transform="translate(0.9 0.082)" fill="#e80000"></path><path id="path-4" data-name="path" d="M22.7,48.065l-5.666-.821L14.495,42.11a1.109,1.109,0,0,0-1.985,0L9.971,47.244,4.3,48.065a1.109,1.109,0,0,0-.621,1.9l4.1,4-.965,5.644a1.109,1.109,0,0,0,1.608,1.175L13.5,58.111l5.079,2.672a1.109,1.109,0,0,0,1.608-1.175l-.965-5.644,4.1-4a1.109,1.109,0,0,0-.621-1.9Z" transform="translate(-3.345 0.082)" fill="#e80000"></path><path id="path-5" data-name="path" d="M42.2,48.066l-5.677-.821-2.528-5.134a1.109,1.109,0,0,0-2,0l-2.528,5.134-5.677.821a1.109,1.109,0,0,0-.61,1.9l4.1,4-.943,5.644a1.109,1.109,0,0,0,1.619,1.175L33,58.112l5.068,2.672a1.109,1.109,0,0,0,1.586-1.175l-.976-5.644,4.1-4a1.109,1.109,0,0,0-.577-1.9Z" transform="translate(-1.222 0.081)" fill="#e80000"></path><path id="path-6" data-name="path" d="M61.944,33H7.61a1.109,1.109,0,0,0-.787,1.9l4.435,4.435a1.109,1.109,0,0,0,.787.322H57.509a1.109,1.109,0,0,0,.787-.322L62.731,34.9a1.109,1.109,0,0,0-.787-1.9Z" transform="translate(-3.002 -0.843)" fill="#e9eeb8"></path></g><g id="icon-3" data-name="icon" transform="translate(3.345 4)"><path id="path-7" data-name="path" d="M11.258,42.489a1.109,1.109,0,0,0,.787.322H57.509a1.109,1.109,0,0,0,.787-.322l4.435-4.435a1.109,1.109,0,0,0-.787-1.9H58.063V33.94A23.286,23.286,0,0,0,38.514,10.986l.4-3.26A3.327,3.327,0,0,0,35.586,4H33.923A3.327,3.327,0,0,0,30.6,7.726l.4,3.26A23.286,23.286,0,0,0,11.491,33.94v2.218H7.61a1.109,1.109,0,0,0-.787,1.9ZM32.847,7.46a1.109,1.109,0,0,1,1.109-1.242H35.62A1.109,1.109,0,0,1,36.728,7.46l-.388,3.327a15.912,15.912,0,0,0-3.083,0ZM13.708,33.94a21.069,21.069,0,0,1,42.137,0v2.218H13.708Zm45.563,4.435-2.218,2.218H12.5l-2.218-2.218Z" transform="translate(-3.002 -4)" fill="#e80000"></path><path id="path-8" data-name="path" d="M22.719,17.261a18.917,18.917,0,0,0-7.274,10.911,1.109,1.109,0,1,0,2.151.51,16.633,16.633,0,0,1,6.431-9.625,1.111,1.111,0,1,0-1.308-1.8Z" transform="translate(-2.033 -2.579)" fill="#e80000"></path><path id="path-9" data-name="path" d="M53.485,42.11a1.109,1.109,0,0,0-1.985,0l-2.539,5.134-5.666.821a1.109,1.109,0,0,0-.621,1.9l4.1,4-.965,5.644a1.109,1.109,0,0,0,1.608,1.175L52.5,58.111l5.068,2.672a1.109,1.109,0,0,0,1.608-1.175l-.965-5.644,4.1-4a1.109,1.109,0,0,0-.621-1.9l-5.666-.821Zm2.75,10.667a1.109,1.109,0,0,0-.31.987l.687,4-3.559-1.9a1.109,1.109,0,0,0-1.031,0l-3.6,1.9.688-4a1.109,1.109,0,0,0-.31-.987l-2.916-2.839,4.025-.588a1.109,1.109,0,0,0,.832-.6L52.542,45.1l1.752,3.6a1.109,1.109,0,0,0,.832.6l4.025.588Z" transform="translate(0.9 0.082)" fill="#290505"></path><path id="path-10" data-name="path" d="M7.786,53.964l-.965,5.644a1.109,1.109,0,0,0,1.608,1.175L13.5,58.111l5.079,2.672a1.109,1.109,0,0,0,1.608-1.175l-.965-5.644,4.1-4a1.109,1.109,0,0,0-.621-1.9l-5.666-.821L14.495,42.11a1.109,1.109,0,0,0-1.985,0L9.971,47.244,4.3,48.065a1.109,1.109,0,0,0-.621,1.9Zm3.083-4.613a1.109,1.109,0,0,0,.832-.6L13.5,45.1l1.807,3.6a1.109,1.109,0,0,0,.832.6l4.025.588-2.916,2.839a1.109,1.109,0,0,0-.31.987l.688,4-3.571-1.852a1.109,1.109,0,0,0-1.031,0l-3.637,1.9.688-4a1.109,1.109,0,0,0-.31-.987L6.844,49.939Z" transform="translate(-3.345 0.082)" fill="#290505"></path><path id="path-11" data-name="path" d="M42.2,48.066l-5.677-.821-2.528-5.134a1.109,1.109,0,0,0-2,0l-2.528,5.134-5.677.821a1.109,1.109,0,0,0-.61,1.9l4.1,4-.943,5.644a1.109,1.109,0,0,0,1.619,1.175L33,58.112l5.068,2.672a1.109,1.109,0,0,0,1.586-1.175l-.976-5.644,4.1-4a1.109,1.109,0,0,0-.577-1.9Zm-5.456,4.713a1.109,1.109,0,0,0-.322.987l.687,4-3.593-1.9a1.109,1.109,0,0,0-1.042,0l-3.593,1.9.688-4a1.109,1.109,0,0,0-.322-.987L26.344,49.94l4.025-.588a1.109,1.109,0,0,0,.843-.6L33,45.105l1.8,3.6a1.109,1.109,0,0,0,.843.6l4.025.588Z" transform="translate(-1.222 0.081)" fill="#290505"></path></g></g></g></svg>